<svg width="10" height="10" viewBox="0 0 10 10" fill="none" xmlns="http://www.w3.org/2000/svg">
<path d="M5 0C2.2379 0 0 2.2379 0 5C0 7.7621 2.2379 10 5 10C7.7621 10 10 7.7621 10 5C10 2.2379 7.7621 0 5 0ZM5 9.03226C2.77218 9.03226 0.967742 7.22782 0.967742 5C0.967742 2.77218 2.77218 0.967742 5 0.967742C7.22782 0.967742 9.03226 2.77218 9.03226 5C9.03226 7.22782 7.22782 9.03226 5 9.03226ZM6.24597 6.92742L4.53427 5.68347C4.47177 5.6371 4.43548 5.56452 4.43548 5.4879V2.17742C4.43548 2.04435 4.54435 1.93548 4.67742 1.93548H5.32258C5.45565 1.93548 5.56452 2.04435 5.56452 2.17742V5.03427L6.91129 6.01411C7.02016 6.09274 7.04234 6.24395 6.96371 6.35282L6.58468 6.875C6.50605 6.98185 6.35484 7.00605 6.24597 6.92742Z" fill="#1BBB16"/>
</svg>
