<svg width="19" height="17" viewBox="0 0 19 17" fill="none" xmlns="http://www.w3.org/2000/svg">
<path d="M16.5401 10.625H7.2091L7.41744 11.6875H15.9614C16.4516 11.6875 16.815 12.1623 16.7063 12.661L16.5307 13.467C17.1257 13.7683 17.5359 14.4044 17.5359 15.1406C17.5359 16.1766 16.7236 17.0147 15.7271 16.9998C14.7778 16.9856 13.9971 16.182 13.9715 15.192C13.9575 14.6512 14.1652 14.1611 14.5064 13.8125H7.83311C8.16342 14.15 8.36863 14.6202 8.36863 15.1406C8.36863 16.1969 7.52423 17.0475 6.50112 16.9979C5.59267 16.9539 4.85385 16.1883 4.8061 15.2409C4.76924 14.5093 5.13829 13.8645 5.69899 13.5281L3.46297 2.125H1.23855C0.816631 2.125 0.474609 1.76823 0.474609 1.32812V0.796875C0.474609 0.356768 0.816631 0 1.23855 0H4.50212C4.86502 0 5.17782 0.266322 5.25056 0.637168L5.54232 2.125H18.0449C18.5351 2.125 18.8984 2.59984 18.7898 3.09848L17.2851 10.0047C17.206 10.3675 16.8968 10.625 16.5401 10.625Z" fill="white"/>
</svg>
