<svg width="16" height="9" viewBox="0 0 16 9" fill="none" xmlns="http://www.w3.org/2000/svg">
<path d="M12.8206 2.99995C12.4481 2.99761 12.0932 3.05386 11.7608 3.16167L10.9385 1.87497H12.998C13.3305 1.87497 13.5979 1.62419 13.5979 1.31248V0.562491C13.5979 0.250777 13.3305 0 12.998 0H11.8658C11.6958 0 11.5333 0.0679677 11.4209 0.185153L10.4836 1.16248L9.91369 0.271871C9.80371 0.103123 9.60875 0 9.3988 0H7.39923C7.17927 0 6.99931 0.168747 6.99931 0.374994V0.749988C6.99931 0.956234 7.17927 1.12498 7.39923 1.12498H9.05887L9.53877 1.87497H5.69709C5.25468 1.33357 4.57483 0.937485 3.20012 0.937485H1.81292C1.47549 0.937485 1.19305 1.19529 1.20055 1.51169C1.20555 1.81638 1.47299 2.06247 1.80042 2.06247H3.20012C3.81249 2.06247 4.16742 2.31793 4.39487 2.64371L4.11243 3.12417C3.7875 3.03276 3.44007 2.99058 3.08015 3.0023C1.39801 3.05854 0.0408008 4.34993 0.000809348 5.92959C-0.0391821 7.61941 1.40801 8.99985 3.20012 8.99985C4.68981 8.99985 5.94204 8.04362 6.29946 6.74989H8.40401C8.74644 6.74989 9.01888 6.48271 9.00388 6.16162C8.95139 5.05773 9.44129 3.96556 10.4086 3.23198L10.721 3.71947C10.0312 4.27493 9.59376 5.09992 9.60125 6.021C9.61375 7.65222 11.0309 8.98579 12.7706 8.99985C14.5602 9.01626 16.0149 7.65222 15.9999 5.97412C15.9824 4.3429 14.5602 3.01167 12.8206 2.99995ZM3.20012 7.87487C2.09786 7.87487 1.20055 7.03348 1.20055 5.9999C1.20055 4.96633 2.09786 4.12493 3.20012 4.12493C3.3051 4.12493 3.41008 4.13196 3.51256 4.14837L2.47528 5.91553C2.25533 6.29052 2.54526 6.74989 3.00017 6.74989H5.03223C4.7223 7.41082 4.01745 7.87487 3.20012 7.87487ZM14.7951 6.10303C14.7402 7.05457 13.9203 7.82331 12.908 7.87253C11.7558 7.93112 10.7985 7.06863 10.7985 5.9999C10.7985 5.49835 11.0085 5.04367 11.3509 4.70852L12.5856 6.63974C12.6981 6.81786 12.9455 6.87411 13.1355 6.76864L13.4779 6.57646C13.6679 6.47099 13.7279 6.23896 13.6154 6.06084L12.4007 4.16478C12.5306 4.139 12.6631 4.12728 12.7981 4.12728C13.9378 4.12493 14.8551 5.02257 14.7951 6.10303Z" fill="#3F3F3F"/>
</svg>
