<svg width="182" height="64" viewBox="0 0 182 64" fill="none" xmlns="http://www.w3.org/2000/svg">
<path d="M18 63.999C27.9411 63.999 36 56.164 36 46.499C36 36.834 27.9411 28.999 18 28.999C8.05887 28.999 0 36.834 0 46.499C0 56.164 8.05887 63.999 18 63.999Z" fill="#1877F2"/>
<path d="M23.3705 48.193L24.0315 43.908H19.9175V41.127C19.8888 40.8071 19.9324 40.4849 20.045 40.1842C20.1577 39.8834 20.3365 39.6118 20.5683 39.3896C20.8001 39.1673 21.0789 38.9999 21.3841 38.9C21.6893 38.8 22.0131 38.7699 22.3315 38.812H24.2015V35.164C23.1043 34.9869 21.9957 34.8903 20.8845 34.875C17.4985 34.875 15.2845 36.927 15.2845 40.642V43.908H11.5215V48.193H15.2855V58.551H19.9175V48.193H23.3705Z" fill="white"/>
<path d="M164 63.999C173.941 63.999 182 56.164 182 46.499C182 36.834 173.941 28.999 164 28.999C154.059 28.999 146 36.834 146 46.499C146 56.164 154.059 63.999 164 63.999Z" fill="#FF0000"/>
<path d="M173.557 41.8972C173.444 41.4723 173.222 41.0845 172.912 40.7726C172.602 40.4608 172.216 40.2358 171.791 40.1202C170.233 39.7002 163.991 39.7002 163.991 39.7002C163.991 39.7002 157.745 39.7002 156.191 40.1202C155.766 40.2345 155.378 40.459 155.066 40.7709C154.755 41.0829 154.531 41.4713 154.417 41.8972C153.861 45.0992 153.861 48.3732 154.417 51.5752C154.531 51.9967 154.754 52.3806 155.065 52.6878C155.375 52.995 155.761 53.2146 156.183 53.3242C157.741 53.7442 163.983 53.7442 163.983 53.7442C163.983 53.7442 170.229 53.7442 171.783 53.3242C172.206 53.2146 172.592 52.995 172.902 52.6878C173.212 52.3806 173.436 51.9967 173.549 51.5752C174.106 48.3732 174.106 45.0992 173.549 41.8972H173.557ZM161.944 49.7032V43.7632L167.165 46.7332L161.944 49.7032Z" fill="white"/>
<path d="M66.5 63.999C76.165 63.999 84 56.164 84 46.499C84 36.834 76.165 28.999 66.5 28.999C56.835 28.999 49 36.834 49 46.499C49 56.164 56.835 63.999 66.5 63.999Z" fill="url(#paint0_linear)"/>
<path d="M66.6427 41.1458C65.582 41.1458 64.5451 41.4603 63.6632 42.0496C62.7812 42.6389 62.0938 43.4765 61.6879 44.4565C61.282 45.4364 61.1758 46.5148 61.3827 47.5551C61.5897 48.5954 62.1004 49.551 62.8505 50.301C63.6005 51.051 64.5561 51.5618 65.5964 51.7688C66.6367 51.9757 67.7151 51.8695 68.695 51.4636C69.675 51.0577 70.5126 50.3703 71.1019 49.4883C71.6912 48.6064 72.0057 47.5695 72.0057 46.5088C72.0069 45.8042 71.869 45.1063 71.5999 44.4551C71.3308 43.8039 70.9358 43.2122 70.4375 42.7139C69.9393 42.2157 69.3476 41.8207 68.6964 41.5516C68.0452 41.2825 67.3473 41.1446 66.6427 41.1458ZM66.6427 49.9958C65.953 49.9958 65.2788 49.7913 64.7054 49.4081C64.132 49.025 63.685 48.4804 63.4211 47.8432C63.1572 47.2061 63.0881 46.5049 63.2227 45.8285C63.3572 45.1521 63.6893 44.5308 64.177 44.0431C64.6647 43.5555 65.286 43.2234 65.9624 43.0888C66.6388 42.9543 67.3399 43.0233 67.9771 43.2872C68.6143 43.5512 69.1589 43.9981 69.542 44.5715C69.9252 45.145 70.1297 45.8191 70.1297 46.5088C70.1278 47.433 69.7598 48.3187 69.1063 48.9721C68.4527 49.6255 67.5668 49.9932 66.6427 49.9948V49.9958ZM73.4767 40.9248C73.4767 41.1722 73.4033 41.4141 73.2659 41.6198C73.1284 41.8256 72.933 41.9859 72.7044 42.0806C72.4758 42.1753 72.2243 42.2 71.9816 42.1518C71.739 42.1035 71.5161 41.9844 71.3411 41.8094C71.1661 41.6344 71.047 41.4115 70.9987 41.1689C70.9505 40.9262 70.9752 40.6747 71.0699 40.4461C71.1646 40.2175 71.3249 40.0221 71.5307 39.8846C71.7364 39.7472 71.9783 39.6738 72.2257 39.6738C72.3901 39.6734 72.5529 39.7055 72.7049 39.7682C72.8568 39.831 72.9949 39.9231 73.1112 40.0393C73.2274 40.1556 73.3195 40.2936 73.3823 40.4456C73.445 40.5976 73.4771 40.7604 73.4767 40.9248ZM77.0287 42.1948C77.0631 40.5685 76.456 38.994 75.3387 37.8118C74.1534 36.6991 72.5801 36.0937 70.9547 36.1248C69.2277 36.0248 64.0547 36.0248 62.3247 36.1248C60.6997 36.0924 59.1265 36.6972 57.9417 37.8098C56.8279 38.9932 56.2222 40.566 56.2547 42.1908C56.1547 43.9178 56.1547 49.0908 56.2547 50.8208C56.2202 52.4471 56.8273 54.0216 57.9447 55.2038C59.1297 56.3166 60.7023 56.923 62.3277 56.8938C64.0547 56.9938 69.2277 56.9938 70.9577 56.8938C72.584 56.9283 74.1585 56.3212 75.3407 55.2038C76.4543 54.0192 77.0607 52.4463 77.0307 50.8208C77.1267 49.0948 77.1267 43.9248 77.0287 42.1958V42.1948ZM74.7977 52.6748C74.6202 53.1247 74.3521 53.5333 74.0101 53.8753C73.6682 54.2172 73.2596 54.4853 72.8097 54.6628C71.4327 55.2088 68.1657 55.0828 66.6437 55.0828C65.1217 55.0828 61.8497 55.2038 60.4777 54.6628C60.0276 54.4854 59.6188 54.2174 59.2767 53.8754C58.9345 53.5334 58.6663 53.1248 58.4887 52.6748C57.9427 51.2978 58.0687 48.0308 58.0687 46.5088C58.0687 44.9868 57.9477 41.7148 58.4887 40.3428C58.6663 39.8928 58.9345 39.4842 59.2767 39.1422C59.6188 38.8002 60.0276 38.5322 60.4777 38.3548C61.8547 37.8088 65.1217 37.9348 66.6437 37.9348C68.1657 37.9348 71.4377 37.8138 72.8097 38.3548C73.2596 38.5323 73.6682 38.8004 74.0101 39.1424C74.3521 39.4843 74.6202 39.8929 74.7977 40.3428C75.3437 41.7198 75.2177 44.9868 75.2177 46.5088C75.2177 48.0308 75.3437 51.3018 74.7977 52.6748Z" fill="white"/>
<path d="M115 64C124.941 64 133 56.165 133 46.5C133 36.835 124.941 29 115 29C105.059 29 97 36.835 97 46.5C97 56.165 105.059 64 115 64Z" fill="#43BCEB"/>
<path d="M9.908 1.4C10.136 1.4 10.322 1.478 10.466 1.634C10.61 1.778 10.682 1.964 10.682 2.192V13.118C10.682 13.37 10.598 13.58 10.43 13.748C10.274 13.916 10.07 14 9.818 14C9.686 14 9.554 13.982 9.422 13.946C9.302 13.898 9.206 13.832 9.134 13.748L2.06 4.532V13.208C2.06 13.436 1.982 13.628 1.826 13.784C1.682 13.928 1.496 14 1.268 14C1.04 14 0.854 13.928 0.71 13.784C0.566 13.628 0.494 13.436 0.494 13.208V2.264C0.494 2.012 0.572 1.808 0.728 1.652C0.896 1.484 1.1 1.4 1.34 1.4C1.484 1.4 1.622 1.43 1.754 1.49C1.886 1.538 1.988 1.61 2.06 1.706L9.116 10.94V2.192C9.116 1.964 9.188 1.778 9.332 1.634C9.488 1.478 9.68 1.4 9.908 1.4ZM22.3896 9.284C22.3896 10.22 22.1796 11.06 21.7596 11.804C21.3396 12.548 20.7636 13.13 20.0316 13.55C19.3116 13.97 18.5136 14.18 17.6376 14.18C16.7616 14.18 15.9576 13.97 15.2256 13.55C14.5056 13.13 13.9356 12.548 13.5156 11.804C13.0956 11.06 12.8856 10.22 12.8856 9.284C12.8856 8.348 13.0956 7.502 13.5156 6.746C13.9356 5.99 14.5056 5.402 15.2256 4.982C15.9576 4.562 16.7616 4.352 17.6376 4.352C18.5136 4.352 19.3116 4.562 20.0316 4.982C20.7636 5.402 21.3396 5.99 21.7596 6.746C22.1796 7.502 22.3896 8.348 22.3896 9.284ZM20.6796 9.284C20.6796 8.636 20.5416 8.06 20.2656 7.556C20.0016 7.04 19.6356 6.644 19.1676 6.368C18.7116 6.08 18.2016 5.936 17.6376 5.936C17.0736 5.936 16.5576 6.08 16.0896 6.368C15.6336 6.644 15.2676 7.04 14.9916 7.556C14.7276 8.06 14.5956 8.636 14.5956 9.284C14.5956 9.92 14.7276 10.49 14.9916 10.994C15.2676 11.498 15.6336 11.894 16.0896 12.182C16.5576 12.458 17.0736 12.596 17.6376 12.596C18.2016 12.596 18.7116 12.458 19.1676 12.182C19.6356 11.894 20.0016 11.498 20.2656 10.994C20.5416 10.49 20.6796 9.92 20.6796 9.284ZM23.8376 12.524C23.7296 12.356 23.6756 12.194 23.6756 12.038C23.6756 11.798 23.8016 11.594 24.0536 11.426C24.1736 11.342 24.3116 11.3 24.4676 11.3C24.6836 11.3 24.8816 11.39 25.0616 11.57C25.4216 11.978 25.8056 12.284 26.2136 12.488C26.6336 12.692 27.1316 12.794 27.7076 12.794C28.1636 12.782 28.5656 12.68 28.9136 12.488C29.2616 12.284 29.4356 11.96 29.4356 11.516C29.4356 11.108 29.2556 10.796 28.8956 10.58C28.5476 10.364 28.0316 10.166 27.3476 9.986C26.6756 9.806 26.1176 9.62 25.6736 9.428C25.2296 9.224 24.8516 8.936 24.5396 8.564C24.2396 8.18 24.0896 7.682 24.0896 7.07C24.0896 6.53 24.2396 6.056 24.5396 5.648C24.8516 5.24 25.2596 4.922 25.7636 4.694C26.2796 4.466 26.8376 4.352 27.4376 4.352C28.0136 4.352 28.5836 4.46 29.1476 4.676C29.7236 4.892 30.1916 5.222 30.5516 5.666C30.6956 5.834 30.7676 6.008 30.7676 6.188C30.7676 6.38 30.6716 6.566 30.4796 6.746C30.3596 6.854 30.2096 6.908 30.0296 6.908C29.8136 6.908 29.6396 6.836 29.5076 6.692C29.2556 6.404 28.9436 6.182 28.5716 6.026C28.2116 5.87 27.8096 5.792 27.3656 5.792C26.9096 5.792 26.5196 5.888 26.1956 6.08C25.8836 6.26 25.7276 6.572 25.7276 7.016C25.7396 7.436 25.9196 7.748 26.2676 7.952C26.6276 8.156 27.1736 8.354 27.9056 8.546C28.5416 8.714 29.0696 8.894 29.4896 9.086C29.9096 9.278 30.2636 9.566 30.5516 9.95C30.8396 10.322 30.9836 10.814 30.9836 11.426C30.9836 11.99 30.8216 12.482 30.4976 12.902C30.1736 13.31 29.7476 13.628 29.2196 13.856C28.7036 14.072 28.1516 14.18 27.5636 14.18C26.8076 14.18 26.1056 14.048 25.4576 13.784C24.8216 13.52 24.2816 13.1 23.8376 12.524ZM32.4157 12.524C32.3077 12.356 32.2537 12.194 32.2537 12.038C32.2537 11.798 32.3797 11.594 32.6317 11.426C32.7517 11.342 32.8897 11.3 33.0457 11.3C33.2617 11.3 33.4597 11.39 33.6397 11.57C33.9997 11.978 34.3837 12.284 34.7917 12.488C35.2117 12.692 35.7097 12.794 36.2857 12.794C36.7417 12.782 37.1437 12.68 37.4917 12.488C37.8397 12.284 38.0137 11.96 38.0137 11.516C38.0137 11.108 37.8337 10.796 37.4737 10.58C37.1257 10.364 36.6097 10.166 35.9257 9.986C35.2537 9.806 34.6957 9.62 34.2517 9.428C33.8077 9.224 33.4297 8.936 33.1177 8.564C32.8177 8.18 32.6677 7.682 32.6677 7.07C32.6677 6.53 32.8177 6.056 33.1177 5.648C33.4297 5.24 33.8377 4.922 34.3417 4.694C34.8577 4.466 35.4157 4.352 36.0157 4.352C36.5917 4.352 37.1617 4.46 37.7257 4.676C38.3017 4.892 38.7697 5.222 39.1297 5.666C39.2737 5.834 39.3457 6.008 39.3457 6.188C39.3457 6.38 39.2497 6.566 39.0577 6.746C38.9377 6.854 38.7877 6.908 38.6077 6.908C38.3917 6.908 38.2177 6.836 38.0857 6.692C37.8337 6.404 37.5217 6.182 37.1497 6.026C36.7897 5.87 36.3877 5.792 35.9437 5.792C35.4877 5.792 35.0977 5.888 34.7737 6.08C34.4617 6.26 34.3057 6.572 34.3057 7.016C34.3177 7.436 34.4977 7.748 34.8457 7.952C35.2057 8.156 35.7517 8.354 36.4837 8.546C37.1197 8.714 37.6477 8.894 38.0677 9.086C38.4877 9.278 38.8417 9.566 39.1297 9.95C39.4177 10.322 39.5617 10.814 39.5617 11.426C39.5617 11.99 39.3997 12.482 39.0757 12.902C38.7517 13.31 38.3257 13.628 37.7977 13.856C37.2817 14.072 36.7297 14.18 36.1417 14.18C35.3857 14.18 34.6837 14.048 34.0357 13.784C33.3997 13.52 32.8597 13.1 32.4157 12.524ZM49.3245 4.442C49.5765 4.442 49.7805 4.526 49.9365 4.694C50.1045 4.85 50.1885 5.06 50.1885 5.324V13.136C50.1885 13.376 50.1045 13.58 49.9365 13.748C49.7805 13.916 49.5765 14 49.3245 14C49.0725 14 48.8685 13.922 48.7125 13.766C48.5565 13.598 48.4785 13.388 48.4785 13.136V12.668C48.1665 13.088 47.7405 13.448 47.2005 13.748C46.6605 14.036 46.0785 14.18 45.4545 14.18C44.6385 14.18 43.8945 13.97 43.2225 13.55C42.5625 13.13 42.0405 12.548 41.6565 11.804C41.2845 11.048 41.0985 10.202 41.0985 9.266C41.0985 8.33 41.2845 7.49 41.6565 6.746C42.0405 5.99 42.5625 5.402 43.2225 4.982C43.8825 4.562 44.6085 4.352 45.4005 4.352C46.0365 4.352 46.6245 4.484 47.1645 4.748C47.7165 5.012 48.1545 5.348 48.4785 5.756V5.324C48.4785 5.072 48.5565 4.862 48.7125 4.694C48.8685 4.526 49.0725 4.442 49.3245 4.442ZM45.6525 12.596C46.2165 12.596 46.7145 12.452 47.1465 12.164C47.5905 11.876 47.9325 11.48 48.1725 10.976C48.4245 10.472 48.5505 9.902 48.5505 9.266C48.5505 8.642 48.4245 8.078 48.1725 7.574C47.9325 7.07 47.5905 6.674 47.1465 6.386C46.7145 6.086 46.2165 5.936 45.6525 5.936C45.0885 5.936 44.5845 6.08 44.1405 6.368C43.7085 6.656 43.3665 7.052 43.1145 7.556C42.8745 8.06 42.7545 8.63 42.7545 9.266C42.7545 9.902 42.8745 10.472 43.1145 10.976C43.3665 11.48 43.7085 11.876 44.1405 12.164C44.5845 12.452 45.0885 12.596 45.6525 12.596ZM52.1911 12.524C52.0831 12.356 52.0291 12.194 52.0291 12.038C52.0291 11.798 52.1551 11.594 52.4071 11.426C52.5271 11.342 52.6651 11.3 52.8211 11.3C53.0371 11.3 53.2351 11.39 53.4151 11.57C53.7751 11.978 54.1591 12.284 54.5671 12.488C54.9871 12.692 55.4851 12.794 56.0611 12.794C56.5171 12.782 56.9191 12.68 57.2671 12.488C57.6151 12.284 57.7891 11.96 57.7891 11.516C57.7891 11.108 57.6091 10.796 57.2491 10.58C56.9011 10.364 56.3851 10.166 55.7011 9.986C55.0291 9.806 54.4711 9.62 54.0271 9.428C53.5831 9.224 53.2051 8.936 52.8931 8.564C52.5931 8.18 52.4431 7.682 52.4431 7.07C52.4431 6.53 52.5931 6.056 52.8931 5.648C53.2051 5.24 53.6131 4.922 54.1171 4.694C54.6331 4.466 55.1911 4.352 55.7911 4.352C56.3671 4.352 56.9371 4.46 57.5011 4.676C58.0771 4.892 58.5451 5.222 58.9051 5.666C59.0491 5.834 59.1211 6.008 59.1211 6.188C59.1211 6.38 59.0251 6.566 58.8331 6.746C58.7131 6.854 58.5631 6.908 58.3831 6.908C58.1671 6.908 57.9931 6.836 57.8611 6.692C57.6091 6.404 57.2971 6.182 56.9251 6.026C56.5651 5.87 56.1631 5.792 55.7191 5.792C55.2631 5.792 54.8731 5.888 54.5491 6.08C54.2371 6.26 54.0811 6.572 54.0811 7.016C54.0931 7.436 54.2731 7.748 54.6211 7.952C54.9811 8.156 55.5271 8.354 56.2591 8.546C56.8951 8.714 57.4231 8.894 57.8431 9.086C58.2631 9.278 58.6171 9.566 58.9051 9.95C59.1931 10.322 59.3371 10.814 59.3371 11.426C59.3371 11.99 59.1751 12.482 58.8511 12.902C58.5271 13.31 58.1011 13.628 57.5731 13.856C57.0571 14.072 56.5051 14.18 55.9171 14.18C55.1611 14.18 54.4591 14.048 53.8111 13.784C53.1751 13.52 52.6351 13.1 52.1911 12.524ZM70.9994 4.352C71.3114 4.352 71.5814 4.436 71.8094 4.604C72.0374 4.76 72.1514 4.958 72.1514 5.198C72.1514 5.486 72.0734 5.708 71.9174 5.864C71.7734 6.008 71.5934 6.08 71.3774 6.08C71.2694 6.08 71.1074 6.044 70.8914 5.972C70.6394 5.888 70.4414 5.846 70.2974 5.846C69.9254 5.846 69.5594 5.978 69.1994 6.242C68.8514 6.494 68.5634 6.848 68.3354 7.304C68.1194 7.748 68.0114 8.246 68.0114 8.798V13.136C68.0114 13.376 67.9274 13.58 67.7594 13.748C67.6034 13.916 67.3994 14 67.1474 14C66.8954 14 66.6914 13.922 66.5354 13.766C66.3794 13.598 66.3014 13.388 66.3014 13.136V5.432C66.3014 5.192 66.3794 4.988 66.5354 4.82C66.7034 4.652 66.9074 4.568 67.1474 4.568C67.3994 4.568 67.6034 4.652 67.7594 4.82C67.9274 4.988 68.0114 5.192 68.0114 5.432V6.35C68.2754 5.762 68.6714 5.288 69.1994 4.928C69.7274 4.556 70.3274 4.364 70.9994 4.352ZM81.6127 8.924C81.6007 9.14 81.5107 9.326 81.3427 9.482C81.1747 9.626 80.9767 9.698 80.7487 9.698H74.4127C74.4967 10.574 74.8267 11.276 75.4027 11.804C75.9907 12.332 76.7047 12.596 77.5447 12.596C78.1207 12.596 78.5887 12.512 78.9487 12.344C79.3087 12.176 79.6267 11.96 79.9027 11.696C80.0827 11.588 80.2567 11.534 80.4247 11.534C80.6287 11.534 80.7967 11.606 80.9287 11.75C81.0727 11.894 81.1447 12.062 81.1447 12.254C81.1447 12.506 81.0247 12.734 80.7847 12.938C80.4367 13.286 79.9747 13.58 79.3987 13.82C78.8227 14.06 78.2347 14.18 77.6347 14.18C76.6627 14.18 75.8047 13.976 75.0607 13.568C74.3287 13.16 73.7587 12.59 73.3507 11.858C72.9547 11.126 72.7567 10.298 72.7567 9.374C72.7567 8.366 72.9607 7.484 73.3687 6.728C73.7887 5.96 74.3347 5.372 75.0067 4.964C75.6907 4.556 76.4227 4.352 77.2027 4.352C77.9707 4.352 78.6907 4.55 79.3627 4.946C80.0347 5.342 80.5747 5.888 80.9827 6.584C81.3907 7.28 81.6007 8.06 81.6127 8.924ZM77.2027 5.936C76.5307 5.936 75.9487 6.128 75.4567 6.512C74.9647 6.884 74.6407 7.466 74.4847 8.258H79.7947V8.114C79.7347 7.478 79.4467 6.956 78.9307 6.548C78.4267 6.14 77.8507 5.936 77.2027 5.936ZM91.2483 0.68C91.5003 0.68 91.7043 0.764 91.8603 0.932C92.0283 1.088 92.1123 1.292 92.1123 1.544V13.136C92.1123 13.376 92.0283 13.58 91.8603 13.748C91.7043 13.916 91.5003 14 91.2483 14C90.9963 14 90.7923 13.922 90.6363 13.766C90.4803 13.598 90.4023 13.388 90.4023 13.136V12.632C90.1023 13.064 89.6763 13.43 89.1243 13.73C88.5843 14.03 88.0023 14.18 87.3783 14.18C86.5623 14.18 85.8243 13.97 85.1643 13.55C84.5043 13.13 83.9823 12.548 83.5983 11.804C83.2143 11.048 83.0223 10.202 83.0223 9.266C83.0223 8.33 83.2083 7.49 83.5803 6.746C83.9643 5.99 84.4863 5.402 85.1463 4.982C85.8063 4.562 86.5323 4.352 87.3243 4.352C87.9603 4.352 88.5483 4.484 89.0883 4.748C89.6283 5.012 90.0663 5.354 90.4023 5.774V1.544C90.4023 1.292 90.4803 1.088 90.6363 0.932C90.7923 0.764 90.9963 0.68 91.2483 0.68ZM87.5763 12.596C88.1403 12.596 88.6383 12.452 89.0703 12.164C89.5143 11.876 89.8563 11.48 90.0963 10.976C90.3483 10.472 90.4743 9.902 90.4743 9.266C90.4743 8.642 90.3483 8.078 90.0963 7.574C89.8563 7.058 89.5143 6.656 89.0703 6.368C88.6383 6.08 88.1403 5.936 87.5763 5.936C87.0123 5.936 86.5083 6.08 86.0643 6.368C85.6323 6.656 85.2903 7.058 85.0383 7.574C84.7983 8.078 84.6783 8.642 84.6783 9.266C84.6783 9.902 84.7983 10.472 85.0383 10.976C85.2903 11.48 85.6323 11.876 86.0643 12.164C86.5083 12.452 87.0123 12.596 87.5763 12.596ZM102.935 8.924C102.923 9.14 102.833 9.326 102.665 9.482C102.497 9.626 102.299 9.698 102.071 9.698H95.735C95.819 10.574 96.149 11.276 96.725 11.804C97.313 12.332 98.027 12.596 98.867 12.596C99.443 12.596 99.911 12.512 100.271 12.344C100.631 12.176 100.949 11.96 101.225 11.696C101.405 11.588 101.579 11.534 101.747 11.534C101.951 11.534 102.119 11.606 102.251 11.75C102.395 11.894 102.467 12.062 102.467 12.254C102.467 12.506 102.347 12.734 102.107 12.938C101.759 13.286 101.297 13.58 100.721 13.82C100.145 14.06 99.557 14.18 98.957 14.18C97.985 14.18 97.127 13.976 96.383 13.568C95.651 13.16 95.081 12.59 94.673 11.858C94.277 11.126 94.079 10.298 94.079 9.374C94.079 8.366 94.283 7.484 94.691 6.728C95.111 5.96 95.657 5.372 96.329 4.964C97.013 4.556 97.745 4.352 98.525 4.352C99.293 4.352 100.013 4.55 100.685 4.946C101.357 5.342 101.897 5.888 102.305 6.584C102.713 7.28 102.923 8.06 102.935 8.924ZM98.525 5.936C97.853 5.936 97.271 6.128 96.779 6.512C96.287 6.884 95.963 7.466 95.807 8.258H101.117V8.114C101.057 7.478 100.769 6.956 100.253 6.548C99.749 6.14 99.173 5.936 98.525 5.936ZM104.381 12.524C104.273 12.356 104.219 12.194 104.219 12.038C104.219 11.798 104.345 11.594 104.597 11.426C104.717 11.342 104.855 11.3 105.011 11.3C105.227 11.3 105.425 11.39 105.605 11.57C105.965 11.978 106.349 12.284 106.757 12.488C107.177 12.692 107.675 12.794 108.251 12.794C108.707 12.782 109.109 12.68 109.457 12.488C109.805 12.284 109.979 11.96 109.979 11.516C109.979 11.108 109.799 10.796 109.439 10.58C109.091 10.364 108.575 10.166 107.891 9.986C107.219 9.806 106.661 9.62 106.217 9.428C105.773 9.224 105.395 8.936 105.083 8.564C104.783 8.18 104.633 7.682 104.633 7.07C104.633 6.53 104.783 6.056 105.083 5.648C105.395 5.24 105.803 4.922 106.307 4.694C106.823 4.466 107.381 4.352 107.981 4.352C108.557 4.352 109.127 4.46 109.691 4.676C110.267 4.892 110.735 5.222 111.095 5.666C111.239 5.834 111.311 6.008 111.311 6.188C111.311 6.38 111.215 6.566 111.023 6.746C110.903 6.854 110.753 6.908 110.573 6.908C110.357 6.908 110.183 6.836 110.051 6.692C109.799 6.404 109.487 6.182 109.115 6.026C108.755 5.87 108.353 5.792 107.909 5.792C107.453 5.792 107.063 5.888 106.739 6.08C106.427 6.26 106.271 6.572 106.271 7.016C106.283 7.436 106.463 7.748 106.811 7.952C107.171 8.156 107.717 8.354 108.449 8.546C109.085 8.714 109.613 8.894 110.033 9.086C110.453 9.278 110.807 9.566 111.095 9.95C111.383 10.322 111.527 10.814 111.527 11.426C111.527 11.99 111.365 12.482 111.041 12.902C110.717 13.31 110.291 13.628 109.763 13.856C109.247 14.072 108.695 14.18 108.107 14.18C107.351 14.18 106.649 14.048 106.001 13.784C105.365 13.52 104.825 13.1 104.381 12.524ZM117.951 12.524C117.843 12.356 117.789 12.194 117.789 12.038C117.789 11.798 117.915 11.594 118.167 11.426C118.287 11.342 118.425 11.3 118.581 11.3C118.797 11.3 118.995 11.39 119.175 11.57C119.535 11.978 119.919 12.284 120.327 12.488C120.747 12.692 121.245 12.794 121.821 12.794C122.277 12.782 122.679 12.68 123.027 12.488C123.375 12.284 123.549 11.96 123.549 11.516C123.549 11.108 123.369 10.796 123.009 10.58C122.661 10.364 122.145 10.166 121.461 9.986C120.789 9.806 120.231 9.62 119.787 9.428C119.343 9.224 118.965 8.936 118.653 8.564C118.353 8.18 118.203 7.682 118.203 7.07C118.203 6.53 118.353 6.056 118.653 5.648C118.965 5.24 119.373 4.922 119.877 4.694C120.393 4.466 120.951 4.352 121.551 4.352C122.127 4.352 122.697 4.46 123.261 4.676C123.837 4.892 124.305 5.222 124.665 5.666C124.809 5.834 124.881 6.008 124.881 6.188C124.881 6.38 124.785 6.566 124.593 6.746C124.473 6.854 124.323 6.908 124.143 6.908C123.927 6.908 123.753 6.836 123.621 6.692C123.369 6.404 123.057 6.182 122.685 6.026C122.325 5.87 121.923 5.792 121.479 5.792C121.023 5.792 120.633 5.888 120.309 6.08C119.997 6.26 119.841 6.572 119.841 7.016C119.853 7.436 120.033 7.748 120.381 7.952C120.741 8.156 121.287 8.354 122.019 8.546C122.655 8.714 123.183 8.894 123.603 9.086C124.023 9.278 124.377 9.566 124.665 9.95C124.953 10.322 125.097 10.814 125.097 11.426C125.097 11.99 124.935 12.482 124.611 12.902C124.287 13.31 123.861 13.628 123.333 13.856C122.817 14.072 122.265 14.18 121.677 14.18C120.921 14.18 120.219 14.048 119.571 13.784C118.935 13.52 118.395 13.1 117.951 12.524ZM135.997 9.284C135.997 10.22 135.787 11.06 135.367 11.804C134.947 12.548 134.371 13.13 133.639 13.55C132.919 13.97 132.121 14.18 131.245 14.18C130.369 14.18 129.565 13.97 128.833 13.55C128.113 13.13 127.543 12.548 127.123 11.804C126.703 11.06 126.493 10.22 126.493 9.284C126.493 8.348 126.703 7.502 127.123 6.746C127.543 5.99 128.113 5.402 128.833 4.982C129.565 4.562 130.369 4.352 131.245 4.352C132.121 4.352 132.919 4.562 133.639 4.982C134.371 5.402 134.947 5.99 135.367 6.746C135.787 7.502 135.997 8.348 135.997 9.284ZM134.287 9.284C134.287 8.636 134.149 8.06 133.873 7.556C133.609 7.04 133.243 6.644 132.775 6.368C132.319 6.08 131.809 5.936 131.245 5.936C130.681 5.936 130.165 6.08 129.697 6.368C129.241 6.644 128.875 7.04 128.599 7.556C128.335 8.06 128.203 8.636 128.203 9.284C128.203 9.92 128.335 10.49 128.599 10.994C128.875 11.498 129.241 11.894 129.697 12.182C130.165 12.458 130.681 12.596 131.245 12.596C131.809 12.596 132.319 12.458 132.775 12.182C133.243 11.894 133.609 11.498 133.873 10.994C134.149 10.49 134.287 9.92 134.287 9.284ZM142.089 4.352C143.037 4.352 143.823 4.502 144.447 4.802C145.083 5.102 145.401 5.486 145.401 5.954C145.401 6.158 145.335 6.344 145.203 6.512C145.071 6.668 144.903 6.746 144.699 6.746C144.543 6.746 144.417 6.722 144.321 6.674C144.237 6.626 144.117 6.548 143.961 6.44C143.889 6.368 143.775 6.284 143.619 6.188C143.475 6.116 143.271 6.056 143.007 6.008C142.743 5.96 142.503 5.936 142.287 5.936C141.663 5.936 141.111 6.08 140.631 6.368C140.151 6.656 139.779 7.058 139.515 7.574C139.251 8.078 139.119 8.642 139.119 9.266C139.119 9.902 139.245 10.472 139.497 10.976C139.761 11.48 140.127 11.876 140.595 12.164C141.063 12.452 141.597 12.596 142.197 12.596C142.821 12.596 143.325 12.5 143.709 12.308C143.793 12.26 143.907 12.182 144.051 12.074C144.171 11.978 144.273 11.906 144.357 11.858C144.453 11.81 144.567 11.786 144.699 11.786C144.939 11.786 145.125 11.864 145.257 12.02C145.401 12.164 145.473 12.356 145.473 12.596C145.473 12.848 145.311 13.1 144.987 13.352C144.675 13.592 144.249 13.79 143.709 13.946C143.181 14.102 142.611 14.18 141.999 14.18C141.087 14.18 140.283 13.97 139.587 13.55C138.891 13.118 138.351 12.53 137.967 11.786C137.595 11.03 137.409 10.19 137.409 9.266C137.409 8.342 137.607 7.508 138.003 6.764C138.399 6.008 138.951 5.42 139.659 5C140.367 4.568 141.177 4.352 142.089 4.352ZM148.851 13.136C148.851 13.376 148.767 13.58 148.599 13.748C148.443 13.916 148.239 14 147.987 14C147.747 14 147.543 13.916 147.375 13.748C147.219 13.58 147.141 13.376 147.141 13.136V5.342C147.141 5.102 147.219 4.898 147.375 4.73C147.543 4.562 147.747 4.478 147.987 4.478C148.239 4.478 148.443 4.562 148.599 4.73C148.767 4.898 148.851 5.102 148.851 5.342V13.136ZM147.987 3.29C147.639 3.29 147.387 3.23 147.231 3.11C147.087 2.978 147.015 2.774 147.015 2.498V2.21C147.015 1.922 147.093 1.718 147.249 1.598C147.417 1.478 147.669 1.418 148.005 1.418C148.341 1.418 148.581 1.484 148.725 1.616C148.881 1.736 148.959 1.934 148.959 2.21V2.498C148.959 2.786 148.881 2.99 148.725 3.11C148.569 3.23 148.323 3.29 147.987 3.29ZM158.959 4.442C159.211 4.442 159.415 4.526 159.571 4.694C159.739 4.85 159.823 5.06 159.823 5.324V13.136C159.823 13.376 159.739 13.58 159.571 13.748C159.415 13.916 159.211 14 158.959 14C158.707 14 158.503 13.922 158.347 13.766C158.191 13.598 158.113 13.388 158.113 13.136V12.668C157.801 13.088 157.375 13.448 156.835 13.748C156.295 14.036 155.713 14.18 155.089 14.18C154.273 14.18 153.529 13.97 152.857 13.55C152.197 13.13 151.675 12.548 151.291 11.804C150.919 11.048 150.733 10.202 150.733 9.266C150.733 8.33 150.919 7.49 151.291 6.746C151.675 5.99 152.197 5.402 152.857 4.982C153.517 4.562 154.243 4.352 155.035 4.352C155.671 4.352 156.259 4.484 156.799 4.748C157.351 5.012 157.789 5.348 158.113 5.756V5.324C158.113 5.072 158.191 4.862 158.347 4.694C158.503 4.526 158.707 4.442 158.959 4.442ZM155.287 12.596C155.851 12.596 156.349 12.452 156.781 12.164C157.225 11.876 157.567 11.48 157.807 10.976C158.059 10.472 158.185 9.902 158.185 9.266C158.185 8.642 158.059 8.078 157.807 7.574C157.567 7.07 157.225 6.674 156.781 6.386C156.349 6.086 155.851 5.936 155.287 5.936C154.723 5.936 154.219 6.08 153.775 6.368C153.343 6.656 153.001 7.052 152.749 7.556C152.509 8.06 152.389 8.63 152.389 9.266C152.389 9.902 152.509 10.472 152.749 10.976C153.001 11.48 153.343 11.876 153.775 12.164C154.219 12.452 154.723 12.596 155.287 12.596ZM163.986 13.136C163.986 13.376 163.902 13.58 163.734 13.748C163.578 13.916 163.374 14 163.122 14C162.882 14 162.678 13.916 162.51 13.748C162.354 13.58 162.276 13.376 162.276 13.136V5.342C162.276 5.102 162.354 4.898 162.51 4.73C162.678 4.562 162.882 4.478 163.122 4.478C163.374 4.478 163.578 4.562 163.734 4.73C163.902 4.898 163.986 5.102 163.986 5.342V13.136ZM163.122 3.29C162.774 3.29 162.522 3.23 162.366 3.11C162.222 2.978 162.15 2.774 162.15 2.498V2.21C162.15 1.922 162.228 1.718 162.384 1.598C162.552 1.478 162.804 1.418 163.14 1.418C163.476 1.418 163.716 1.484 163.86 1.616C164.016 1.736 164.094 1.934 164.094 2.21V2.498C164.094 2.786 164.016 2.99 163.86 3.11C163.704 3.23 163.458 3.29 163.122 3.29ZM165.904 12.524C165.796 12.356 165.742 12.194 165.742 12.038C165.742 11.798 165.868 11.594 166.12 11.426C166.24 11.342 166.378 11.3 166.534 11.3C166.75 11.3 166.948 11.39 167.128 11.57C167.488 11.978 167.872 12.284 168.28 12.488C168.7 12.692 169.198 12.794 169.774 12.794C170.23 12.782 170.632 12.68 170.98 12.488C171.328 12.284 171.502 11.96 171.502 11.516C171.502 11.108 171.322 10.796 170.962 10.58C170.614 10.364 170.098 10.166 169.414 9.986C168.742 9.806 168.184 9.62 167.74 9.428C167.296 9.224 166.918 8.936 166.606 8.564C166.306 8.18 166.156 7.682 166.156 7.07C166.156 6.53 166.306 6.056 166.606 5.648C166.918 5.24 167.326 4.922 167.83 4.694C168.346 4.466 168.904 4.352 169.504 4.352C170.08 4.352 170.65 4.46 171.214 4.676C171.79 4.892 172.258 5.222 172.618 5.666C172.762 5.834 172.834 6.008 172.834 6.188C172.834 6.38 172.738 6.566 172.546 6.746C172.426 6.854 172.276 6.908 172.096 6.908C171.88 6.908 171.706 6.836 171.574 6.692C171.322 6.404 171.01 6.182 170.638 6.026C170.278 5.87 169.876 5.792 169.432 5.792C168.976 5.792 168.586 5.888 168.262 6.08C167.95 6.26 167.794 6.572 167.794 7.016C167.806 7.436 167.986 7.748 168.334 7.952C168.694 8.156 169.24 8.354 169.972 8.546C170.608 8.714 171.136 8.894 171.556 9.086C171.976 9.278 172.33 9.566 172.618 9.95C172.906 10.322 173.05 10.814 173.05 11.426C173.05 11.99 172.888 12.482 172.564 12.902C172.24 13.31 171.814 13.628 171.286 13.856C170.77 14.072 170.218 14.18 169.63 14.18C168.874 14.18 168.172 14.048 167.524 13.784C166.888 13.52 166.348 13.1 165.904 12.524Z" fill="#B41C8B"/>
<path d="M123.841 42.2367C123.855 42.4226 123.855 42.6086 123.855 42.7945C123.855 48.4656 119.524 55 111.609 55C109.171 55 106.905 54.2961 105 53.0742C105.346 53.1141 105.68 53.1273 106.039 53.1273C108.051 53.1273 109.904 52.45 111.383 51.2945C109.49 51.2547 107.905 50.0195 107.358 48.3195C107.625 48.3593 107.891 48.3859 108.171 48.3859C108.558 48.3859 108.944 48.3328 109.304 48.2399C107.332 47.8414 105.853 46.1148 105.853 44.0297V43.9766C106.426 44.2953 107.092 44.4945 107.798 44.5211C106.639 43.7507 105.879 42.4359 105.879 40.9484C105.879 40.1515 106.093 39.4211 106.466 38.7836C108.584 41.3867 111.769 43.0867 115.34 43.2726C115.273 42.9539 115.233 42.6219 115.233 42.2898C115.233 39.9258 117.152 38 119.537 38C120.777 38 121.896 38.518 122.682 39.3547C123.655 39.1688 124.588 38.8101 125.414 38.3188C125.094 39.3149 124.414 40.1516 123.522 40.6828C124.388 40.5899 125.227 40.3508 126 40.0188C125.414 40.8687 124.681 41.6257 123.841 42.2367Z" fill="white"/>
<defs>
<linearGradient id="paint0_linear" x1="66.5" y1="28.999" x2="66.5" y2="63.999" gradientUnits="userSpaceOnUse">
<stop stop-color="#D8307B"/>
<stop offset="1" stop-color="#F39259"/>
</linearGradient>
</defs>
</svg>
