<?xml version="1.0" encoding="UTF-8"?>
<!DOCTYPE svg PUBLIC "-//W3C//DTD SVG 1.1//EN" "http://www.w3.org/Graphics/SVG/1.1/DTD/svg11.dtd">
<!-- Creator: CorelDRAW 2020 (64 Bit Versão de avaliação) -->
<svg xmlns="http://www.w3.org/2000/svg" xml:space="preserve" width="42.2514mm" height="18.9458mm" version="1.1" style="shape-rendering:geometricPrecision; text-rendering:geometricPrecision; image-rendering:optimizeQuality; fill-rule:evenodd; clip-rule:evenodd"
viewBox="0 0 628.95 282.03"
 xmlns:xlink="http://www.w3.org/1999/xlink"
 xmlns:xodm="http://www.corel.com/coreldraw/odm/2003">
 <defs>
  <style type="text/css">
   <![CDATA[
    .fil7 {fill:#0D4D4E}
    .fil9 {fill:#16A6B1}
    .fil2 {fill:#216976}
    .fil5 {fill:#41CAD4}
    .fil8 {fill:#49A4AF}
    .fil1 {fill:#96C2CB}
    .fil4 {fill:#C4E4EE}
    .fil6 {fill:#EB7906}
    .fil0 {fill:#ED912A}
    .fil3 {fill:#FEFEFE}
   ]]>
  </style>
 </defs>
 <g id="Camada_x0020_1">
  <metadata id="CorelCorpID_0Corel-Layer"/>
  <g id="_2202853727488">
   <path class="fil0" d="M285.76 118.59c14.41,0.49 29.68,0.04 44.2,0.04 16.02,0 25.51,-2.92 23.5,8.54 -1.55,8.87 -3.93,20.02 -5.12,28.28 -0.38,2.64 -0.96,5.43 -5.07,6.01l-55.57 -0.01c-4.1,0.22 -7.93,-0.3 -7.89,4.43 0.04,4.25 4.39,4.6 8.29,4.09 1.56,-1.36 1.81,-2.4 3.68,-3.49 1.47,-0.85 3.39,-1.6 5.32,-1.63 4.1,-0.08 7.81,1.91 9.35,4.81 1.63,0.72 12.21,0.61 14.53,0.26 2.85,-2.3 3.98,-5.01 9.35,-5.07 2.1,-0.02 4.07,0.58 5.53,1.4 2,1.13 2.32,2.16 3.89,3.61 4.62,0.99 13.55,-1.86 14.21,3.8 0.76,6.54 -7.94,5.02 -13.15,5.02 -0.3,0.35 -0.16,0.13 -0.44,0.65 -3.78,9.86 -17.72,8.76 -20.17,-0.58l-12.03 0.08c-0.97,0.66 -0.9,1.59 -1.67,2.74 -0.62,0.91 -1.49,1.65 -2.19,2.25 -5.53,4.77 -14.59,2.47 -16.95,-5.06 -4.8,-0.35 -7.25,0.15 -10.73,-2.43 -11.55,-8.58 -2.87,-23.83 6.34,-23.25 -0.29,-4.12 -1.93,-10.88 -2.7,-15.24 -0.58,-3.28 -2.7,-12.21 -2.29,-15.06 -0.58,-2.63 -2.61,-16.51 -3.44,-18.17 -4.9,-1.09 -14.01,2.1 -15.58,-3.27 -2.13,-7.29 8.65,-5.58 12.26,-5.58 9.8,0 10.38,-1.35 11.84,6.83 0.87,4.86 2.5,11.57 2.7,16zm-82.51 -39.17c-3.41,1.68 -2.89,3.87 -2.89,7.76l0 98.64c0,25.96 -3.73,22.56 20.98,22.56 23.71,0 194.75,0.54 197,-0.32 3.43,-1.3 3.05,-4.23 3.04,-7.84l0 -109.35c0,-11.16 0.83,-11.92 -10.16,-11.91 -35.42,0.02 -205.67,-0.68 -207.97,0.46z"/>
   <path class="fil1" d="M449.63 134.98c-0.01,5.4 -0.17,9.54 1.74,14.04 2.43,5.74 5.6,9.5 10.63,12.98 15.79,10.93 39.22,5.2 46.77,-12.75 1.81,-4.31 1.95,-8.78 1.92,-14.26 -0.88,-0.12 -0.92,-0.13 -1.7,-1.12 -3.41,-4.32 -0.46,-10.56 5.34,-10.29 7.51,0.35 6.94,11.3 2.64,11.3 -0.31,9.3 -0.32,13.04 -4.28,20.47 -2.16,4.04 -4.32,5.56 -6.59,8.2 -5.58,6.49 -19.6,11.19 -29.48,9.94 -7.96,-1.01 -14.95,-3.52 -20.71,-8.37 -2.05,-1.73 -3.2,-3.17 -4.91,-5 -2.03,-2.19 -2.56,-3.3 -3.86,-5.76 -1.17,-2.22 -1.94,-4 -2.75,-7.06 -1.8,-6.88 -0.91,-8.55 -0.77,-13.94 0.04,-1.75 -0.07,-3.33 0.1,-5.1 -0.47,0.52 -0.15,-0.13 -0.49,0.8 -0.4,1.11 0.01,3.52 -0.25,6.02 -1.95,-0.66 -3.54,-4.09 -2.65,-7.06 0.7,-2.32 3.04,-4.45 6.01,-4.43 7.82,0.04 7.67,10.86 3.3,11.41zm-16.79 92.3c-0.78,1.16 -0.38,0.25 -0.95,1.38 2.68,3.57 5.37,6.87 8.38,10.51l7.54 9.05c0.02,0.02 0.48,0.63 0.49,0.63l0.86 0.81 0.01 -0.54c27.05,0.11 54.07,0.1 81.02,0 3.51,-0.01 5.98,-0.19 8.17,-1.94 1.96,-1.56 3.36,-3.51 3.61,-6.37 0.42,-4.79 -3.09,-27.09 -3.02,-37.65 0.04,-6.21 -0.48,-14.53 0.13,-20.45l-0.15 -66.73 -0.8 -0.39 -103.97 0.11c-0.17,-2.24 -0.43,-5.53 0.15,-7.34 0.86,-0.91 5.53,-3.72 7.28,-4.03l0.06 6.36 76.94 -0.06 0.13 -6.53c1.94,0.63 14.66,8.91 16.9,9.75l-0.05 -21.68 -12.6 -0.01 0.09 -13.76c-1.14,2.72 0.42,10.37 -0.49,13.57 -2.83,1.32 -83.93,-0.52 -88.13,0.67 -0.89,-2.78 -0.41,-15.35 -0.43,-19.91 -0.01,-1.48 0.21,-1.61 -0.57,-2.46l0.13 39.43c-0.23,6.17 0.21,13.23 0.21,19.58l0 79.06c0,5.2 0.61,15.02 -0.96,18.94z"/>
   <path class="fil2" d="M165.57 66.82l-50.98 -0.06c-2.35,0 -6.23,0.35 -7.76,0.32l0.03 -10.5c0.79,1.8 -0.04,0.62 1.08,1.01l62.74 0.05c0.77,0.17 0.42,0.06 0.83,0.33l-0.03 9.02c-1.1,0.17 -0.47,0.05 -1.16,-0.08 -1.02,-0.2 0.48,-0.15 -1.17,-0.19 -1.1,-0.02 -2.43,0.08 -3.59,0.08zm-86.85 -1.48c1.57,-1.56 0.97,-1.76 0.99,-5.49l0.15 -17.86c0.91,-0.09 1.94,0.48 2.38,0.97l13.53 9.88c0.17,0.13 0.53,0.46 0.58,0.49 0.66,0.47 0.68,0.33 1.43,0.67 0.02,0.53 -0.01,2.43 0.08,2.81l1.07 1.36c-0.53,2.47 -0.22,6.15 -0.22,9.05 -0.56,-0.71 -2.24,-0.35 -4.8,-0.37l-16.62 0.06c-0.34,-0.49 -0.22,0.14 -0.01,-0.8 -2.29,0.5 -1.66,1.62 -1.6,4.45 0.04,1.98 0.08,3.93 0.1,5.91l-0.01 58c0.01,3.82 -0.13,7.63 -0.07,11.45 0.05,2.88 -0.28,9.72 0.17,12.03 3.08,-2.28 5.83,-7.29 13.08,-9.62 16.11,-5.16 23.4,8.36 11.44,20.33 -3.48,3.48 -8.94,6.92 -14.73,7.98 2.16,0.54 34.32,0.22 39.28,0.2 8.02,-0.04 9.4,4.09 9.54,10.46 0.11,5.16 0.77,14.99 -0.89,18.87 -0.78,2.27 -2.04,1.5 -2.01,4.37l54.73 -0.12c2.37,0.15 1.03,0.24 1.06,0.3 0.41,-11.61 -0.16,-23.3 0.18,-34.87l-0.01 -35.47c-0.28,-11.53 -0.13,-23.53 -0.11,-35.09 0.01,-6.39 0.34,-21.05 0.06,-26.6 -0.09,-1.67 -0.22,-6.09 0.28,-7.74 0.49,-1.62 0.03,-0.3 0.41,-0.96 0.42,-0.89 1.08,-1.78 1.46,-2.92l-0.93 0.08c-2.37,-0.25 -7.36,-0.74 -9.33,-0.16l-0.13 -7.91c0.36,-2.78 0.24,-0.56 0.95,-1.88 0.54,-1.02 0.1,-0.91 0.29,-2.15 0.33,-2.1 0.91,-1.28 4.54,-4.19 1.42,-1.13 3.78,-2.13 4.9,-3.23l4.89 -3.62c1.13,-0.72 2.14,-1.55 3.27,-2.11 1.13,0.81 0.04,-0.14 0.93,1.5l0.03 -2.16c-6.74,0.31 -14.21,-0.39 -20.7,0.2 -0.06,0.06 -0.15,0.13 -0.17,0.18 -0.33,0.81 -0.39,-0.67 -0.07,2.34 1.1,4.46 1.12,32.25 0.4,37.57 0.99,-0.69 0.33,0.01 0.62,-1.07l0.27 -5.4c2.93,1.07 3.4,5.07 2.36,7.62 -0.98,2.42 -3.71,4.81 -6.91,4.5 -2.66,-0.26 -6.11,-2.97 -6.32,-4.84 -0.28,-2.59 0.99,-6.23 2.95,-7.4 0,0.88 -0.01,1.74 -0.02,2.62 -0,0.13 -0.01,1.47 -0,1.51l0.68 1.83c-0.17,-6.37 -0.05,-12.83 -0.04,-19.21 0,-3.2 -0,-6.41 -0.02,-9.61 -0.02,-3.74 -0.55,-5.44 -0.84,-8.71 -0.47,-0.36 -0.22,-0.09 -0.86,-0.48 -3.79,1.78 -3.27,1.5 -7.39,0.26 -1.95,-0.59 -4.69,-1.6 -6.46,-1.81l-48.72 0.11c-2.12,4.22 -1.68,13.17 -1.68,19.12 0,5.22 0.61,16.71 -0.38,21.06 0.42,-0.23 1.12,0.63 1.11,-3.33 -0.01,-4.59 -0.35,-3.59 2.04,-1.84 0.45,3.39 1.11,5.72 -0.92,8.17 -5.1,6.14 -14.88,0.15 -11.24,-7.17 0.51,-1.03 1.67,-2.07 1.98,-2.8 0,1.1 -0.02,2.19 -0.03,3.28 -0.01,1.49 -0.11,2.27 0.88,3.14 -0.58,-5.89 -0.14,-13.67 -0.14,-19.76 0,-3.2 -0.02,-6.4 -0.02,-9.61 0,-3.75 0.55,-5.97 0.83,-9.14 -0.4,-2.04 -6.4,-1.28 -10.02,-1.28 -2.5,0 -8.97,-0.38 -10.94,0.22 -0.37,5.02 0.66,20.74 -0.55,23.82z"/>
   <path class="fil3" d="M203.26 79.42c2.3,-1.13 172.56,-0.43 207.97,-0.46 10.99,-0.01 10.16,0.75 10.16,11.91l0 109.35c0,3.61 0.38,6.54 -3.04,7.84 -2.25,0.85 -173.29,0.32 -197,0.32 -24.7,0 -20.98,3.4 -20.98,-22.56l-0 -98.64c0,-3.89 -0.52,-6.08 2.89,-7.76zm-13.64 -12.36c-0.38,1.14 -1.04,2.02 -1.46,2.92 -0.63,12.91 -0.16,27.07 -0.11,40.1l-0.08 109.72c-0,4.04 -0.46,5.39 1.7,8.22 9.87,0.44 20.62,0.06 30.58,0.06l197.64 0c4.63,0 11.36,0.83 14.96,-0.79 1.57,-3.91 0.96,-13.73 0.96,-18.94l0 -79.06c0,-6.35 -0.44,-13.41 -0.21,-19.58l-0.13 -39.43c-0.19,-1.8 -1.59,-3.48 -3.33,-4.21 -1.91,-0.79 -5.11,-0.42 -7.44,-0.42l-199.12 0c-9.89,0 -20.65,0.46 -30.39,0.11 -1.09,0.17 -1.11,0.21 -1.93,0.6 -1.3,0.62 -0.5,0.5 -1.63,0.7z"/>
   <path class="fil0" d="M544.98 88.66c0.17,9.99 -0.46,15.22 5.35,21.96 9.46,10.97 28.13,10.87 37.48,-0.17 5.69,-6.72 5.07,-11.27 5.26,-21.79 -0.08,0.11 -0.14,0.24 -0.19,0.36 -0.75,1.8 -0.49,2.52 -0.62,4.86 -0.73,-2.18 -2.66,-2.34 -1.66,-5.96 1.79,-6.52 11.75,-3.59 9.67,3.15 -0.34,1.11 -0.93,1.76 -1.73,2.25 -0.86,-1.43 -0.05,-2.79 -0.79,-4.4 0.1,4.86 0.25,8.56 -0.45,13.32 1.21,1.56 -1.74,8.01 -2.61,9.56 -1.63,2.92 -1.21,1.33 -2.55,4.06 -0.86,1.76 -4.65,4.51 -7.23,6.11l-4.24 2.34c-3.08,1.36 -8.06,1.86 -11.32,1.87 -7.61,0.01 -5.88,-0.17 -11.22,-1.84l-4.58 -2.18c-4.15,-2.33 -1.71,-1.2 -3.81,-2.79 -1.08,-0.82 -0.84,-0.33 -1.78,-1.53 -1.59,-2.02 0.34,-0.39 -2.42,-2.78 -1.93,-1.67 -6.14,-10.82 -4.82,-12.3 -0.48,-5.15 -0.54,-8.76 -0.45,-14.09 -1.15,1.38 -0.32,2.59 -0.57,4.8 -4.02,-3.1 -1.95,-9.09 2.67,-9.17 5.16,-0.09 7.17,6.12 3.32,9.03 -0.19,-1.35 -0.11,-3.28 -0.73,-4.66zm-21.91 -10.25l-0.09 13.76 12.6 0.01 0.05 21.68c0.95,1.07 1.53,0.96 2.51,1.74l0.8 0.39 0.15 66.73 23.94 -0.17c0.14,-7.5 -0.43,-8.44 7.43,-8.44 4.54,-0 11.97,0.44 16.14,-0.17 -0.09,-0.07 -0.22,-0.26 -0.27,-0.18 0,0 -4.85,-2.04 -7.11,-5.55 -1.86,-2.87 -2.07,-7.43 1.97,-8.28 4.2,-0.88 7.51,1.09 9.76,3.17l3.45 4.36c0.42,0.66 0.17,0.22 0.64,1.16 0.47,0.94 0.65,1.45 1.28,2.2 1.29,-1.1 1.92,-4.22 5.42,-7.67 2.27,-2.24 5.62,-4 9.75,-3.24 5.28,0.98 4.22,9.3 -3.08,12.87 -0.4,0.2 -0.6,0.25 -0.99,0.45 -0.08,0.04 -0.18,0.08 -0.26,0.12l-0.79 0.45c-0.06,0.04 -0.18,0.11 -0.27,0.17l11.29 0.09c-0.44,-3.78 -0.84,-7.68 -1.16,-11.52 -0.3,-3.54 -1.09,-7.65 -1.21,-11.09 -0.3,-8.45 1,-71.1 -0.35,-73.29 -5.35,0.89 -16.27,0.31 -22.4,0.31 -10,0 -65.55,-0.43 -67.24,0.1 -0.38,-0.33 -0.88,0.98 -0.13,-1.03l-1.82 0.86z"/>
   <path class="fil4" d="M179.61 258.96c0.6,-0.91 7.18,-6.01 8.31,-6.88l6.25 -5.17c0.91,-0.71 1.52,-1.16 2.26,-1.76 1.57,-1.3 2.46,-2.12 4.05,-3.39 4.33,-3.44 13.55,-2.03 21.25,-2.03l122.28 0.36c34.53,-0 26.57,-2.18 36.2,10.01 1.14,1.45 5.94,7.89 6.21,9.22 -3.03,2.07 -20,1.2 -24.68,1.2l-170.31 0c-2.39,0 -10.3,0.85 -11.82,-1.57zm261.82 -0.09c-1.73,2.21 -6.22,1.68 -8.76,1.66 -6.96,-0.04 -37.26,0.73 -40.72,-1.06 -1.08,-0.56 -3.77,-4.81 -4.55,-5.87l-6.63 -8.87c-0.62,-0.81 -2.16,-2.45 -1.92,-3.44 0.6,-2.54 15.97,-1.63 19.1,-1.63 3.96,0 18.01,-0.53 20.53,0.66l22.96 18.54zm-251.77 -30.86c0.13,1.43 -2.08,3.79 -3.28,5.2 -6.53,7.68 -13.74,17.04 -20.13,24.21 -1.16,1.3 -2.63,3.23 -4,4.88 -1.32,1.58 -3.11,2.93 -3.71,5.15 1.73,-1.04 -0.42,-0.65 3.29,-0.68 49.27,-0.28 99.26,-0.01 148.54,-0.01 15.29,0 150.13,-0.74 152.52,0.25 0.2,0.34 0.15,-0.34 0.39,0.98l0.04 4.62c-0,2.13 -0.14,4.41 0.12,6.46 1.06,-0.75 0.52,-3.88 0.47,-5.35 -0.21,-7.05 0.76,-5.72 -2.14,-8.79l-12.62 -15.27 -0.86 -0.81c-0,-0 -0.47,-0.61 -0.49,-0.63l-7.54 -9.05c-3.01,-3.64 -5.7,-6.93 -8.38,-10.51 0.57,-1.13 0.16,-0.22 0.95,-1.38 -3.59,1.62 -10.33,0.79 -14.96,0.79l-197.64 0c-9.96,0 -20.71,0.38 -30.58,-0.06z"/>
   <path class="fil3" d="M158.55 267.46c-0.82,2.55 -0.68,9.79 -0.15,12.73 3.16,2.41 12.98,1.59 17.88,1.59 90.26,0 180.53,0 270.79,0 3.51,0 16.24,1.44 16.38,-2.69 -0.26,-2.05 -0.12,-4.33 -0.12,-6.46l-0.04 -4.62c-0.24,-1.32 -0.18,-0.64 -0.39,-0.98 -2.4,-1 -137.23,-0.25 -152.52,-0.25 -49.29,0 -99.28,-0.27 -148.54,0.01 -3.71,0.02 -1.55,-0.36 -3.29,0.68z"/>
   <path class="fil1" d="M179.61 258.96c1.52,2.41 9.43,1.57 11.82,1.57l170.31 0c4.67,0 21.65,0.88 24.68,-1.2 -0.27,-1.33 -5.07,-7.78 -6.21,-9.22 -9.63,-12.19 -1.67,-10.01 -36.2,-10.01l-122.28 -0.36c-7.69,0 -16.92,-1.41 -21.25,2.03 -1.59,1.27 -2.48,2.09 -4.05,3.39 -0.73,0.61 -1.35,1.05 -2.26,1.76l-6.25 5.17c-1.13,0.87 -7.7,5.96 -8.31,6.88z"/>
   <path class="fil0" d="M80.25 210.35c1.05,-0.35 0.66,0.21 1,-1.01 -1.15,1.96 1.07,1.14 1.76,1.11l0.33 10.65c-2.29,-0.4 -29.28,-0.22 -31.56,-0.22l0.01 -10.46 28.47 -0.07zm-29.94 -33.93c1.38,0.52 0.66,-0.57 0.93,1.6l-0.06 32.39 0.01 10.71 0.04 23.5 -0.11 0.47 32.2 0.07 0.17 -24.38 0 -10.01 0.14 -33.93 2.03 -0.22c5.79,-1.06 11.25,-4.49 14.73,-7.98 11.96,-11.96 4.67,-25.48 -11.44,-20.33 -7.26,2.32 -10.01,7.34 -13.08,9.62 -0.22,0.82 -0.15,0.64 -0.85,1.57 -0.35,0.47 -0.82,1 -1.15,1.47 -0.62,0.87 -1.24,2.07 -1.96,3.25l1.47 0.51c1.4,0.26 0.28,-0.38 1.87,0.59l1.94 1.37c0.06,0.04 0.14,0.11 0.2,0.15 1.12,0.91 -0.39,0.3 1.58,1.31 2.25,-3.09 3.32,-5.84 6.98,-8.79 2.71,-2.19 7.4,-5.17 11.73,-3.65 0.37,0.57 0.2,0.02 0.34,0.95l-0.56 2.4c-3.07,6.35 -10.44,10.03 -17.92,9.65 0.17,0.91 0.24,0.42 -0.11,1.22l1.23 0.68 0.21 5.93 -25.73 -0.08c0,-2.88 -0.03,-3.96 0.69,-6.53l-2.08 -0.67c0.54,0.01 2.57,0.26 2.96,-0.55 -5.77,0.27 -11.16,-2.01 -14.38,-5.59 -9.82,-10.9 2.51,-8.86 7.96,-4.25 4.41,3.73 4.93,6.13 6.96,8.21 3.25,-0.36 -0.01,-2.01 6.18,-2.23 0.52,-1.01 0.08,-1 0.87,-1.21 -0.75,-1.58 -1.58,-2.75 -2.53,-4.06l-4.41 -5.19c-5.63,-5.97 -18.47,-10.16 -24.16,-4.55 -5.1,5.03 -2.17,12.72 1.8,17.29 4.8,5.52 8.29,7.06 15.3,9.28z"/>
   <path class="fil4" d="M305.5 149.98c-0.54,-2.31 -0.08,-13.05 -0.11,-16.26 -0.02,-2.85 -0.21,-5.13 2.19,-6.15 7.93,-3.36 5.39,12.02 5.44,19.08 0.02,2.68 0.17,5.04 -2.2,5.96 -2.28,0.89 -4.78,-0.28 -5.32,-2.64zm35.96 0.37c-0.61,1.87 -2.79,3.22 -5.26,2.25 -2.43,-0.95 -2.22,-3.48 -2.22,-6.31 0,-2.82 -0.32,-15 0.29,-16.79 0.71,-2.07 3.42,-2.81 5.2,-1.94 2.24,1.11 2.18,3.06 2.17,6.16 -0.01,2.66 0.28,15.22 -0.18,16.63zm-14.41 0c-0.77,2.02 -2.6,3.37 -5.2,2.18 -2.22,-1.01 -2.18,-3.24 -2.18,-6.24 0,-2.7 -0.28,-15.13 0.3,-16.72 0.66,-1.79 3.13,-2.92 5.09,-2.04 2.54,1.14 2.33,3.65 2.31,6.2 -0.03,3.54 0.57,14.3 -0.33,16.63zm-35.89 -1.11l0.01 -15.89c0,-3.28 0.14,-6.03 3.7,-6.16 1.66,-0.06 2.75,0.81 3.34,1.73 1.09,1.68 0.55,16.96 0.55,20.32 -0,4.79 -7.59,4.87 -7.59,0zm-13.18 -26.47c-0.41,2.85 1.71,11.79 2.29,15.06 0.77,4.36 2.41,11.11 2.7,15.24 0.71,1.68 0.43,3.85 1.18,5.39 0.8,1.65 1.88,1.92 3.54,2.98l55.57 0.01c4.11,-0.57 4.69,-3.37 5.07,-6.01 1.19,-8.26 3.57,-19.41 5.12,-28.28 2.01,-11.46 -7.48,-8.54 -23.5,-8.54 -14.52,0 -29.79,0.45 -44.2,-0.04 -4.71,0.39 -6.01,0.17 -7.78,4.18z"/>
   <path class="fil5" d="M3.21 209.33c-0.15,1.96 2.5,1.34 4.61,1.35 12,0.07 29.81,0.34 41.3,-0.12 0.43,-0.02 1.3,0.12 2.05,-0.15l0.06 -32.39c-0.27,-2.17 0.45,-1.08 -0.93,-1.6 -0.69,0.54 -0.8,0.49 -2.56,0.49 -11.69,0.03 -30.09,-0.5 -39.94,-0.03 -3.22,0.15 -5.1,1.98 -6.7,4.05 -1.46,1.88 -1,6.91 -1,9.69 0,2.89 -0.52,13.18 0.85,15.39l0.62 0.85c1.01,1.34 1.05,1 1.64,2.48z"/>
   <path class="fil5" d="M83.48 210.77l47.35 -0.09c0.31,-0.6 0.43,-2.73 2.74,-4.52 1.66,-3.89 1.01,-13.71 0.89,-18.87 -0.14,-6.37 -1.52,-10.5 -9.54,-10.46 -4.96,0.02 -37.13,0.34 -39.28,-0.2l-2.03 0.22 -0.14 33.93z"/>
   <path class="fil6" d="M525.39 77.11c-0.57,0.23 -0.23,-0.08 -0.5,0.45 -0.76,2 -0.25,0.69 0.13,1.03 1.68,-0.53 57.24,-0.1 67.24,-0.1 6.13,0 17.05,0.59 22.4,-0.31 -0.91,-0.39 -1.47,-0.7 -1.92,-1.2l-12.47 -7.73c-0.03,-0.1 -0.12,-0.11 -0.17,-0.17 0.56,-1.34 1.63,-1.59 2.81,-2.3 2.6,-1.55 4.51,-3.5 7,-5.06l0.69 -0.47c0.7,-0.59 0.1,0.45 0.57,-0.67l-0.55 -0.26c-2.95,-0.89 -81.34,0.63 -83.45,-0.5l-0.25 0.03c-0.07,0.06 -0.18,0.13 -0.21,0.17l-0.65 1.23c-0.14,-1.3 -0.14,-0.25 0.44,-1 0.08,0.09 0.17,0.21 0.24,0.28l4.26 3.33c0.78,0.49 0.93,0.38 1.51,0.73l4.32 3.4c1.28,0.94 0.32,-0.25 1.22,1.1 -1,1.1 -0.25,0.35 -1.54,1.15l-11.11 6.88z"/>
   <path class="fil5" d="M51.22 244.62l-0.04 -23.5c-15.27,-0.28 -32.16,-0.76 -48.04,-0.25 -0.31,3.01 -0.36,15.91 0.24,18.19 1.57,5.98 7.73,5.98 12.2,5.97l32.16 0.01c2.1,0.04 2.16,0.44 3.48,-0.42z"/>
   <path class="fil5" d="M83.31 245.16c7.54,-0.7 18.95,-0.13 27.21,-0.13 5.47,0 12.25,0.93 16.23,-0.92 2.04,-0.95 4.03,-3.2 4.49,-5.73l0.05 -17.54 -47.81 -0.06 -0.17 24.38z"/>
   <path class="fil1" d="M378.84 241.3c-0.23,0.99 1.31,2.63 1.92,3.44l6.63 8.87c0.78,1.05 3.47,5.31 4.55,5.87 3.46,1.78 33.76,1.02 40.72,1.06 2.55,0.01 7.04,0.55 8.76,-1.66l-22.96 -18.54c-2.53,-1.19 -16.58,-0.66 -20.53,-0.66 -3.12,0 -18.5,-0.91 -19.1,1.63z"/>
   <path class="fil4" d="M443.72 128.26c-0.17,1.77 -0.06,3.35 -0.1,5.1 -0.14,5.39 -1.03,7.06 0.77,13.94 0.8,3.07 1.58,4.84 2.75,7.06 1.29,2.45 1.82,3.57 3.86,5.76 1.71,1.83 2.86,3.28 4.91,5 5.76,4.85 12.74,7.36 20.71,8.37 9.89,1.26 23.9,-3.45 29.48,-9.94 2.26,-2.63 4.43,-4.15 6.59,-8.2 3.97,-7.43 3.97,-11.17 4.28,-20.47 -0.02,-2.97 1,-8.37 -3.35,-8.1 -3.72,0.23 -2.91,4.92 -2.92,8.21 0.04,5.48 -0.1,9.95 -1.92,14.26 -7.55,17.95 -30.98,23.68 -46.77,12.75 -5.03,-3.48 -8.2,-7.24 -10.63,-12.98 -1.9,-4.49 -1.75,-8.64 -1.74,-14.04 -0.12,-2 0.5,-5.58 -0.78,-7.09 -1.56,-1.84 -4.01,-1.3 -5.13,0.36z"/>
   <path class="fil3" d="M108.9 26.96l-0.62 1.06c-0.47,0.53 -0.69,0.17 -2.21,2.26 -0.71,0.99 -1.51,2.21 -2.32,3.58 -1.7,2.9 -3.13,8.04 -3.13,8.04 -0.02,-0.05 -0.08,0.2 -0.14,0.29l-0.27 0.4c-0.28,3.17 -0.83,5.39 -0.83,9.14 0,3.2 0.02,6.4 0.02,9.61 -0,6.09 -0.44,13.88 0.14,19.76 0.59,0.71 1.03,1.86 2.87,2 1.83,0.14 2.32,-0.53 3.31,-1.45 0.99,-4.35 0.38,-15.83 0.38,-21.06 0,-5.95 -0.44,-14.91 1.68,-19.12 1.76,-6.94 8.88,-13.7 14.75,-16.86 3.13,-1.69 7.85,-3.4 12.05,-3.85 6.39,-0.7 9.06,0.42 14.51,1.03 0.79,-3.5 0.62,-3.38 2.21,-6.52 -1.57,0.02 -4.49,-0.86 -6.14,-1.1 -2.2,-0.31 -4.29,-0.45 -6.59,-0.44 -4.13,0.03 -8.84,0.82 -12.36,1.98 -5.02,1.65 -15.41,7.04 -17.33,11.26z"/>
   <path class="fil5" d="M162.79 23.87c0.65,-1.58 11.15,-6.52 12.89,-7.52l10.06 -5.44c4.69,-2.53 4.5,-0.61 7.87,5.4 4.42,7.89 4.58,7.18 -3.42,11.23 -2.33,1.18 -4.28,2.35 -6.68,3.67 -15.96,8.72 -13.5,8.55 -18,-0.09 -1,-1.92 -3.6,-5.13 -2.7,-7.25zm6.87 -10.68l0.49 1.22c-0.9,0.94 -4.24,2.93 -6.03,2.92 -0.25,1.15 -0.34,1.34 -1.54,1.6l-1.91 0.63c-2.2,2.23 -4.28,1.31 -5.63,4.66l-0.21 -0.22c0.03,2.12 -0.04,1.59 -0.61,3.16 -0.36,1 -0.42,2 -0.52,3.23 0.77,1.67 2.08,2.7 2.99,4.14 1.28,-0.58 -0.17,-0.29 1.48,-1l1.15 0.69c0.55,1.23 0.09,1.05 0.63,2.35 -0.75,0.92 -1.43,2.28 -3.23,2.2 -2.06,-0.09 -2.41,-1.38 -2.42,-3.36l-1.58 -2.07c-0.21,0.23 -3.61,5.83 1.12,7.08l2.66 0.93c1.77,0.21 4.51,1.23 6.46,1.81 4.12,1.24 3.6,1.51 7.39,-0.26 0.64,0.39 0.39,0.11 0.86,0.48l-0.01 -1.07 4.86 -2.39c1.18,-1.23 0.99,-0.27 2.05,-1.37l0.78 0.3 0.17 -1.02c1.75,-0.28 2.43,-1.27 3.88,-1.92 1.49,-0.67 2.27,-1.23 3.89,-2.05 2.73,-1.37 5.18,-2.97 8.02,-4.25l1.48 -0.72c0.1,-0.05 0.36,-0.22 0.46,-0.28 0.81,-0.47 1.13,-0.6 1.9,-1.03 4.46,-2.52 4.12,-3.64 0.17,-10.3 -1.39,-2.35 -0.92,-1.02 -2.62,-4.72 -0.76,-1.65 -1.29,-2.62 -2.13,-4.22 -3.5,-6.68 -4.54,-3.79 -10.87,-0.65l-1.29 0.59c-0.08,0.04 -0.17,0.09 -0.25,0.13l-2.67 1.41c-2.45,1.27 -5.64,3.5 -7.93,4.4l-1.45 -1.03z"/>
   <path class="fil4" d="M603.83 225.34c3.85,0.31 8.49,0.06 12.43,0.08 4.59,0.01 7.75,0.34 7.85,-4.86 0.14,-8.16 -0.18,-16.44 0.01,-24.59l-20.36 -0.1 0.07 29.47z"/>
   <path class="fil7" d="M165.57 66.82c1.15,0 2.48,-0.11 3.59,-0.08 1.64,0.03 0.15,-0.01 1.17,0.19 0.69,0.13 0.05,0.25 1.16,0.08l0.03 -9.02c-0.41,-0.27 -0.06,-0.16 -0.83,-0.33l-62.74 -0.05c-1.12,-0.39 -0.29,0.78 -1.08,-1.01l-0.03 10.5c1.53,0.03 5.41,-0.32 7.76,-0.32l50.98 0.06z"/>
   <path class="fil4" d="M567.9 222.53c0.7,3.45 4.85,2.89 8.46,2.89 3.83,-0 7.66,-0.04 11.49,0l0.07 -29.74 -19.78 0.26c-0.81,3.31 -0.47,22.21 -0.24,26.59z"/>
   <path class="fil4" d="M100.49 42.18c0.06,-0.09 0.12,-0.34 0.14,-0.29 0,0 1.43,-5.13 3.13,-8.04 0.8,-1.37 1.6,-2.6 2.32,-3.58 1.52,-2.09 1.74,-1.73 2.21,-2.26l0.62 -1.06c-0.47,-0.21 -1.02,0.07 -0.25,-1.78 0.09,-0.22 0.81,-1.51 0.91,-1.72 0.59,-1.13 1.37,-2.38 2.16,-3.44 13.81,-18.48 41.56,-16.08 52.4,-2.7 1.79,0.02 5.13,-1.97 6.03,-2.92l-0.49 -1.22c-9.91,-12.02 -29.73,-16.36 -44.94,-10.78 -14.6,5.35 -25.25,17.84 -25.3,35.64 -0.01,4.57 0.72,1.96 1.08,4.13z"/>
   <path class="fil8" d="M538.13 115.61c-0.98,-0.78 -1.56,-0.67 -2.51,-1.74 -2.23,-0.85 -14.96,-9.12 -16.9,-9.75l-0.13 6.53 -76.94 0.06 -0.06 -6.36c-1.75,0.31 -6.42,3.12 -7.28,4.03 -0.58,1.82 -0.32,5.1 -0.15,7.34l103.97 -0.11z"/>
   <path class="fil9" d="M162.79 23.87c-0.9,2.12 1.71,5.33 2.7,7.25 4.5,8.65 2.04,8.82 18,0.09 2.41,-1.32 4.36,-2.49 6.68,-3.67 8,-4.05 7.85,-3.34 3.42,-11.23 -3.37,-6.01 -3.18,-7.93 -7.87,-5.4l-10.06 5.44c-1.73,1 -12.23,5.94 -12.89,7.52z"/>
   <path class="fil9" d="M83.48 210.77l-0 10.01 47.81 0.06 -0.05 17.54 0.33 -27.85c-0.04,-2.87 1.22,-2.1 2.01,-4.37 -2.31,1.79 -2.43,3.92 -2.74,4.52l-47.35 0.09z"/>
   <path class="fil3" d="M540.28 88.66c-0.1,5.33 -0.03,8.94 0.45,14.09 1.24,3.18 1.73,5.37 3.66,8.26 9.33,13.96 29.44,17.1 43.33,6.36 5.25,-4.06 7.55,-8.11 9.58,-15.12 0.7,-4.76 0.54,-8.46 0.45,-13.32 -0.52,-2.61 -4,-2.53 -4.68,-0.26 -0.19,10.52 0.43,15.07 -5.26,21.79 -9.34,11.04 -28.02,11.13 -37.48,0.17 -5.81,-6.74 -5.18,-11.97 -5.35,-21.96 -0.85,-2.32 -4.2,-2.15 -4.7,0z"/>
   <path class="fil9" d="M3.14 220.87c15.88,-0.5 32.77,-0.03 48.04,0.25l-0.01 -10.71c-0.75,0.27 -1.62,0.14 -2.05,0.15 -11.49,0.46 -29.3,0.19 -41.3,0.12 -2.11,-0.01 -4.76,0.61 -4.61,-1.35l-0.07 11.54z"/>
   <path class="fil5" d="M587.85 225.42l15.98 -0.08 -0.07 -29.47c-2.23,-0.5 -13.14,-0.38 -15.83,-0.19l-0.07 29.74z"/>
   <path class="fil4" d="M603.76 190.55l20.47 0.07c5.9,0.05 4.65,-6.51 4.53,-11.84 -0.15,-6.26 -5.82,-4.38 -11.37,-4.7l-11.29 -0.09 -2.1 -0.13c-0.67,2.66 -0.15,12.93 -0.24,16.69z"/>
   <path class="fil4" d="M563.02 182.56c-0.01,4.44 -0.34,8.16 4.46,7.92l20.46 0.25 0 -16.89 -1.35 0.1c-4.18,0.6 -11.61,0.16 -16.14,0.17 -7.86,0 -7.29,0.95 -7.43,8.44z"/>
   <path class="fil7" d="M78.72 65.33c-0.52,0.05 -1,0.32 -1.45,0.77 -0.22,0.93 -0.33,0.3 0.01,0.8l16.62 -0.06c2.56,0.01 4.25,-0.35 4.8,0.37 0,-2.9 -0.31,-6.58 0.22,-9.05l-1.07 -1.36c-0.09,-0.38 -0.06,-2.28 -0.08,-2.81 -0.76,-0.34 -0.77,-0.2 -1.43,-0.67 -0.05,-0.04 -0.41,-0.36 -0.58,-0.49l-13.53 -9.88c-0.44,-0.49 -1.48,-1.07 -2.38,-0.97l-0.15 17.86c-0.02,3.73 0.58,3.93 -0.99,5.49z"/>
   <path class="fil7" d="M189.62 67.06c1.12,-0.2 0.33,-0.08 1.63,-0.7 0.82,-0.39 0.84,-0.42 1.93,-0.6l6.24 -0.25c-0.97,-2.62 -0.85,-18.42 -0.41,-22.12 -0.89,-1.64 0.2,-0.69 -0.93,-1.5 -1.13,0.56 -2.14,1.39 -3.27,2.11l-4.89 3.62c-1.13,1.09 -3.49,2.1 -4.9,3.23 -3.63,2.9 -4.21,2.09 -4.54,4.19 -0.2,1.24 0.25,1.13 -0.29,2.15 -0.7,1.32 -0.59,-0.89 -0.95,1.88l0.13 7.91c1.97,-0.57 6.96,-0.09 9.33,0.16l0.93 -0.08z"/>
   <path class="fil2" d="M277.98 122.78c1.77,-4.01 3.07,-3.8 7.78,-4.18 -0.2,-4.43 -1.83,-11.14 -2.7,-16 -1.46,-8.19 -2.04,-6.83 -11.84,-6.83 -3.61,-0 -14.39,-1.71 -12.26,5.58 1.57,5.37 10.68,2.18 15.58,3.27 0.83,1.67 2.86,15.55 3.44,18.17z"/>
   <path class="fil6" d="M51.78 210.42l-0.01 10.46c2.28,0 29.27,-0.18 31.56,0.22l-0.33 -10.65c-0.69,0.03 -2.91,0.85 -1.76,-1.11 -0.35,1.22 0.04,0.66 -1,1.01l-28.47 0.07z"/>
   <path class="fil9" d="M601.65 170.11c0.39,-1.69 4.26,-7.25 9.28,-6.24 -0.03,3.15 -4.57,6.84 -9.28,6.24zm-13.72 -4.38c0.93,0.83 2.96,2.9 3.05,4.37 -4.08,0.56 -9.18,-2.73 -9.02,-6.34 2.64,-0.29 4.39,0.57 5.97,1.97zm-1.34 8.22l1.35 -0.1c3.49,0.04 4.94,0.35 8.4,0.12l7.66 -0.11 2.1 0.13c0.09,-0.06 0.2,-0.13 0.27,-0.17l0.79 -0.45c0.08,-0.04 0.18,-0.08 0.26,-0.12 0.39,-0.19 0.59,-0.25 0.99,-0.45 7.3,-3.57 8.36,-11.9 3.08,-12.87 -4.13,-0.76 -7.48,1 -9.75,3.24 -3.49,3.45 -4.13,6.56 -5.42,7.67 -0.63,-0.75 -0.81,-1.26 -1.28,-2.2 -0.47,-0.94 -0.22,-0.5 -0.64,-1.16l-3.45 -4.36c-2.25,-2.08 -5.56,-4.06 -9.76,-3.17 -4.04,0.85 -3.83,5.4 -1.97,8.28 2.27,3.51 7.11,5.56 7.11,5.55 0.05,-0.08 0.18,0.12 0.27,0.18z"/>
   <path class="fil8" d="M292.65 176.21c-0.96,-6.74 9.43,-7.79 9.9,-1.06 0.45,6.37 -8.98,7.54 -9.9,1.06zm-4.54 -6.25c-0.93,3.13 -2.1,5.37 -0.74,8.79 2.37,7.53 11.42,9.83 16.95,5.06 0.7,-0.6 1.57,-1.34 2.19,-2.25 0.78,-1.14 0.7,-2.08 1.67,-2.74 -0.12,-2.07 0.34,-3.23 -0.09,-5.43 -0.24,-1.22 -0.77,-3.11 -1.64,-3.74 -1.54,-2.9 -5.25,-4.89 -9.35,-4.81 -1.93,0.04 -3.85,0.78 -5.32,1.63 -1.87,1.09 -2.12,2.13 -3.68,3.49z"/>
   <path class="fil8" d="M335.11 176.95c-1.72,6.29 -11.03,3.77 -9.47,-2.85 1.39,-5.88 11.37,-4.12 9.47,2.85zm-14.13 -7.04c-0.85,3.46 -2.08,4.76 -0.77,8.84 2.45,9.34 16.38,10.44 20.17,0.58 2.16,-2.3 -0.2,-7.75 -0.62,-9.47 -1.57,-1.45 -1.89,-2.48 -3.89,-3.61 -1.45,-0.82 -3.43,-1.43 -5.53,-1.4 -5.38,0.06 -6.5,2.76 -9.35,5.07z"/>
   <path class="fil3" d="M171.23 43.38c0.29,3.27 0.82,4.97 0.84,8.71 0.02,3.2 0.02,6.41 0.02,9.61 -0,6.38 -0.12,12.83 0.04,19.21 2.54,3.44 4.04,2.58 6.36,0.63 0.72,-5.32 0.7,-33.11 -0.4,-37.57 -1.03,-1.18 -1.1,-2.97 -0.78,-4.11l-1.24 0.07 -4.86 2.39 0.01 1.07z"/>
   <path class="fil6" d="M57.24 167.08c-0.02,0.95 -0.25,1.23 -0.54,1.62 -0.39,0.81 -2.43,0.56 -2.96,0.55l2.08 0.67c-0.72,2.58 -0.69,3.65 -0.69,6.53l25.73 0.08 -0.21 -5.93 -1.23 -0.68c0.34,-0.8 0.28,-0.31 0.11,-1.22l-0.58 -0.56c-1.97,-1.01 -0.46,-0.4 -1.58,-1.31 -0.06,-0.05 -0.14,-0.11 -0.2,-0.15l-1.94 -1.37c-1.59,-0.97 -0.47,-0.33 -1.87,-0.59l-1.47 -0.51 -7.24 0 -0.36 -0.59c-0.79,0.21 -0.35,0.19 -0.87,1.21 -6.19,0.22 -2.94,1.87 -6.18,2.23z"/>
   <path class="fil5" d="M587.95 173.85l-0 16.89c2.71,0.21 13.64,0.37 15.81,-0.2 0.09,-3.76 -0.43,-14.03 0.24,-16.69l-7.66 0.11c-3.46,0.24 -4.9,-0.07 -8.4,-0.12z"/>
   <path class="fil2" d="M287.36 178.76c-1.36,-3.42 -0.19,-5.66 0.74,-8.79 -3.9,0.5 -8.25,0.15 -8.29,-4.09 -0.04,-4.73 3.79,-4.21 7.89,-4.43 -1.67,-1.06 -2.75,-1.33 -3.54,-2.98 -0.75,-1.54 -0.47,-3.71 -1.18,-5.39 -9.21,-0.58 -17.89,14.67 -6.34,23.25 3.48,2.59 5.93,2.08 10.73,2.43z"/>
   <path class="fil0" d="M305.5 149.98c0.55,2.35 3.04,3.53 5.32,2.64 2.37,-0.92 2.22,-3.28 2.2,-5.96 -0.04,-7.06 2.5,-22.44 -5.44,-19.08 -2.4,1.02 -2.22,3.3 -2.19,6.15 0.03,3.21 -0.43,13.95 0.11,16.26z"/>
   <path class="fil0" d="M327.05 150.35c0.89,-2.33 0.3,-13.09 0.33,-16.63 0.02,-2.56 0.23,-5.07 -2.31,-6.2 -1.96,-0.88 -4.43,0.25 -5.09,2.04 -0.59,1.59 -0.3,14.02 -0.3,16.72 -0,3 -0.04,5.23 2.18,6.24 2.6,1.19 4.43,-0.16 5.2,-2.18z"/>
   <path class="fil0" d="M341.46 150.35c0.46,-1.41 0.17,-13.97 0.18,-16.63 0.01,-3.1 0.07,-5.04 -2.17,-6.16 -1.77,-0.88 -4.49,-0.14 -5.2,1.94 -0.61,1.78 -0.29,13.97 -0.29,16.79 0,2.83 -0.21,5.36 2.22,6.31 2.47,0.97 4.65,-0.38 5.26,-2.25z"/>
   <path class="fil0" d="M291.16 149.24c-0,4.87 7.59,4.79 7.59,0 0,-3.36 0.54,-18.64 -0.55,-20.32 -0.59,-0.91 -1.68,-1.78 -3.34,-1.73 -3.56,0.12 -3.7,2.88 -3.7,6.16l-0.01 15.89z"/>
   <path class="fil6" d="M540.73 102.75c-1.32,1.49 2.89,10.63 4.82,12.3 2.76,2.39 0.84,0.77 2.42,2.78 0.94,1.19 0.7,0.71 1.78,1.53 2.1,1.59 -0.35,0.46 3.81,2.79l4.58 2.18c5.34,1.67 3.61,1.85 11.22,1.84 3.26,-0 8.25,-0.51 11.32,-1.87l4.24 -2.34c2.58,-1.6 6.37,-4.34 7.23,-6.11 1.34,-2.73 0.91,-1.14 2.55,-4.06 0.87,-1.55 3.82,-8 2.61,-9.56 -2.03,7.02 -4.33,11.06 -9.58,15.12 -13.89,10.73 -33.99,7.59 -43.33,-6.36 -1.93,-2.89 -2.42,-5.08 -3.66,-8.26z"/>
   <path class="fil2" d="M78.95 168.16l0.58 0.56c7.48,0.38 14.84,-3.31 17.92,-9.65l0.56 -2.4c-0.14,-0.93 0.03,-0.38 -0.34,-0.95 -4.34,-1.52 -9.02,1.46 -11.73,3.65 -3.65,2.96 -4.72,5.7 -6.98,8.79z"/>
   <path class="fil0" d="M612.73 76.97c-0.72,-3.2 -0.19,-13.05 -0.25,-17.04l-85.32 -0.12c2.11,1.13 80.49,-0.39 83.45,0.5l0.55 0.26c-0.46,1.12 0.14,0.08 -0.57,0.67l-0.69 0.47c-2.49,1.56 -4.4,3.51 -7,5.06 -1.18,0.7 -2.26,0.96 -2.81,2.3 0.05,0.06 0.15,0.07 0.17,0.17l12.47 7.73z"/>
   <path class="fil1" d="M567.9 222.53c-0.22,-4.38 -0.56,-23.28 0.24,-26.59l19.78 -0.26 0.01 -4.94 -20.46 -0.25 -0.07 28.58c-0.01,1.2 -0.08,2.5 0.49,3.46z"/>
   <path class="fil0" d="M525.39 77.11l11.11 -6.88c1.29,-0.8 0.54,-0.05 1.54,-1.15 -0.89,-1.36 0.07,-0.16 -1.22,-1.1l-4.32 -3.4c-0.58,-0.36 -0.73,-0.25 -1.51,-0.73l-4.26 -3.33c-0.07,-0.07 -0.16,-0.18 -0.24,-0.28 -0.58,0.75 -0.59,-0.3 -0.44,1l0.65 -1.23c0.04,-0.04 0.15,-0.1 0.21,-0.17l-1.41 0.07 -0.12 17.2z"/>
   <polygon class="fil1" points="603.76,195.87 624.12,195.97 624.23,190.61 603.76,190.55 "/>
   <path class="fil2" d="M340.37 179.33c0.27,-0.52 0.13,-0.29 0.44,-0.65 5.21,0 13.91,1.53 13.15,-5.02 -0.66,-5.67 -9.59,-2.81 -14.21,-3.8 0.42,1.72 2.78,7.17 0.62,9.47z"/>
   <path class="fil2" d="M308.18 178.83l12.03 -0.08c-1.31,-4.08 -0.07,-5.37 0.77,-8.84 -2.32,0.35 -12.89,0.46 -14.53,-0.26 0.87,0.63 1.4,2.52 1.64,3.74 0.43,2.21 -0.03,3.37 0.09,5.43z"/>
   <path class="fil7" d="M178.49 81.53c-2.32,1.95 -3.83,2.81 -6.36,-0.63l-0.68 -1.83c-0.01,-0.04 -0,-1.38 0,-1.51 0.01,-0.88 0.02,-1.74 0.02,-2.62 -1.96,1.17 -3.23,4.82 -2.95,7.4 0.2,1.88 3.66,4.58 6.32,4.84 3.19,0.31 5.92,-2.08 6.91,-4.5 1.04,-2.55 0.56,-6.54 -2.36,-7.62l-0.27 5.4c-0.29,1.07 0.36,0.38 -0.62,1.07z"/>
   <path class="fil0" d="M151.32 15.25c-1.6,3.14 -1.43,3.02 -2.21,6.52 0.03,2.81 0.19,3.79 0.99,6.17 0.79,2.34 1.85,3.66 2.62,5.39l1.58 2.07c1.74,1.14 1.07,1.15 3.67,1.3 0.84,-1.23 1.03,-0.74 1.35,-2.49l-1.15 -0.69c-1.64,0.72 -0.2,0.43 -1.48,1 -0.91,-1.43 -2.23,-2.47 -2.99,-4.14 -1.58,-1.69 -2.41,-4.82 -2.46,-7.59 0.03,-2.65 0.66,-5.48 2.49,-6.57 0.52,-1.09 -0.86,-0.06 0.87,-1 2.26,-1.23 5.13,0.74 5.88,4.04l0.17 0.27 1.91 -0.63c-0.13,-1.88 -2.25,-4.84 -4.03,-5.67 -1.17,-0.55 -2.84,-0.56 -4.22,-0.11 -1.27,0.41 -1.89,1.32 -3,2.11z"/>
   <path class="fil2" d="M292.65 176.21c0.92,6.48 10.35,5.31 9.9,-1.06 -0.47,-6.73 -10.86,-5.68 -9.9,1.06z"/>
   <path class="fil2" d="M335.11 176.95c1.91,-6.97 -8.07,-8.73 -9.47,-2.85 -1.57,6.62 7.75,9.14 9.47,2.85z"/>
   <path class="fil7" d="M105.74 81.64c-0.99,0.92 -1.48,1.59 -3.31,1.45 -1.84,-0.14 -2.29,-1.28 -2.87,-2 -0.99,-0.87 -0.89,-1.65 -0.88,-3.14 0.01,-1.09 0.03,-2.19 0.03,-3.28 -0.31,0.73 -1.47,1.78 -1.98,2.8 -3.64,7.31 6.14,13.31 11.24,7.17 2.03,-2.45 1.37,-4.78 0.92,-8.17 -2.39,-1.75 -2.05,-2.75 -2.04,1.84 0.01,3.96 -0.69,3.1 -1.11,3.33z"/>
   <path class="fil9" d="M587.93 195.68c2.7,-0.19 13.6,-0.31 15.83,0.19l-0 -5.32c-2.17,0.56 -13.1,0.4 -15.81,0.2l-0.01 4.94z"/>
   <path class="fil8" d="M510.68 135c0.01,-3.29 -0.79,-7.98 2.92,-8.21 4.35,-0.27 3.33,5.13 3.35,8.1 4.3,-0 4.86,-10.95 -2.64,-11.3 -5.8,-0.27 -8.75,5.97 -5.34,10.29 0.78,0.99 0.82,1 1.7,1.12z"/>
   <path class="fil8" d="M443.72 128.26c1.12,-1.66 3.58,-2.2 5.13,-0.36 1.28,1.51 0.66,5.09 0.78,7.09 4.38,-0.55 4.52,-11.37 -3.3,-11.41 -2.98,-0.01 -5.32,2.12 -6.01,4.43 -0.89,2.97 0.7,6.41 2.65,7.06 0.26,-2.49 -0.15,-4.91 0.25,-6.02 0.34,-0.92 0.02,-0.28 0.49,-0.8z"/>
   <path class="fil6" d="M593.06 88.66c0.69,-2.27 4.17,-2.34 4.68,0.26 0.74,1.61 -0.08,2.97 0.79,4.4 0.8,-0.49 1.38,-1.14 1.73,-2.25 2.08,-6.74 -7.88,-9.67 -9.67,-3.15 -0.99,3.62 0.93,3.78 1.66,5.96 0.13,-2.34 -0.13,-3.06 0.62,-4.86 0.05,-0.11 0.11,-0.25 0.19,-0.36z"/>
   <path class="fil6" d="M540.28 88.66c0.5,-2.15 3.85,-2.32 4.7,0 0.62,1.38 0.54,3.31 0.73,4.66 3.85,-2.91 1.84,-9.12 -3.32,-9.03 -4.62,0.08 -6.69,6.07 -2.67,9.17 0.24,-2.2 -0.58,-3.42 0.57,-4.8z"/>
   <path class="fil3" d="M151.25 22.81c1.5,0.22 2.38,0.9 3.79,1.41 1.35,-3.35 3.43,-2.43 5.63,-4.66l-0.17 -0.27 -6.76 -3.05c-1.84,1.09 -2.46,3.92 -2.49,6.57z"/>
   <path class="fil0" d="M601.65 170.11c4.71,0.61 9.25,-3.09 9.28,-6.24 -5.02,-1.01 -8.89,4.54 -9.28,6.24z"/>
   <path class="fil0" d="M590.99 170.1c-0.09,-1.47 -2.11,-3.54 -3.05,-4.37 -1.58,-1.4 -3.33,-2.26 -5.97,-1.97 -0.16,3.61 4.94,6.9 9.02,6.34z"/>
   <path class="fil4" d="M176.08 39.92l1.24 -0.07c-0.32,1.14 -0.25,2.92 0.78,4.11 -0.32,-3.01 -0.26,-1.53 0.07,-2.34 0.02,-0.05 0.11,-0.13 0.17,-0.18l0.57 -2.59 -0.78 -0.3c-1.06,1.1 -0.86,0.14 -2.05,1.37z"/>
  </g>
 </g>
</svg>
