<svg width="9" height="15" viewBox="0 0 9 15" fill="none" xmlns="http://www.w3.org/2000/svg">
<path d="M2.71328 7.49719L8.66999 1.82518C8.77353 1.7314 8.85661 1.61524 8.91357 1.48463C8.97052 1.35402 9 1.21203 9 1.06835C9 0.924673 8.97052 0.782685 8.91357 0.652075C8.85661 0.521464 8.77353 0.405304 8.66999 0.311519C8.44862 0.110567 8.1659 0 7.87342 0C7.58094 0 7.29821 0.110567 7.07685 0.311519L0.327609 6.73915C0.227643 6.8303 0.14689 6.9424 0.0905222 7.06826C0.0341542 7.19413 0.00341322 7.33098 0.000268402 7.47005C-0.00287641 7.60912 0.021644 7.74736 0.0722594 7.87589C0.122875 8.00443 0.19847 8.12043 0.294202 8.21648L7.07454 14.6877C7.29569 14.8891 7.5785 15 7.87111 15C8.16372 15 8.44653 14.8891 8.66768 14.6877C8.77123 14.5939 8.85431 14.4778 8.91126 14.3471C8.96821 14.2165 8.99769 14.0745 8.99769 13.9309C8.99769 13.7872 8.96821 13.6452 8.91126 13.5146C8.85431 13.384 8.77123 13.2678 8.66768 13.174L2.71328 7.49719Z" fill="#B41C8B"/>
</svg>
