<svg width="26" height="23" viewBox="0 0 26 23" fill="none" xmlns="http://www.w3.org/2000/svg">
<path d="M23.8388 13.1908L25.9726 4.08522C26.1267 3.42778 25.6114 2.80172 24.9162 2.80172H7.18647L6.77273 0.840079C6.66963 0.351135 6.22601 0 5.71138 0H1.08333C0.485017 0 0 0.470383 0 1.05065V1.75108C0 2.33134 0.485017 2.80172 1.08333 2.80172H4.23778L7.40869 17.8363C6.65009 18.2594 6.13889 19.0527 6.13889 19.9623C6.13889 21.3162 7.27061 22.4138 8.66667 22.4138C10.0627 22.4138 11.1944 21.3162 11.1944 19.9623C11.1944 19.2761 10.9034 18.6562 10.435 18.2112H19.8983C19.4299 18.6562 19.1389 19.2761 19.1389 19.9623C19.1389 21.3162 20.2706 22.4138 21.6667 22.4138C23.0627 22.4138 24.1944 21.3162 24.1944 19.9623C24.1944 18.9917 23.6127 18.1529 22.769 17.7557L23.018 16.693C23.1721 16.0355 22.6568 15.4095 21.9617 15.4095H9.84556L9.55013 14.0086H22.7824C23.2882 14.0086 23.7267 13.6692 23.8388 13.1908Z" fill="#3F3F3F"/>
</svg>
