<svg width="23" height="21" viewBox="0 0 23 21" fill="none" xmlns="http://www.w3.org/2000/svg">
<g filter="url(#filter0_d_3579_42)">
<path d="M18.6487 10.625H8.97894L9.19483 11.6875H18.0489C18.5569 11.6875 18.9335 12.1623 18.8209 12.661L18.6389 13.467C19.2554 13.7683 19.6806 14.4044 19.6806 15.1406C19.6806 16.1766 18.8388 17.0147 17.8062 16.9998C16.8224 16.9856 16.0134 16.182 15.9868 15.192C15.9723 14.6512 16.1875 14.1611 16.5411 13.8125H9.6256C9.9679 14.15 10.1806 14.6202 10.1806 15.1406C10.1806 16.1969 9.3055 17.0475 8.24526 16.9979C7.30384 16.9539 6.5382 16.1883 6.48872 15.2409C6.45052 14.5093 6.83296 13.8645 7.41401 13.5281L5.09684 2.125H2.79167C2.35444 2.125 2 1.76823 2 1.32812V0.796875C2 0.356767 2.35444 0 2.79167 0H6.1737C6.54978 0 6.87393 0.266322 6.9493 0.637168L7.25165 2.125H20.208C20.716 2.125 21.0926 2.59984 20.98 3.09848L19.4206 10.0047C19.3387 10.3675 19.0183 10.625 18.6487 10.625ZM15.4583 5.57812H13.875V4.25C13.875 3.95658 13.6387 3.71875 13.3472 3.71875H12.8194C12.5279 3.71875 12.2917 3.95658 12.2917 4.25V5.57812H10.7083C10.4168 5.57812 10.1806 5.81596 10.1806 6.10937V6.64062C10.1806 6.93404 10.4168 7.17187 10.7083 7.17187H12.2917V8.5C12.2917 8.79341 12.5279 9.03125 12.8194 9.03125H13.3472C13.6387 9.03125 13.875 8.79341 13.875 8.5V7.17187H15.4583C15.7498 7.17187 15.9861 6.93404 15.9861 6.64062V6.10937C15.9861 5.81596 15.7498 5.57812 15.4583 5.57812Z" fill="#B11E89"/>
</g>
<defs>
<filter id="filter0_d_3579_42" x="0" y="0" width="23" height="21" filterUnits="userSpaceOnUse" color-interpolation-filters="sRGB">
<feFlood flood-opacity="0" result="BackgroundImageFix"/>
<feColorMatrix in="SourceAlpha" type="matrix" values="0 0 0 0 0 0 0 0 0 0 0 0 0 0 0 0 0 0 127 0" result="hardAlpha"/>
<feOffset dy="2"/>
<feGaussianBlur stdDeviation="1"/>
<feColorMatrix type="matrix" values="0 0 0 0 0 0 0 0 0 0 0 0 0 0 0 0 0 0 0.1 0"/>
<feBlend mode="normal" in2="BackgroundImageFix" result="effect1_dropShadow_3579_42"/>
<feBlend mode="normal" in="SourceGraphic" in2="effect1_dropShadow_3579_42" result="shape"/>
</filter>
</defs>
</svg>
