<svg width="33" height="33" viewBox="0 0 33 33" fill="none" xmlns="http://www.w3.org/2000/svg">
<path d="M27.2186 1.40615L16.5 12.1247L5.78141 1.40615C5.49413 1.11886 5.15307 0.890977 4.77772 0.7355C4.40236 0.580023 4.00006 0.5 3.59378 0.5C3.1875 0.5 2.7852 0.580023 2.40984 0.7355C2.03449 0.890977 1.69343 1.11886 1.40615 1.40615C1.11886 1.69343 0.890977 2.03449 0.7355 2.40984C0.580023 2.7852 0.5 3.1875 0.5 3.59378C0.5 4.00006 0.580023 4.40236 0.7355 4.77772C0.890977 5.15307 1.11886 5.49413 1.40615 5.78141L12.1247 16.5L1.40615 27.2186C1.11886 27.5059 0.890977 27.8469 0.7355 28.2223C0.580023 28.5976 0.5 28.9999 0.5 29.4062C0.5 29.8125 0.580023 30.2148 0.7355 30.5902C0.890977 30.9655 1.11886 31.3066 1.40615 31.5939C1.69343 31.8811 2.03449 32.109 2.40984 32.2645C2.7852 32.42 3.1875 32.5 3.59378 32.5C4.00006 32.5 4.40236 32.42 4.77772 32.2645C5.15308 32.109 5.49413 31.8811 5.78141 31.5939L16.5 20.8753L27.2186 31.5939C27.7988 32.174 28.5857 32.5 29.4062 32.5C30.2267 32.5 31.0137 32.174 31.5939 31.5939C32.174 31.0137 32.5 30.2267 32.5 29.4062C32.5 28.5857 32.174 27.7988 31.5939 27.2186L20.8753 16.5L31.5939 5.78141C32.174 5.20122 32.5 4.4143 32.5 3.59378C32.5 2.77326 32.174 1.98634 31.5939 1.40615C31.0137 0.825951 30.2267 0.5 29.4062 0.5C28.5857 0.5 27.7988 0.82595 27.2186 1.40615Z" fill="white" stroke="white"/>
</svg>
