<svg width="175" height="55" viewBox="0 0 175 55" fill="none" xmlns="http://www.w3.org/2000/svg">
<path d="M6.786 1.4C7.914 1.4 8.88 1.682 9.684 2.246C10.488 2.81 11.094 3.572 11.502 4.532C11.91 5.48 12.114 6.536 12.114 7.7C12.114 8.876 11.91 9.944 11.502 10.904C11.094 11.852 10.488 12.608 9.684 13.172C8.88 13.724 7.914 14 6.786 14H2.358C2.118 14 1.914 13.916 1.746 13.748C1.578 13.58 1.494 13.376 1.494 13.136V2.264C1.494 2.024 1.578 1.82 1.746 1.652C1.914 1.484 2.118 1.4 2.358 1.4H6.786ZM6.606 12.344C7.83 12.344 8.748 11.912 9.36 11.048C9.972 10.172 10.278 9.056 10.278 7.7C10.278 6.356 9.966 5.246 9.342 4.37C8.73 3.494 7.818 3.056 6.606 3.056H3.276V12.344H6.606ZM22.601 8.924C22.589 9.14 22.499 9.326 22.331 9.482C22.163 9.626 21.965 9.698 21.737 9.698H15.401C15.485 10.574 15.815 11.276 16.391 11.804C16.979 12.332 17.693 12.596 18.533 12.596C19.109 12.596 19.577 12.512 19.937 12.344C20.297 12.176 20.615 11.96 20.891 11.696C21.071 11.588 21.245 11.534 21.413 11.534C21.617 11.534 21.785 11.606 21.917 11.75C22.061 11.894 22.133 12.062 22.133 12.254C22.133 12.506 22.013 12.734 21.773 12.938C21.425 13.286 20.963 13.58 20.387 13.82C19.811 14.06 19.223 14.18 18.623 14.18C17.651 14.18 16.793 13.976 16.049 13.568C15.317 13.16 14.747 12.59 14.339 11.858C13.943 11.126 13.745 10.298 13.745 9.374C13.745 8.366 13.949 7.484 14.357 6.728C14.777 5.96 15.323 5.372 15.995 4.964C16.679 4.556 17.411 4.352 18.191 4.352C18.959 4.352 19.679 4.55 20.351 4.946C21.023 5.342 21.563 5.888 21.971 6.584C22.379 7.28 22.589 8.06 22.601 8.924ZM18.191 5.936C17.519 5.936 16.937 6.128 16.445 6.512C15.953 6.884 15.629 7.466 15.473 8.258H20.783V8.114C20.723 7.478 20.435 6.956 19.919 6.548C19.415 6.14 18.839 5.936 18.191 5.936ZM24.0466 12.524C23.9386 12.356 23.8846 12.194 23.8846 12.038C23.8846 11.798 24.0106 11.594 24.2626 11.426C24.3826 11.342 24.5206 11.3 24.6766 11.3C24.8926 11.3 25.0906 11.39 25.2706 11.57C25.6306 11.978 26.0146 12.284 26.4226 12.488C26.8426 12.692 27.3406 12.794 27.9166 12.794C28.3726 12.782 28.7746 12.68 29.1226 12.488C29.4706 12.284 29.6446 11.96 29.6446 11.516C29.6446 11.108 29.4646 10.796 29.1046 10.58C28.7566 10.364 28.2406 10.166 27.5566 9.986C26.8846 9.806 26.3266 9.62 25.8826 9.428C25.4386 9.224 25.0606 8.936 24.7486 8.564C24.4486 8.18 24.2986 7.682 24.2986 7.07C24.2986 6.53 24.4486 6.056 24.7486 5.648C25.0606 5.24 25.4686 4.922 25.9726 4.694C26.4886 4.466 27.0466 4.352 27.6466 4.352C28.2226 4.352 28.7926 4.46 29.3566 4.676C29.9326 4.892 30.4006 5.222 30.7606 5.666C30.9046 5.834 30.9766 6.008 30.9766 6.188C30.9766 6.38 30.8806 6.566 30.6886 6.746C30.5686 6.854 30.4186 6.908 30.2386 6.908C30.0226 6.908 29.8486 6.836 29.7166 6.692C29.4646 6.404 29.1526 6.182 28.7806 6.026C28.4206 5.87 28.0186 5.792 27.5746 5.792C27.1186 5.792 26.7286 5.888 26.4046 6.08C26.0926 6.26 25.9366 6.572 25.9366 7.016C25.9486 7.436 26.1286 7.748 26.4766 7.952C26.8366 8.156 27.3826 8.354 28.1146 8.546C28.7506 8.714 29.2786 8.894 29.6986 9.086C30.1186 9.278 30.4726 9.566 30.7606 9.95C31.0486 10.322 31.1926 10.814 31.1926 11.426C31.1926 11.99 31.0306 12.482 30.7066 12.902C30.3826 13.31 29.9566 13.628 29.4286 13.856C28.9126 14.072 28.3606 14.18 27.7726 14.18C27.0166 14.18 26.3146 14.048 25.6666 13.784C25.0306 13.52 24.4906 13.1 24.0466 12.524ZM41.4447 8.924C41.4327 9.14 41.3427 9.326 41.1747 9.482C41.0067 9.626 40.8087 9.698 40.5807 9.698H34.2447C34.3287 10.574 34.6587 11.276 35.2347 11.804C35.8227 12.332 36.5367 12.596 37.3767 12.596C37.9527 12.596 38.4207 12.512 38.7807 12.344C39.1407 12.176 39.4587 11.96 39.7347 11.696C39.9147 11.588 40.0887 11.534 40.2567 11.534C40.4607 11.534 40.6287 11.606 40.7607 11.75C40.9047 11.894 40.9767 12.062 40.9767 12.254C40.9767 12.506 40.8567 12.734 40.6167 12.938C40.2687 13.286 39.8067 13.58 39.2307 13.82C38.6547 14.06 38.0667 14.18 37.4667 14.18C36.4947 14.18 35.6367 13.976 34.8927 13.568C34.1607 13.16 33.5907 12.59 33.1827 11.858C32.7867 11.126 32.5887 10.298 32.5887 9.374C32.5887 8.366 32.7927 7.484 33.2007 6.728C33.6207 5.96 34.1667 5.372 34.8387 4.964C35.5227 4.556 36.2547 4.352 37.0347 4.352C37.8027 4.352 38.5227 4.55 39.1947 4.946C39.8667 5.342 40.4067 5.888 40.8147 6.584C41.2227 7.28 41.4327 8.06 41.4447 8.924ZM37.0347 5.936C36.3627 5.936 35.7807 6.128 35.2887 6.512C34.7967 6.884 34.4727 7.466 34.3167 8.258H39.6267V8.114C39.5667 7.478 39.2787 6.956 38.7627 6.548C38.2587 6.14 37.6827 5.936 37.0347 5.936ZM48.2363 4.352C50.3963 4.352 51.4763 5.648 51.4763 8.24V13.136C51.4763 13.376 51.3923 13.58 51.2243 13.748C51.0683 13.916 50.8643 14 50.6123 14C50.3723 14 50.1683 13.916 50.0003 13.748C49.8443 13.58 49.7663 13.376 49.7663 13.136V8.258C49.7663 7.55 49.6043 6.986 49.2803 6.566C48.9563 6.146 48.4283 5.936 47.6963 5.936C47.2163 5.936 46.7783 6.044 46.3823 6.26C45.9983 6.464 45.6923 6.746 45.4643 7.106C45.2483 7.454 45.1403 7.838 45.1403 8.258V13.136C45.1403 13.376 45.0563 13.58 44.8883 13.748C44.7323 13.916 44.5283 14 44.2763 14C44.0243 14 43.8203 13.922 43.6643 13.766C43.5083 13.598 43.4303 13.388 43.4303 13.136V5.432C43.4303 5.192 43.5083 4.988 43.6643 4.82C43.8323 4.652 44.0363 4.568 44.2763 4.568C44.5283 4.568 44.7323 4.652 44.8883 4.82C45.0563 4.988 45.1403 5.192 45.1403 5.432V6.062C45.4523 5.582 45.8843 5.18 46.4363 4.856C47.0003 4.52 47.6003 4.352 48.2363 4.352ZM61.1421 4.478C61.3701 4.478 61.5621 4.556 61.7181 4.712C61.8741 4.856 61.9521 5.03 61.9521 5.234C61.9521 5.342 61.9101 5.492 61.8261 5.684L58.4061 13.46C58.3341 13.616 58.2321 13.742 58.1001 13.838C57.9681 13.934 57.8241 13.988 57.6681 14C57.4761 14.024 57.2961 13.988 57.1281 13.892C56.9721 13.796 56.8521 13.652 56.7681 13.46L53.3481 5.684C53.2881 5.504 53.2581 5.354 53.2581 5.234C53.2581 5.042 53.3361 4.868 53.4921 4.712C53.6481 4.556 53.8521 4.478 54.1041 4.478C54.2841 4.478 54.4461 4.526 54.5901 4.622C54.7341 4.706 54.8481 4.838 54.9321 5.018L57.6501 11.336L60.3681 5.018C60.5361 4.658 60.7941 4.478 61.1421 4.478ZM72.6435 9.284C72.6435 10.22 72.4335 11.06 72.0135 11.804C71.5935 12.548 71.0175 13.13 70.2855 13.55C69.5655 13.97 68.7675 14.18 67.8915 14.18C67.0155 14.18 66.2115 13.97 65.4795 13.55C64.7595 13.13 64.1895 12.548 63.7695 11.804C63.3495 11.06 63.1395 10.22 63.1395 9.284C63.1395 8.348 63.3495 7.502 63.7695 6.746C64.1895 5.99 64.7595 5.402 65.4795 4.982C66.2115 4.562 67.0155 4.352 67.8915 4.352C68.7675 4.352 69.5655 4.562 70.2855 4.982C71.0175 5.402 71.5935 5.99 72.0135 6.746C72.4335 7.502 72.6435 8.348 72.6435 9.284ZM70.9335 9.284C70.9335 8.636 70.7955 8.06 70.5195 7.556C70.2555 7.04 69.8895 6.644 69.4215 6.368C68.9655 6.08 68.4555 5.936 67.8915 5.936C67.3275 5.936 66.8115 6.08 66.3435 6.368C65.8875 6.644 65.5215 7.04 65.2455 7.556C64.9815 8.06 64.8495 8.636 64.8495 9.284C64.8495 9.92 64.9815 10.49 65.2455 10.994C65.5215 11.498 65.8875 11.894 66.3435 12.182C66.8115 12.458 67.3275 12.596 67.8915 12.596C68.4555 12.596 68.9655 12.458 69.4215 12.182C69.8895 11.894 70.2555 11.498 70.5195 10.994C70.7955 10.49 70.9335 9.92 70.9335 9.284ZM76.4855 13.136C76.4855 13.376 76.4015 13.58 76.2335 13.748C76.0655 13.916 75.8615 14 75.6215 14C75.3815 14 75.1775 13.916 75.0095 13.748C74.8535 13.58 74.7755 13.376 74.7755 13.136V1.544C74.7755 1.304 74.8595 1.1 75.0275 0.932C75.1955 0.764 75.3995 0.68 75.6395 0.68C75.8795 0.68 76.0775 0.764 76.2335 0.932C76.4015 1.1 76.4855 1.304 76.4855 1.544V13.136ZM85.9272 4.478C86.1552 4.478 86.3472 4.556 86.5032 4.712C86.6592 4.856 86.7372 5.03 86.7372 5.234C86.7372 5.342 86.6952 5.492 86.6112 5.684L83.1912 13.46C83.1192 13.616 83.0172 13.742 82.8852 13.838C82.7532 13.934 82.6092 13.988 82.4532 14C82.2612 14.024 82.0812 13.988 81.9132 13.892C81.7572 13.796 81.6372 13.652 81.5532 13.46L78.1332 5.684C78.0732 5.504 78.0432 5.354 78.0432 5.234C78.0432 5.042 78.1212 4.868 78.2772 4.712C78.4332 4.556 78.6372 4.478 78.8892 4.478C79.0692 4.478 79.2312 4.526 79.3752 4.622C79.5192 4.706 79.6332 4.838 79.7172 5.018L82.4352 11.336L85.1532 5.018C85.3212 4.658 85.5792 4.478 85.9272 4.478ZM90.2085 13.136C90.2085 13.376 90.1245 13.58 89.9565 13.748C89.8005 13.916 89.5965 14 89.3445 14C89.1045 14 88.9005 13.916 88.7325 13.748C88.5765 13.58 88.4985 13.376 88.4985 13.136V5.342C88.4985 5.102 88.5765 4.898 88.7325 4.73C88.9005 4.562 89.1045 4.478 89.3445 4.478C89.5965 4.478 89.8005 4.562 89.9565 4.73C90.1245 4.898 90.2085 5.102 90.2085 5.342V13.136ZM89.3445 3.29C88.9965 3.29 88.7445 3.23 88.5885 3.11C88.4445 2.978 88.3725 2.774 88.3725 2.498V2.21C88.3725 1.922 88.4505 1.718 88.6065 1.598C88.7745 1.478 89.0265 1.418 89.3625 1.418C89.6985 1.418 89.9385 1.484 90.0825 1.616C90.2385 1.736 90.3165 1.934 90.3165 2.21V2.498C90.3165 2.786 90.2385 2.99 90.0825 3.11C89.9265 3.23 89.6805 3.29 89.3445 3.29ZM100.317 0.68C100.569 0.68 100.773 0.764 100.929 0.932C101.097 1.088 101.181 1.292 101.181 1.544V13.136C101.181 13.376 101.097 13.58 100.929 13.748C100.773 13.916 100.569 14 100.317 14C100.065 14 99.8607 13.922 99.7047 13.766C99.5487 13.598 99.4707 13.388 99.4707 13.136V12.632C99.1707 13.064 98.7447 13.43 98.1927 13.73C97.6527 14.03 97.0707 14.18 96.4467 14.18C95.6307 14.18 94.8927 13.97 94.2327 13.55C93.5727 13.13 93.0507 12.548 92.6667 11.804C92.2827 11.048 92.0907 10.202 92.0907 9.266C92.0907 8.33 92.2767 7.49 92.6487 6.746C93.0327 5.99 93.5547 5.402 94.2147 4.982C94.8747 4.562 95.6007 4.352 96.3927 4.352C97.0287 4.352 97.6167 4.484 98.1567 4.748C98.6967 5.012 99.1347 5.354 99.4707 5.774V1.544C99.4707 1.292 99.5487 1.088 99.7047 0.932C99.8607 0.764 100.065 0.68 100.317 0.68ZM96.6447 12.596C97.2087 12.596 97.7067 12.452 98.1387 12.164C98.5827 11.876 98.9247 11.48 99.1647 10.976C99.4167 10.472 99.5427 9.902 99.5427 9.266C99.5427 8.642 99.4167 8.078 99.1647 7.574C98.9247 7.058 98.5827 6.656 98.1387 6.368C97.7067 6.08 97.2087 5.936 96.6447 5.936C96.0807 5.936 95.5767 6.08 95.1327 6.368C94.7007 6.656 94.3587 7.058 94.1067 7.574C93.8667 8.078 93.7467 8.642 93.7467 9.266C93.7467 9.902 93.8667 10.472 94.1067 10.976C94.3587 11.48 94.7007 11.876 95.1327 12.164C95.5767 12.452 96.0807 12.596 96.6447 12.596ZM112.651 9.284C112.651 10.22 112.441 11.06 112.021 11.804C111.601 12.548 111.025 13.13 110.293 13.55C109.573 13.97 108.775 14.18 107.899 14.18C107.023 14.18 106.219 13.97 105.487 13.55C104.767 13.13 104.197 12.548 103.777 11.804C103.357 11.06 103.147 10.22 103.147 9.284C103.147 8.348 103.357 7.502 103.777 6.746C104.197 5.99 104.767 5.402 105.487 4.982C106.219 4.562 107.023 4.352 107.899 4.352C108.775 4.352 109.573 4.562 110.293 4.982C111.025 5.402 111.601 5.99 112.021 6.746C112.441 7.502 112.651 8.348 112.651 9.284ZM110.941 9.284C110.941 8.636 110.803 8.06 110.527 7.556C110.263 7.04 109.897 6.644 109.429 6.368C108.973 6.08 108.463 5.936 107.899 5.936C107.335 5.936 106.819 6.08 106.351 6.368C105.895 6.644 105.529 7.04 105.253 7.556C104.989 8.06 104.857 8.636 104.857 9.284C104.857 9.92 104.989 10.49 105.253 10.994C105.529 11.498 105.895 11.894 106.351 12.182C106.819 12.458 107.335 12.596 107.899 12.596C108.463 12.596 108.973 12.458 109.429 12.182C109.897 11.894 110.263 11.498 110.527 10.994C110.803 10.49 110.941 9.92 110.941 9.284ZM124.366 4.406C125.182 4.406 125.92 4.616 126.58 5.036C127.24 5.444 127.756 6.02 128.128 6.764C128.512 7.508 128.704 8.348 128.704 9.284C128.704 10.22 128.512 11.06 128.128 11.804C127.756 12.536 127.24 13.112 126.58 13.532C125.92 13.952 125.194 14.162 124.402 14.162C123.778 14.162 123.196 14.024 122.656 13.748C122.116 13.472 121.678 13.136 121.342 12.74V16.736C121.342 16.976 121.258 17.18 121.09 17.348C120.934 17.516 120.73 17.6 120.478 17.6C120.238 17.6 120.034 17.516 119.866 17.348C119.71 17.192 119.632 16.988 119.632 16.736V5.414C119.632 5.162 119.71 4.952 119.866 4.784C120.022 4.616 120.226 4.532 120.478 4.532C120.73 4.532 120.934 4.616 121.09 4.784C121.258 4.952 121.342 5.162 121.342 5.414V5.936C121.63 5.516 122.05 5.156 122.602 4.856C123.154 4.556 123.742 4.406 124.366 4.406ZM124.168 12.578C124.72 12.578 125.218 12.434 125.662 12.146C126.106 11.858 126.448 11.468 126.688 10.976C126.94 10.472 127.066 9.908 127.066 9.284C127.066 8.66 126.94 8.102 126.688 7.61C126.448 7.106 126.106 6.71 125.662 6.422C125.218 6.134 124.72 5.99 124.168 5.99C123.604 5.99 123.1 6.134 122.656 6.422C122.212 6.698 121.864 7.088 121.612 7.592C121.372 8.096 121.252 8.66 121.252 9.284C121.252 9.908 121.372 10.472 121.612 10.976C121.864 11.48 122.212 11.876 122.656 12.164C123.1 12.44 123.604 12.578 124.168 12.578ZM139.616 9.284C139.616 10.22 139.406 11.06 138.986 11.804C138.566 12.548 137.99 13.13 137.258 13.55C136.538 13.97 135.74 14.18 134.864 14.18C133.988 14.18 133.184 13.97 132.452 13.55C131.732 13.13 131.162 12.548 130.742 11.804C130.322 11.06 130.112 10.22 130.112 9.284C130.112 8.348 130.322 7.502 130.742 6.746C131.162 5.99 131.732 5.402 132.452 4.982C133.184 4.562 133.988 4.352 134.864 4.352C135.74 4.352 136.538 4.562 137.258 4.982C137.99 5.402 138.566 5.99 138.986 6.746C139.406 7.502 139.616 8.348 139.616 9.284ZM137.906 9.284C137.906 8.636 137.768 8.06 137.492 7.556C137.228 7.04 136.862 6.644 136.394 6.368C135.938 6.08 135.428 5.936 134.864 5.936C134.3 5.936 133.784 6.08 133.316 6.368C132.86 6.644 132.494 7.04 132.218 7.556C131.954 8.06 131.822 8.636 131.822 9.284C131.822 9.92 131.954 10.49 132.218 10.994C132.494 11.498 132.86 11.894 133.316 12.182C133.784 12.458 134.3 12.596 134.864 12.596C135.428 12.596 135.938 12.458 136.394 12.182C136.862 11.894 137.228 11.498 137.492 10.994C137.768 10.49 137.906 9.92 137.906 9.284ZM146.302 4.352C146.614 4.352 146.884 4.436 147.112 4.604C147.34 4.76 147.454 4.958 147.454 5.198C147.454 5.486 147.376 5.708 147.22 5.864C147.076 6.008 146.896 6.08 146.68 6.08C146.572 6.08 146.41 6.044 146.194 5.972C145.942 5.888 145.744 5.846 145.6 5.846C145.228 5.846 144.862 5.978 144.502 6.242C144.154 6.494 143.866 6.848 143.638 7.304C143.422 7.748 143.314 8.246 143.314 8.798V13.136C143.314 13.376 143.23 13.58 143.062 13.748C142.906 13.916 142.702 14 142.45 14C142.198 14 141.994 13.922 141.838 13.766C141.682 13.598 141.604 13.388 141.604 13.136V5.432C141.604 5.192 141.682 4.988 141.838 4.82C142.006 4.652 142.21 4.568 142.45 4.568C142.702 4.568 142.906 4.652 143.062 4.82C143.23 4.988 143.314 5.192 143.314 5.432V6.35C143.578 5.762 143.974 5.288 144.502 4.928C145.03 4.556 145.63 4.364 146.302 4.352ZM149.796 6.764C149.508 6.764 149.286 6.686 149.13 6.53C148.986 6.374 148.914 6.146 148.914 5.846V5.522C148.914 5.222 148.986 4.994 149.13 4.838C149.286 4.682 149.508 4.604 149.796 4.604H149.994C150.282 4.604 150.498 4.682 150.642 4.838C150.798 4.994 150.876 5.222 150.876 5.522V5.846C150.876 6.146 150.798 6.374 150.642 6.53C150.498 6.686 150.282 6.764 149.994 6.764H149.796ZM149.796 14C149.508 14 149.286 13.922 149.13 13.766C148.986 13.598 148.914 13.37 148.914 13.082V12.74C148.914 12.452 148.986 12.23 149.13 12.074C149.286 11.906 149.508 11.822 149.796 11.822H149.994C150.282 11.822 150.498 11.906 150.642 12.074C150.798 12.23 150.876 12.452 150.876 12.74V13.082C150.876 13.37 150.798 13.598 150.642 13.766C150.498 13.922 150.282 14 149.994 14H149.796Z" fill="#B41C8B"/>
<path fill-rule="evenodd" clip-rule="evenodd" d="M0 27.3582C0.0966658 27.3298 0.107403 27.2449 0.132644 27.1628C0.175354 26.9884 0.229168 26.8169 0.293755 26.6494C0.411267 26.3514 0.608119 26.0912 0.862967 25.8971C1.11781 25.7031 1.42093 25.5825 1.73945 25.5484C1.92945 25.5226 2.12076 25.5076 2.31246 25.5033C2.87634 25.491 3.44022 25.4877 4.00518 25.4786C4.12279 25.4786 4.24094 25.4668 4.34459 25.462C4.37747 25.4148 4.40039 25.3614 4.41193 25.3051C4.42347 25.2488 4.4234 25.1907 4.41172 25.1344C4.43105 23.7907 4.44896 22.4465 4.46543 21.1018C4.46543 20.9944 4.47509 20.887 4.46543 20.7796C4.45337 20.6533 4.47624 20.5261 4.53155 20.4118C4.58685 20.2976 4.67247 20.2008 4.77905 20.1319C5.09229 19.8864 5.46118 19.7219 5.85312 19.6529C6.18339 19.5965 6.51743 19.5573 6.85092 19.5186C7.42286 19.451 7.9948 19.3892 8.56942 19.3269C8.65263 19.3169 8.73656 19.3144 8.82022 19.3194C9.52534 19.3758 10.2321 19.4365 10.9372 19.4934C11.3437 19.5267 11.7503 19.5551 12.1579 19.5874C13.0424 19.6572 13.9274 19.7254 14.8124 19.799C15.1857 19.8315 15.5423 19.9685 15.8414 20.1942C16.0066 20.3043 16.1413 20.4544 16.2329 20.6306C16.3244 20.8067 16.3699 21.0032 16.365 21.2017C16.365 22.57 16.3934 23.9406 16.4112 25.3062C16.3925 25.4464 16.411 25.589 16.4649 25.7197C16.6899 25.738 16.9262 25.7627 17.163 25.7772C18.3244 25.8488 19.4866 25.9168 20.6494 25.9813C21.2488 26.0156 21.8481 26.0436 22.4474 26.079C23.2256 26.1236 24.0048 26.1676 24.783 26.2208C24.9385 26.2321 25.0919 26.2642 25.2389 26.3164C25.8594 26.5276 26.3798 26.9611 26.6996 27.5333C26.8566 27.8049 26.9387 28.1132 26.9375 28.4269C26.9375 29.1836 26.9456 29.9397 26.951 30.6954C26.951 30.8253 26.9612 30.9547 26.9687 31.0986C27.0433 31.1144 27.1188 31.1252 27.1948 31.1309C28.6356 31.1309 30.0765 31.1196 31.5163 31.1234C31.769 31.125 32.021 31.1525 32.2681 31.2055C32.7188 31.2957 33.1296 31.5258 33.4421 31.8628C34.0677 32.5277 34.6832 33.2022 35.3367 33.8386C35.532 34.0731 35.645 34.3651 35.6586 34.6699C35.6722 34.9747 35.5855 35.2756 35.4119 35.5265C34.8351 36.2332 34.2933 36.9679 33.738 37.6918C31.8594 40.1385 29.9811 42.5852 28.1029 45.032C28.0658 45.0803 28.0299 45.1281 27.9955 45.1743C27.2816 46.1093 26.2615 46.7633 25.1138 47.0217C23.4543 47.4062 21.7949 47.788 20.1355 48.1672C17.5642 48.7572 14.9929 49.3467 12.4216 49.9356C10.703 50.3294 8.98455 50.7232 7.26605 51.1171C7.05607 51.1654 6.84824 51.2245 6.63665 51.2664C6.02034 51.3719 5.39101 51.3768 4.77314 51.2809C3.82075 51.158 2.88825 50.9125 1.99883 50.5505C1.74329 50.4469 1.49513 50.326 1.25611 50.1885C1.07085 50.0785 0.896911 49.9504 0.736805 49.8062C0.604396 49.692 0.498537 49.5503 0.426645 49.3909C0.354752 49.2315 0.318566 49.0584 0.320608 48.8835C0.320608 48.7863 0.317921 48.6902 0.316847 48.5946C0.278897 44.9697 0.240944 41.3447 0.202993 37.7197C0.180438 35.5823 0.155202 33.4455 0.127276 31.3092C0.120832 30.7818 0.0977363 30.2534 0.0735699 29.726C0.0595983 29.5839 0.0373671 29.4428 0.00698168 29.3034L0 27.3582ZM32.8342 35.5082C32.6773 35.5082 32.5587 35.5023 32.441 35.5082C32.1414 35.526 31.8423 35.5512 31.5426 35.5694C30.5609 35.6274 29.579 35.6847 28.597 35.7413C28.1892 35.7656 27.7818 35.7913 27.3747 35.8181C26.4413 35.8793 25.508 35.9443 24.5741 36.0023C23.5924 36.0624 22.6096 36.1167 21.6279 36.1742C21.2079 36.1989 20.7896 36.2279 20.3702 36.2536C19.8079 36.2902 19.2424 36.3304 18.6823 36.3664C17.9524 36.4137 17.221 36.4502 16.4923 36.5066C15.6084 36.5699 14.7785 36.9558 14.1605 37.5908C13.8655 37.8904 13.6108 38.2271 13.4027 38.5924C13.2507 38.8513 13.0977 39.109 12.9403 39.3652C11.007 42.5004 9.07369 45.6354 7.14038 48.7702C7.06817 48.8808 7.00237 48.9953 6.94329 49.1134C6.77627 49.4716 6.87079 49.6682 7.25745 49.7267C7.55396 49.7797 7.8579 49.7752 8.15269 49.7133C8.55009 49.6216 8.94731 49.5289 9.34436 49.4351L19.6398 47.0088C21.2386 46.6328 22.8389 46.2612 24.4355 45.8735C25.472 45.6312 26.3912 45.0344 27.0342 44.1861C28.713 42.0101 30.3941 39.836 32.0775 37.6639C32.3557 37.303 32.6328 36.94 32.9142 36.5812C32.9543 36.5369 32.9827 36.4833 32.9968 36.4253C33.0108 36.3672 33.0101 36.3065 32.9947 36.2488C32.9416 36.0168 32.8927 35.7821 32.8342 35.5082ZM14.9939 27.8507C14.9785 27.7759 14.9679 27.7002 14.9623 27.6241C14.9467 26.9641 14.93 26.304 14.9247 25.6446C14.9166 24.744 14.9177 23.8439 14.9128 22.9433C14.9147 22.8114 14.9062 22.6796 14.8876 22.5491C14.8653 22.3311 14.762 22.1294 14.5981 21.9839C14.4342 21.8384 14.2217 21.7597 14.0026 21.7634C13.9913 21.7634 13.979 21.7634 13.9666 21.7634C13.4881 21.7328 13.0091 21.7065 12.53 21.6716C12.0644 21.6378 11.5983 21.5883 11.1338 21.5593C10.8229 21.5355 10.5109 21.529 10.1993 21.54C10.0108 21.5414 9.82896 21.6102 9.68667 21.7339C9.54437 21.8576 9.45096 22.028 9.4233 22.2145C9.40135 22.3445 9.39253 22.4764 9.39699 22.6082C9.39377 24.157 9.39144 25.7056 9.39001 27.254C9.39001 27.3738 9.39431 27.4946 9.38518 27.6139C9.37126 27.7003 9.3517 27.7856 9.32663 27.8695C9.18271 27.8754 9.05167 27.8851 8.92171 27.8851C8.37018 27.8851 7.81758 27.8775 7.26605 27.8808C7.11013 27.8781 6.95437 27.8923 6.80151 27.9232C6.53674 27.9837 6.29132 28.1095 6.08759 28.2891C5.88387 28.4688 5.72831 28.6965 5.63508 28.9516C5.50448 29.2625 5.43519 29.5956 5.431 29.9328C5.40415 31.6727 5.37838 33.4129 5.35367 35.1533C5.34454 35.8133 5.3424 36.4733 5.33219 37.1338C5.31662 38.0935 5.29621 39.0537 5.27849 40.0129C5.27849 40.1031 5.28708 40.1938 5.29621 40.3619C5.3816 40.2304 5.42885 40.1664 5.46806 40.0966C5.68287 39.7207 5.89501 39.3448 6.10552 38.9689C7.05428 37.259 8.00303 35.5492 8.95179 33.8397C9.03541 33.6803 9.13704 33.5311 9.25468 33.395C9.50221 33.1178 9.76486 32.8544 10.0414 32.6061C10.894 31.8501 11.9831 31.4145 13.1218 31.3741C13.8291 31.343 14.5369 31.3387 15.2442 31.3248C16.517 31.2997 17.7879 31.2755 19.0571 31.2522C20.5093 31.2261 21.961 31.2005 23.4125 31.1754C24.0612 31.1642 24.7089 31.1604 25.3576 31.1513C25.7008 31.147 25.7115 31.1336 25.7228 30.7754C25.7314 30.4999 25.7421 30.2238 25.7528 29.9483C25.7636 29.6104 25.6755 29.2767 25.4993 28.9881C25.3231 28.6995 25.0665 28.4686 24.7609 28.3238C24.6521 28.2752 24.5363 28.244 24.4178 28.2314C24.1439 28.2041 23.8668 28.1858 23.5918 28.1777C22.8604 28.152 22.129 28.1305 21.3975 28.1095C20.3299 28.0805 19.2623 28.0526 18.1946 28.0258C17.2466 28 16.2989 27.9729 15.3516 27.9447C15.2241 27.9593 15.0958 27.9258 14.9918 27.8507H14.9939Z" fill="black"/>
<path fill-rule="evenodd" clip-rule="evenodd" d="M174.118 26.0618C174.09 26.0963 174.065 26.134 174.045 26.174C173.965 26.4214 173.812 26.6384 173.605 26.7961C173.399 26.9538 173.149 27.0446 172.889 27.0563C172.781 27.0643 172.672 27.0661 172.564 27.0617H101.865C101.782 27.0617 101.698 27.0617 101.614 27.0617C101.347 27.0633 101.086 26.9834 100.866 26.8328C100.646 26.6821 100.477 26.4678 100.382 26.2186C100.282 25.9926 100.228 25.7488 100.225 25.5016C100.221 25.2545 100.268 25.0092 100.361 24.7804C100.45 24.5158 100.621 24.2867 100.85 24.1271C101.079 23.9675 101.353 23.8859 101.632 23.8943C101.739 23.8981 101.847 23.8943 101.954 23.8943H172.438C172.582 23.8943 172.727 23.8911 172.868 23.8981C173.134 23.9031 173.391 23.9924 173.602 24.1531C173.814 24.3138 173.969 24.5376 174.045 24.7922C174.064 24.8343 174.088 24.8741 174.116 24.9109L174.118 26.0618Z" fill="black"/>
<path fill-rule="evenodd" clip-rule="evenodd" d="M99.4124 19.0021C99.4871 19.0387 99.5607 19.0773 99.6348 19.1096C99.8163 19.1791 99.9703 19.3058 100.074 19.4704C100.177 19.6351 100.224 19.8288 100.208 20.0225C100.198 20.2633 100.132 20.4986 100.016 20.7099C99.7896 21.1374 99.4429 21.4891 99.0188 21.7217C98.5222 21.9939 97.9693 22.1476 97.4034 22.1706C96.5514 22.208 95.6979 22.1966 94.8471 22.1363C94.2371 22.1061 93.6255 22.1358 93.0212 22.2249C92.5573 22.3024 92.122 22.5008 91.7592 22.8001C91.4031 23.0867 91.087 23.4197 90.8194 23.7903C90.1715 24.6866 89.6678 25.6787 89.3264 26.7306C89.0519 27.5248 88.867 28.3473 88.7754 29.1827C88.7497 29.4195 88.7529 29.6601 88.7411 29.9028C88.871 29.9786 88.986 30.0409 89.095 30.1123C89.386 30.3019 89.6825 30.4844 89.9596 30.6939C90.1116 30.811 90.2449 30.9507 90.3549 31.1079C90.4484 31.2206 90.4981 31.3634 90.4948 31.5098C90.4914 31.6563 90.4352 31.7966 90.3366 31.9049C90.201 32.0724 90.0451 32.2225 89.8726 32.3517C89.574 32.5735 89.2604 32.7743 88.9484 32.9784C88.431 33.3055 87.9344 33.6642 87.4613 34.0525C86.6567 34.7097 86.0562 35.5829 85.7305 36.5695C85.6123 36.9353 85.4834 37.2967 85.3588 37.6603C84.9367 38.8954 84.5146 40.1349 83.9894 41.333C83.744 41.8921 83.476 42.4436 83.1839 42.9812C82.9945 43.3152 82.779 43.6338 82.5394 43.9339C82.3996 44.098 82.242 44.246 82.0695 44.3753C81.9378 44.4824 81.7764 44.5465 81.6071 44.559C81.0856 44.6198 80.5572 44.5513 80.0684 44.3596C79.5796 44.1679 79.1455 43.8588 78.8044 43.4597C78.7407 43.3878 78.6824 43.3113 78.6298 43.2309C78.4664 42.9914 78.3811 42.7072 78.3855 42.4173C78.393 41.8531 78.393 41.2888 78.3855 40.7246C78.3737 39.9661 78.5088 39.2126 78.7834 38.5056C78.9633 38.0367 79.1647 37.5749 79.3597 37.1093C79.6492 36.4762 79.864 35.8115 79.9998 35.1287C80.0535 34.8102 80.0739 34.4843 80.1072 34.162C80.1145 34.0907 80.1076 34.0187 80.0869 33.95C80.0663 33.8813 80.0323 33.8174 79.9869 33.7619C79.7759 33.4709 79.5718 33.1712 79.3742 32.8732C79.2555 32.6933 79.1448 32.5064 79.0439 32.3157C78.9713 32.1778 78.9103 32.0341 78.8613 31.8861C78.7802 31.7208 78.7663 31.5305 78.8225 31.3552C78.8786 31.1799 79.0005 31.0332 79.1626 30.9458C79.4104 30.7768 79.6665 30.6203 79.93 30.4769C80.936 29.9036 81.7889 29.0962 82.4165 28.1231C82.7155 27.673 82.9778 27.1994 83.2005 26.707C83.381 26.3031 83.5469 25.8907 83.715 25.4804C84.0128 24.7337 84.3477 24.0024 84.7187 23.2893C85.1002 22.5534 85.5614 21.8617 86.094 21.2265C86.3904 20.8793 86.7185 20.5606 87.0741 20.2744C87.8528 19.6449 88.7836 19.2317 89.7727 19.0763C89.8653 19.0565 89.9566 19.031 90.0461 19L99.4124 19.0021Z" fill="black"/>
<path fill-rule="evenodd" clip-rule="evenodd" d="M94.586 54.8789C94.5618 54.8548 94.5425 54.8209 94.5129 54.807C94.4261 54.7651 94.3516 54.7016 94.2965 54.6224C94.2415 54.5433 94.2078 54.4513 94.1988 54.3553C94.1803 54.2373 94.1701 54.1182 94.1682 53.9988C94.1653 52.3805 94.1653 50.7628 94.1682 49.1456C94.1711 48.9903 94.1918 48.8359 94.2299 48.6854C94.2493 48.5965 94.2944 48.5154 94.3596 48.452C94.4249 48.3887 94.5073 48.346 94.5967 48.3293C94.7483 48.294 94.903 48.2739 95.0586 48.2692C95.5016 48.2616 95.9447 48.2649 96.3877 48.2692C96.4958 48.2722 96.6035 48.2832 96.7099 48.3019C96.961 48.3408 97.1902 48.4673 97.3567 48.6592C97.5233 48.851 97.6164 49.0956 97.6197 49.3497C97.6197 49.4216 97.6197 49.4936 97.6197 49.5645C97.6197 51.0266 97.6197 52.4888 97.6197 53.951C97.6212 54.0707 97.6165 54.1904 97.6057 54.3097C97.6039 54.4183 97.5705 54.5241 97.5095 54.614C97.4486 54.7039 97.3628 54.7742 97.2625 54.8161C97.2316 54.8334 97.2032 54.8549 97.1782 54.88L94.586 54.8789ZM96.4291 53.7104C96.4758 53.3731 96.4774 49.7809 96.4344 49.4759C96.2626 49.4269 96.0825 49.4141 95.9055 49.4383C95.7124 49.4049 95.5139 49.4279 95.3335 49.5043C95.3335 50.8559 95.3335 52.2085 95.3335 53.5621C95.3414 53.6156 95.3545 53.6681 95.3727 53.719C95.7248 53.7346 96.0773 53.7317 96.4291 53.7104Z" fill="black"/>
<path fill-rule="evenodd" clip-rule="evenodd" d="M124.122 54.8792C124.098 54.8534 124.08 54.819 124.052 54.804C123.961 54.7571 123.884 54.6866 123.829 54.5997C123.775 54.5129 123.745 54.4129 123.742 54.3105C123.728 54.1794 123.714 54.0479 123.713 53.9168C123.713 52.3573 123.713 50.7985 123.713 49.2403C123.716 49.0845 123.73 48.9291 123.755 48.7753C123.766 48.6604 123.815 48.5525 123.895 48.4693C123.975 48.3862 124.081 48.3327 124.196 48.3177C124.336 48.2894 124.479 48.2732 124.622 48.2694C125.077 48.263 125.535 48.2619 125.99 48.2694C126.145 48.2737 126.3 48.2929 126.451 48.3269C126.553 48.3464 126.645 48.3974 126.716 48.4726C126.787 48.5478 126.833 48.6433 126.846 48.7457C126.872 48.8876 126.884 49.0313 126.885 49.1754C126.885 50.7825 126.885 52.3893 126.885 53.9958C126.885 54.0436 126.88 54.0914 126.882 54.1402C126.898 54.2966 126.862 54.4539 126.779 54.5876C126.697 54.7214 126.572 54.8241 126.425 54.8797L124.122 54.8792ZM125.702 53.7154C125.711 53.608 125.721 53.55 125.721 53.4915C125.718 52.1729 125.714 50.8541 125.711 49.5352C125.709 49.5232 125.705 49.5118 125.698 49.5019C125.692 49.4917 125.684 49.4836 125.656 49.4482C125.409 49.4174 125.159 49.4289 124.916 49.482C124.903 49.5222 124.895 49.5636 124.891 49.6055C124.891 50.8891 124.891 52.1722 124.891 53.455C124.891 53.5141 124.898 53.5737 124.903 53.6327C124.904 53.645 124.908 53.657 124.913 53.6682C124.927 53.6847 124.941 53.7005 124.957 53.7154C125.041 53.7197 125.147 53.7283 125.253 53.7283C125.391 53.7262 125.533 53.7192 125.702 53.7154Z" fill="black"/>
<path fill-rule="evenodd" clip-rule="evenodd" d="M168.354 54.8793C168.317 54.8509 168.277 54.8251 168.236 54.802C168.149 54.761 168.074 54.6973 168.02 54.6174C167.965 54.5376 167.934 54.4446 167.928 54.3482C167.912 54.2176 167.905 54.0861 167.905 53.9546C167.905 53.3316 167.905 52.7079 167.905 52.0835C167.905 51.9637 167.911 51.8439 167.924 51.7248C167.924 51.5846 167.977 51.4497 168.072 51.3467C168.167 51.2437 168.298 51.1803 168.438 51.169C168.556 51.1491 168.676 51.1398 168.796 51.141C169.166 51.1378 169.539 51.141 169.909 51.141C169.992 51.141 170.074 51.1271 170.15 51.1206C170.208 50.5775 170.213 50.0301 170.166 49.4859C169.999 49.431 169.822 49.415 169.647 49.4392C169.471 49.4333 169.292 49.4451 169.103 49.4483C169.025 49.8205 169.103 50.1808 169.049 50.5476C168.688 50.5897 168.324 50.6001 167.961 50.5788C167.938 50.5225 167.921 50.4637 167.911 50.4037C167.909 49.9483 167.901 49.4907 167.914 49.0369C167.928 48.4929 168.111 48.2985 168.655 48.277C169.198 48.2556 169.758 48.2577 170.307 48.277C170.857 48.2964 171.049 48.4972 171.077 49.0568C171.083 49.1777 171.081 49.2969 171.081 49.4166C171.081 51.1054 171.081 52.7955 171.081 54.4867C171.081 54.6183 171.088 54.7499 171.095 54.8825L168.354 54.8793ZM169.87 53.7086C169.932 53.2537 169.929 52.7922 169.861 52.3381C169.609 52.2794 169.347 52.2842 169.097 52.352C169.047 52.8062 169.054 53.2648 169.118 53.7172C169.368 53.7357 169.62 53.7328 169.87 53.7086Z" fill="black"/>
<path fill-rule="evenodd" clip-rule="evenodd" d="M79.5312 54.8793C79.5312 54.3745 79.5382 53.8702 79.5382 53.3665C79.5382 51.9863 79.5382 50.6061 79.5382 49.2259C79.5378 49.0706 79.5509 48.9155 79.5774 48.7625C79.5906 48.6475 79.6425 48.5405 79.7246 48.459C79.8067 48.3775 79.9141 48.3264 80.0291 48.314C80.171 48.2887 80.3146 48.2738 80.4587 48.2695C80.9027 48.263 81.3464 48.263 81.79 48.2695C81.9341 48.2738 82.0777 48.2887 82.2196 48.314C82.3409 48.3288 82.4533 48.385 82.5379 48.4731C82.6225 48.5611 82.6742 48.6757 82.6842 48.7974C82.7037 48.9519 82.7109 49.1078 82.7057 49.2635C82.7085 50.7404 82.7085 52.2165 82.7057 53.6919C82.7057 54.0882 82.7024 54.4835 82.7003 54.8809H81.5489C81.5489 53.1789 81.5489 51.4774 81.5489 49.7764C81.5687 49.666 81.5497 49.5522 81.4952 49.4542C81.231 49.416 80.962 49.4273 80.702 49.4875C80.702 49.625 80.6961 49.756 80.6961 49.8854V54.4502C80.6961 54.5936 80.6869 54.7375 80.6821 54.8798L79.5312 54.8793Z" fill="black"/>
<path fill-rule="evenodd" clip-rule="evenodd" d="M49.9941 54.8791C50.035 53.9909 50.0756 53.1035 50.116 52.217C50.1504 51.4486 50.181 50.6811 50.2159 49.9143C50.2326 49.5308 50.2541 49.1474 50.2755 48.7629C50.282 48.7062 50.2915 48.6499 50.304 48.5942C50.3402 48.5772 50.3785 48.5652 50.4179 48.5583C51.2703 48.5561 52.1226 48.5561 52.9747 48.5583C53.0144 48.5606 53.054 48.5661 53.0928 48.5749C53.1091 48.5865 53.124 48.5998 53.1374 48.6146C53.1431 48.6251 53.1466 48.6366 53.1476 48.6485C53.153 48.7199 53.1605 48.7913 53.1605 48.8633C53.1605 49.6917 53.1587 50.52 53.1551 51.3481C53.1551 51.3707 53.1374 51.3922 53.1181 51.4384C52.4913 51.5715 51.8329 51.6097 51.1982 51.7412C51.1351 52.395 51.1331 53.0532 51.1923 53.7073C51.5463 53.7431 51.903 53.744 52.2572 53.71C52.3351 53.4415 52.2524 53.173 52.3179 52.9007C52.5726 52.8605 52.8313 52.8526 53.088 52.8771C53.1852 52.9587 53.1594 53.0607 53.1605 53.1531C53.1632 53.7293 53.1632 54.305 53.1642 54.8823L49.9941 54.8791ZM51.1659 50.5598C51.527 50.5791 51.8889 50.5733 52.2491 50.5426C52.3114 50.1886 52.3083 49.8262 52.24 49.4734C51.8821 49.4155 51.5168 49.4206 51.1606 49.4884C51.1426 49.8457 51.1444 50.2037 51.1659 50.5608V50.5598Z" fill="black"/>
<path fill-rule="evenodd" clip-rule="evenodd" d="M153.298 54.8792C153.256 54.5063 153.261 54.1296 153.312 53.7579C153.56 53.6806 153.827 53.7703 154.096 53.6978C154.107 53.6226 154.122 53.5533 154.125 53.4829C154.162 52.498 154.138 49.7914 154.089 49.4735C153.848 49.3849 153.577 49.4735 153.331 49.4101C153.253 49.042 153.249 48.662 153.32 48.2925C153.382 48.2845 153.453 48.2684 153.52 48.2662C154.633 48.234 156.095 48.2522 156.392 48.2995C156.468 48.6621 156.471 49.0361 156.401 49.3999C156.053 49.4869 155.688 49.3832 155.329 49.4654C155.316 49.5119 155.307 49.5596 155.302 49.6077C155.302 50.9627 155.302 52.3165 155.302 53.6929C155.673 53.767 156.033 53.6929 156.408 53.7466C156.426 53.8242 156.439 53.9028 156.448 53.9818C156.458 54.2799 156.462 54.5796 156.469 54.8798L153.298 54.8792Z" fill="black"/>
<path fill-rule="evenodd" clip-rule="evenodd" d="M109.065 54.8793C109.071 54.7467 109.083 54.6151 109.083 54.4835C109.083 52.6605 109.083 50.8367 109.083 49.0122V48.6068C109.358 48.5441 109.642 48.5305 109.921 48.5665C109.942 48.6507 109.955 48.7363 109.962 48.8227C109.967 49.1943 109.962 49.567 109.962 49.9386C109.962 51.0546 109.962 52.1705 109.962 53.2865C109.962 53.417 109.97 53.5464 109.975 53.6968C110.338 53.7378 110.705 53.7422 111.07 53.7097C111.117 53.337 111.063 52.9782 111.108 52.6066C111.47 52.5719 111.833 52.5629 112.196 52.5797C112.26 52.825 112.278 53.0798 112.25 53.3316C112.259 53.5953 112.255 53.8595 112.25 54.1226C112.25 54.3745 112.239 54.6264 112.233 54.8788L109.065 54.8793Z" fill="black"/>
<path fill-rule="evenodd" clip-rule="evenodd" d="M167.307 33.4106C167.09 33.3896 166.871 33.424 166.671 33.5105C166.227 33.6701 165.838 33.9538 165.551 34.3279C165.319 34.6192 165.125 34.939 164.974 35.2795C164.792 35.6844 164.63 36.0979 164.455 36.505C164.304 36.8573 164.153 37.2112 163.985 37.556C163.635 38.2067 163.078 38.7217 162.402 39.0188C162.293 39.0694 162.178 39.104 162.06 39.1214C161.93 39.1554 161.793 39.1419 161.672 39.0836C161.552 39.0252 161.456 38.9257 161.402 38.803C161.321 38.6423 161.265 38.4703 161.235 38.2928C161.185 37.9485 161.169 37.6 161.188 37.2525C161.235 36.3879 161.359 35.534 161.483 34.6791C161.516 34.453 161.545 34.2274 161.569 34.0008C161.579 33.9074 161.569 33.8123 161.569 33.7001C161.404 33.6647 161.232 33.676 161.072 33.7328C160.689 33.8404 160.339 34.0436 160.056 34.3236C159.773 34.6014 159.529 34.9165 159.331 35.2602C159.019 35.8004 158.756 36.3676 158.545 36.955C158.19 37.8981 157.919 38.8685 157.614 39.8287C157.384 40.5478 157.141 41.262 156.889 41.9741C156.735 42.4037 156.539 42.8174 156.305 43.2093C156.138 43.5012 155.933 43.7694 155.695 44.0068C155.519 44.1884 155.307 44.3315 155.073 44.4273C154.839 44.523 154.587 44.5693 154.334 44.5632C154.023 44.5717 153.711 44.5577 153.401 44.5213C153.086 44.4717 152.785 44.3545 152.519 44.1779C152.253 44.0012 152.029 43.7692 151.861 43.4977C151.6 43.093 151.427 42.6376 151.354 42.1616C151.206 41.2592 151.219 40.3376 151.394 39.4399C151.774 37.5762 152.554 35.8172 153.68 34.2844C154.348 33.3287 155.155 32.478 156.074 31.7603C156.891 31.1051 157.836 30.6293 158.849 30.364C159.292 30.2541 159.747 30.1982 160.204 30.1976C163.6 30.1933 166.997 30.1933 170.394 30.1976C170.767 30.1919 171.138 30.2462 171.494 30.3587C171.959 30.5072 172.382 30.7679 172.723 31.1177C173.065 31.4675 173.315 31.8958 173.452 32.365C173.632 32.9519 173.697 33.5682 173.642 34.1796C173.578 35.0057 173.4 35.819 173.113 36.5963C172.428 38.5859 171.397 40.439 170.067 42.0703C169.586 42.6707 169.034 43.2103 168.422 43.6771C168.032 43.9784 167.599 44.2185 167.137 44.3892C166.809 44.5075 166.464 44.5687 166.116 44.5702C165.854 44.5702 165.589 44.5739 165.325 44.5675C165.193 44.5616 165.063 44.5467 164.933 44.5229C164.82 44.5035 164.715 44.4487 164.635 44.3663C164.555 44.2839 164.502 44.1782 164.486 44.0643C164.476 44.0172 164.47 43.9694 164.468 43.9214C164.413 43.2383 164.481 42.551 164.669 41.892C164.855 41.3216 165.071 40.7642 165.301 40.2089C165.708 39.2235 166.122 38.2391 166.514 37.2461C166.801 36.5084 167.019 35.7456 167.166 34.9675C167.246 34.5305 167.298 34.0889 167.322 33.6453C167.322 33.5668 167.317 33.4885 167.307 33.4106Z" fill="black"/>
<path fill-rule="evenodd" clip-rule="evenodd" d="M45.6635 39.6737C45.2644 39.4015 44.8177 39.2068 44.3467 39.0996C43.8092 38.9706 43.2587 38.9039 42.706 38.9009C42.3102 38.8923 41.9144 38.917 41.5192 38.9245C40.8699 38.9347 40.2228 38.9514 39.5746 38.9492C39.1781 38.9454 38.7844 38.8825 38.4065 38.7624C38.0647 38.6636 37.75 38.4882 37.4862 38.2495C37.2223 38.0108 37.0164 37.7151 36.8841 37.3849C36.6775 36.8713 36.5584 36.3267 36.5318 35.7738C36.5167 35.5702 36.521 35.3656 36.5135 35.1615C36.5071 34.8241 36.5807 34.4899 36.7283 34.1863C36.8827 33.8471 37.0835 33.531 37.325 33.247C38.4752 31.8796 40.0006 30.8789 41.713 30.3685C42.1167 30.25 42.5356 30.1912 42.9563 30.194C46.486 30.194 50.0156 30.194 53.545 30.194C53.7734 30.1854 54.0009 30.2264 54.2119 30.3143C54.3724 30.3903 54.5156 30.4984 54.6327 30.632C54.7497 30.7655 54.8382 30.9216 54.8925 31.0907C54.9469 31.2597 54.966 31.4381 54.9487 31.6148C54.9314 31.7916 54.878 31.9629 54.7919 32.1182C54.6274 32.3998 54.3899 32.6319 54.1045 32.79C53.6745 33.0314 53.2044 33.193 52.7168 33.2669C51.8976 33.3924 51.0673 33.4298 50.2401 33.3786C49.3169 33.3421 48.3927 33.312 47.469 33.297C46.6888 33.2852 45.9087 33.3211 45.1329 33.4044C44.2453 33.5134 43.4116 33.889 42.742 34.4817C42.6516 34.5586 42.5736 34.6492 42.5111 34.7502C42.4936 34.7753 42.4818 34.8039 42.4765 34.834C42.4713 34.8642 42.4727 34.8951 42.4807 34.9247C42.4887 34.9542 42.503 34.9816 42.5228 35.005C42.5425 35.0284 42.5671 35.0472 42.5949 35.06C42.7201 35.1293 42.8546 35.1799 42.9944 35.2104C43.2882 35.2673 43.5851 35.3103 43.8837 35.3415C44.2178 35.3785 44.554 35.4 44.8885 35.4204C45.8597 35.4704 46.8277 35.5706 47.7885 35.7206C48.5129 35.8283 49.2221 36.0207 49.9017 36.2936C50.2916 36.4512 50.657 36.6635 50.9871 36.9241C51.3031 37.1752 51.5596 37.4933 51.738 37.8555C51.9164 38.2176 52.0122 38.6149 52.0187 39.0185C52.0548 39.8167 51.8187 40.6035 51.349 41.2499C50.9079 41.8809 50.37 42.4385 49.7551 42.9018C48.8993 43.5847 47.9163 44.0907 46.8632 44.3904C46.4466 44.5063 46.0163 44.5654 45.584 44.5661C41.9583 44.5661 38.3328 44.565 34.7075 44.5628C34.5279 44.5673 34.3486 44.548 34.1742 44.5054C34.0044 44.4632 33.8468 44.3819 33.7141 44.2678C33.5814 44.1538 33.4773 44.0102 33.4101 43.8487C33.3429 43.6871 33.3145 43.5121 33.3272 43.3376C33.3398 43.1631 33.3932 42.9939 33.483 42.8438C33.6233 42.6046 33.8159 42.4003 34.0464 42.2461C34.404 42.0018 34.8006 41.8201 35.2193 41.709C35.8084 41.5426 36.4144 41.4431 37.0258 41.4126C38.0697 41.3704 39.115 41.3807 40.1578 41.4432C41.1162 41.5072 42.0782 41.4953 43.0347 41.4078C43.5379 41.3627 44.0306 41.2376 44.4943 41.0372C44.7674 40.9249 45.0127 40.7545 45.2132 40.5377C45.4138 40.321 45.5646 40.0631 45.6554 39.7822C45.6617 39.7464 45.6643 39.71 45.6635 39.6737Z" fill="black"/>
<path fill-rule="evenodd" clip-rule="evenodd" d="M136.166 44.5639C134.942 44.5639 133.718 44.5682 132.494 44.5639C131.534 44.552 130.616 44.1668 129.935 43.4899C129.816 43.3715 129.712 43.2389 129.625 43.0951C129.513 42.923 129.455 42.7212 129.458 42.5157C129.458 41.6027 129.448 40.6898 129.463 39.7768C129.49 39.1882 129.6 38.6064 129.792 38.0492C130.273 36.5625 130.996 35.1653 131.931 33.914C132.562 33.0343 133.309 32.2441 134.152 31.565C134.692 31.1247 135.297 30.7686 135.944 30.5087C136.47 30.3008 137.03 30.194 137.596 30.194C140.308 30.1918 143.021 30.1918 145.735 30.194C146.084 30.1885 146.432 30.2328 146.768 30.3256C147.105 30.4168 147.419 30.5796 147.688 30.8028C147.956 31.026 148.174 31.3045 148.325 31.6193C148.547 32.0606 148.668 32.5459 148.679 33.0397C148.693 33.7486 148.699 34.457 148.676 35.1648C148.648 35.7772 148.532 36.3825 148.331 36.9617C147.549 39.4443 145.99 41.6096 143.883 43.1376C143.09 43.7253 142.188 44.1486 141.229 44.3824C140.751 44.5007 140.26 44.5616 139.767 44.5639H136.166ZM140.332 33.9414C139.623 33.9414 138.913 33.9468 138.206 33.9414C137.589 33.9335 136.988 34.1385 136.504 34.5219C136.077 34.8547 135.712 35.2599 135.425 35.719C134.653 36.8904 134.276 38.2785 134.351 39.6796C134.356 39.8483 134.399 40.0136 134.478 40.1629C134.605 40.4501 134.815 40.6933 135.079 40.8623C135.344 41.0313 135.653 41.1187 135.967 41.1135C137.107 41.1081 138.248 41.1108 139.388 41.1135C139.991 41.1155 140.583 40.9468 141.094 40.6269C141.482 40.385 141.833 40.089 142.137 39.7478C142.703 39.1084 143.144 38.3687 143.438 37.5669C143.738 36.7409 143.86 35.8607 143.795 34.9843C143.788 34.7359 143.692 34.4981 143.526 34.3132C143.36 34.1283 143.134 34.0082 142.887 33.9742C142.745 33.9597 142.599 33.9468 142.458 33.9462C141.747 33.9393 141.04 33.9414 140.332 33.9414Z" fill="black"/>
<path fill-rule="evenodd" clip-rule="evenodd" d="M62.1788 44.564C60.7749 44.564 59.3706 44.5607 57.9668 44.564C57.6782 44.568 57.393 44.5008 57.1366 44.3685C56.631 44.1146 56.1808 43.7628 55.8122 43.3336C55.5595 43.0553 55.426 42.6889 55.4406 42.3133C55.461 41.7376 55.4567 41.1613 55.4406 40.5851C55.4232 39.4911 55.6035 38.403 55.9728 37.3731C56.5749 35.5943 57.5447 33.9621 58.8191 32.5828C59.3543 31.9976 59.9668 31.4881 60.6396 31.0683C61.2363 30.6837 61.9017 30.418 62.5992 30.2859C62.9183 30.228 63.2416 30.1966 63.5659 30.1919C66.0004 30.1847 68.437 30.1847 70.8754 30.1919C71.5131 30.1842 72.1464 30.2977 72.7416 30.5265C73.0669 30.6515 73.3727 30.8222 73.6498 31.0334C73.9728 31.2756 74.2345 31.5901 74.4142 31.9516C74.5938 32.3132 74.6862 32.7118 74.6841 33.1155C74.7101 34.5223 74.4734 35.9216 73.9859 37.2415C73.3546 39.0607 72.358 40.7316 71.0575 42.1516C70.5228 42.7379 69.9109 43.2488 69.2386 43.6703C68.6504 44.0445 68 44.3102 67.3181 44.4549C66.9771 44.5253 66.6299 44.5612 66.2817 44.5623C64.9148 44.5613 63.5471 44.5618 62.1788 44.564ZM63.7361 41.1081C64.3124 41.1081 64.8875 41.1141 65.4643 41.1081C66.2755 41.1049 67.0618 40.8277 67.6957 40.3214C68.1018 40.0013 68.4521 39.616 68.7321 39.1813C69.4617 38.0556 69.8301 36.7339 69.788 35.393C69.7875 35.2055 69.7436 35.0207 69.6598 34.853C69.5759 34.6853 69.4544 34.5393 69.3046 34.4264C69.1342 34.2932 68.9439 34.1876 68.7408 34.1133C68.4016 33.9914 68.0431 33.9324 67.6828 33.9393C66.7822 33.9393 65.8821 33.9323 64.9826 33.9431C64.6828 33.9447 64.3837 33.9731 64.089 34.0279C63.0314 34.2542 62.0829 34.8349 61.4004 35.6738C60.718 36.5127 60.3425 37.5596 60.3362 38.641C60.3426 38.9896 60.3362 39.3392 60.3362 39.6856C60.3362 39.8177 60.3362 39.9492 60.3453 40.0813C60.3515 40.2322 60.3961 40.3789 60.4749 40.5076C60.5538 40.6363 60.6643 40.7426 60.7959 40.8165C60.9091 40.8839 61.0296 40.9379 61.1552 40.9777C61.4544 41.0673 61.7655 41.1105 62.0778 41.106C62.6342 41.1092 63.1862 41.1092 63.7378 41.1092L63.7361 41.1081Z" fill="black"/>
<path fill-rule="evenodd" clip-rule="evenodd" d="M115.412 41.1006L124.553 41.4711C124.732 41.7464 124.839 42.062 124.865 42.3893C124.891 42.7166 124.835 43.0452 124.702 43.3452C124.568 43.6452 124.362 43.9071 124.101 44.1071C123.841 44.3071 123.535 44.4388 123.21 44.4903C122.976 44.5395 122.737 44.5631 122.497 44.5607C118.764 44.5657 115.03 44.5676 111.297 44.5666C111.045 44.5697 110.795 44.5146 110.567 44.4055C110.035 44.1506 109.562 43.7879 109.177 43.3405C108.914 43.0542 108.775 42.676 108.79 42.2879C108.811 41.7729 108.809 41.2552 108.793 40.7407C108.771 39.5735 108.983 38.4138 109.417 37.3301C110.127 35.4361 111.232 33.7152 112.659 32.2819C113.174 31.7602 113.755 31.3073 114.387 30.9345C114.889 30.6246 115.442 30.4064 116.02 30.2901C116.326 30.232 116.636 30.2 116.947 30.1945C120.595 30.1884 124.244 30.1884 127.895 30.1945C128.075 30.1949 128.255 30.2129 128.432 30.2482C128.647 30.2841 128.842 30.3976 128.98 30.5673C129.118 30.7371 129.189 30.9513 129.18 31.1698C129.175 31.4469 129.101 31.7184 128.965 31.9597C128.758 32.3283 128.463 32.6395 128.106 32.8652C127.753 33.0969 127.357 33.2521 126.941 33.3206C126.668 33.3658 126.393 33.3947 126.117 33.407C124.895 33.4693 123.67 33.414 122.447 33.3807C121.811 33.363 121.175 33.3496 120.539 33.3437C119.483 33.3347 118.461 33.7174 117.67 34.4177C117.077 34.9268 116.576 35.5352 116.191 36.2157C115.695 37.0543 115.363 37.9799 115.214 38.9428C115.111 39.5126 115.126 40.0974 115.258 40.6613C115.297 40.8073 115.359 40.948 115.412 41.1006Z" fill="black"/>
<path fill-rule="evenodd" clip-rule="evenodd" d="M107.09 33.3684C106.905 33.4554 106.735 33.5435 106.558 33.6149C105.965 33.8436 105.351 34.0152 104.725 34.1273C104.02 34.2696 103.315 34.4087 102.611 34.5628C102.237 34.6488 101.874 34.7791 101.53 34.9511C100.762 35.3151 100.157 35.9524 99.8343 36.7383C99.6143 37.2841 99.4722 37.8581 99.4122 38.4434C99.3511 39.1132 99.3282 39.7859 99.3434 40.4583C99.3338 40.6278 99.3804 40.7957 99.4761 40.936C99.5718 41.0762 99.7111 41.1809 99.8724 41.2338C100.117 41.3326 100.377 41.3919 100.64 41.4094C101.143 41.4465 101.648 41.4567 102.152 41.44C102.991 41.4186 103.831 41.4132 104.672 41.4148C105.033 41.4211 105.391 41.4802 105.735 41.5904C105.804 41.6087 105.867 41.644 105.919 41.6929C105.971 41.7419 106.01 41.803 106.033 41.8707C106.176 42.2165 106.226 42.5941 106.177 42.9652C106.122 43.363 105.922 43.7266 105.615 43.9856C105.326 44.2402 104.974 44.4136 104.595 44.4882C104.372 44.5362 104.145 44.5614 103.917 44.5634C101.179 44.5684 98.4418 44.5699 95.705 44.5677C95.4039 44.5665 95.1058 44.5074 94.827 44.3937C94.1648 44.1324 93.582 43.7032 93.1359 43.1483C93.0286 43.0186 92.9384 42.8757 92.8674 42.723C92.7947 42.5854 92.7517 42.4341 92.7412 42.2789C92.7336 41.7392 92.7412 41.1984 92.7659 40.6608C92.8012 40.1686 92.9192 39.6859 93.1149 39.2328C93.276 38.8317 93.4511 38.4375 93.6214 38.0395C93.8714 37.5066 94.0389 36.9388 94.1181 36.3554C94.16 35.9387 94.1573 35.5171 94.1573 35.0982C94.148 35.0035 94.1091 34.914 94.0461 34.8426C93.937 34.715 93.821 34.5935 93.6987 34.4785C93.5102 34.2921 93.3163 34.1133 93.1316 33.9248C92.9437 33.7381 92.79 33.52 92.6773 33.2804C92.5948 33.112 92.5618 32.9237 92.5819 32.7374C92.6021 32.551 92.6746 32.3741 92.7911 32.2272C92.9513 32.0161 93.147 31.8344 93.3695 31.6902C93.7044 31.4558 94.0681 31.2656 94.4516 31.1242C95.2406 30.8247 95.9471 30.3418 96.5127 29.7155C96.7856 29.4291 97.0659 29.1499 97.3537 28.8778C97.6002 28.6478 97.8879 28.4665 98.2017 28.3434C98.4962 28.2374 98.8077 28.1866 99.1206 28.1936C99.8413 28.19 100.562 28.19 101.282 28.1936C101.414 28.195 101.546 28.204 101.677 28.2204C101.858 28.2316 102.031 28.3 102.172 28.4158C102.312 28.5316 102.412 28.6888 102.457 28.8649C102.505 29.026 102.54 29.1898 102.579 29.3525C102.612 29.4932 102.639 29.635 102.677 29.773C102.74 30.0188 102.864 30.2446 103.038 30.4295C103.212 30.6144 103.429 30.7523 103.671 30.8304C103.966 30.9296 104.271 30.9993 104.581 31.0383C105.021 31.0918 105.465 31.1162 105.909 31.1113C106.089 31.1158 106.267 31.1348 106.444 31.1682C106.545 31.1862 106.64 31.2308 106.719 31.2975C106.797 31.3642 106.857 31.4506 106.891 31.5479C106.953 31.6907 106.997 31.8411 107.02 31.9952C107.085 32.4499 107.109 32.9096 107.09 33.3684Z" fill="black"/>
<path fill-rule="evenodd" clip-rule="evenodd" d="M59.9351 23.8928H80.3573C80.5125 23.8928 80.6704 23.889 80.8251 23.8992C81.0243 23.9067 81.2186 23.9633 81.3907 24.0639C81.5628 24.1645 81.7074 24.3061 81.8116 24.476C81.9968 24.7937 82.0872 25.1577 82.0722 25.5251C82.0571 25.8925 81.9373 26.248 81.7268 26.5495C81.615 26.6991 81.4717 26.8223 81.3069 26.9102C81.1422 26.9981 80.96 27.0486 80.7735 27.058C80.6785 27.0656 80.5813 27.0618 80.4851 27.0618C66.7622 27.0618 53.0398 27.0618 39.3179 27.0618C39.1618 27.067 39.0057 27.0583 38.8512 27.036C38.678 27.0092 38.5132 26.9434 38.3693 26.8434C38.2253 26.7435 38.106 26.6121 38.0204 26.4593C37.8389 26.1663 37.742 25.8289 37.7403 25.4843C37.7386 25.1397 37.8322 24.8013 38.0107 24.5066C38.1108 24.3196 38.2603 24.1638 38.4431 24.0562C38.6258 23.9486 38.8346 23.8933 39.0467 23.8965C39.1782 23.8933 39.3103 23.8965 39.4425 23.8965L59.9351 23.8928Z" fill="black"/>
<path fill-rule="evenodd" clip-rule="evenodd" d="M141.48 54.5832H138.684C138.624 54.3027 138.608 54.0147 138.637 53.7293C138.621 53.4502 138.627 53.1702 138.656 52.8921C138.93 52.8514 139.208 52.8501 139.483 52.8883C139.519 53.02 139.532 53.1572 139.519 53.2933C139.525 53.4227 139.526 53.5521 139.531 53.6966C139.792 53.7374 140.058 53.7413 140.321 53.7084C140.482 53.1702 140.59 52.6174 140.643 52.0581C140.582 52.0375 140.518 52.0236 140.453 52.0167C139.985 52.013 139.517 52.0167 139.049 52.0114C138.93 52.0114 138.812 52.0049 138.673 52.0006C138.654 51.9182 138.64 51.8343 138.634 51.7498C138.632 50.7778 138.632 49.8056 138.634 48.8332C138.639 48.7523 138.649 48.6718 138.664 48.5921C138.701 48.576 138.739 48.5646 138.779 48.5583C139.632 48.5561 140.484 48.5561 141.337 48.5583C141.387 48.5627 141.437 48.5708 141.486 48.5824C141.502 48.6523 141.514 48.7229 141.522 48.794C141.567 49.9003 141.54 54.2513 141.48 54.5832ZM140.614 51.129C140.654 50.5801 140.651 50.0288 140.605 49.4803C140.255 49.4173 139.897 49.4188 139.548 49.4846C139.515 49.6592 139.506 49.8372 139.521 50.0141C139.517 50.2053 139.517 50.3965 139.521 50.5877C139.505 50.7694 139.517 50.9524 139.556 51.1306C139.911 51.1435 140.251 51.1451 140.614 51.129Z" fill="black"/>
<path fill-rule="evenodd" clip-rule="evenodd" d="M65.8236 53.724C66.1788 53.7369 66.5345 53.731 66.8891 53.7062C66.9616 53.4377 66.8837 53.1692 66.946 52.8964C67.2083 52.856 67.4746 52.849 67.7386 52.8755C67.7613 52.916 67.7769 52.9602 67.7848 53.006C67.7848 53.4984 67.7848 53.9893 67.7811 54.4817C67.7766 54.5064 67.7681 54.5302 67.7558 54.5521C67.7485 54.5593 67.7406 54.5659 67.7322 54.5719C67.7221 54.5782 67.7107 54.5821 67.6989 54.5832L65.1432 54.595C65.0835 54.595 65.0245 54.5854 64.9697 54.5805C64.8768 54.4677 64.9117 54.3442 64.9117 54.2288C64.9085 53.2439 64.9117 52.26 64.9117 51.2751V48.6066C64.9592 48.5838 65.0096 48.5675 65.0615 48.5583C65.9143 48.5561 66.767 48.5561 67.6194 48.5583C67.663 48.563 67.7061 48.5715 67.7483 48.5835C67.805 49.143 67.8077 49.7066 67.7564 50.2666C67.4849 50.3098 67.2083 50.3098 66.9368 50.2666C66.9277 50.0023 66.9213 49.7537 66.9116 49.4959C66.7307 49.4314 66.5365 49.413 66.3466 49.4422C66.1686 49.4185 65.9875 49.4311 65.8144 49.4793C65.8006 49.5138 65.7911 49.5498 65.786 49.5867C65.786 50.9189 65.786 52.2514 65.786 53.5843C65.794 53.632 65.8066 53.6787 65.8236 53.724Z" fill="black"/>
<path fill-rule="evenodd" clip-rule="evenodd" d="M36.4934 49.4762C36.1315 49.3806 35.7663 49.4837 35.4194 49.4102C35.3484 49.0412 35.3447 48.6624 35.4086 48.2921C35.4631 48.2808 35.5181 48.2728 35.5735 48.2679C36.3731 48.2367 38.1991 48.2577 38.4794 48.299C38.5515 48.6633 38.5546 49.0378 38.4885 49.4032C38.1443 49.4837 37.7807 49.3919 37.4214 49.4628C37.3802 49.5886 37.3679 49.722 37.3855 49.8532C37.3855 51.2928 37.3855 52.7317 37.3855 54.1699C37.3855 54.2988 37.3763 54.4282 37.3704 54.5786C37.1025 54.6039 36.8328 54.6039 36.5649 54.5786C36.5082 54.4569 36.4909 54.3206 36.5155 54.1887C36.5117 53.0142 36.5155 51.8381 36.5155 50.6631C36.5155 50.3634 36.5155 50.0637 36.5155 49.7641C36.5112 49.6717 36.5004 49.5793 36.4934 49.4762Z" fill="black"/>
<path fill-rule="evenodd" clip-rule="evenodd" d="M32.8339 35.5082C32.8946 35.7821 32.9413 36.0168 32.9982 36.2488C33.0136 36.3065 33.0143 36.3672 33.0002 36.4252C32.9862 36.4833 32.9578 36.5369 32.9176 36.5812C32.6362 36.9399 32.3591 37.3029 32.081 37.6638C30.3983 39.8377 28.7172 42.0118 27.0377 44.1861C26.3932 45.036 25.4715 45.6334 24.4325 45.8745C22.8359 46.2623 21.2356 46.6328 19.6368 47.0098L9.34139 49.4361C8.94471 49.5296 8.54748 49.6223 8.14972 49.7143C7.85494 49.7762 7.551 49.7808 7.25449 49.7277C6.86783 49.6692 6.77116 49.4726 6.94033 49.1144C6.99941 48.9964 7.06522 48.8818 7.13742 48.7713C9.07074 45.6354 11.0041 42.5004 12.9374 39.3662C13.0947 39.1101 13.2478 38.8523 13.3998 38.5934C13.6078 38.2281 13.8625 37.8914 14.1575 37.5919C14.7756 36.9568 15.6054 36.5709 16.4893 36.5076C17.2181 36.4512 17.9495 36.4147 18.6793 36.3674C19.2421 36.3315 19.8071 36.2912 20.3672 36.2547C20.7866 36.2278 21.205 36.201 21.6249 36.1752C22.6066 36.1177 23.5894 36.0635 24.5711 36.0033C25.505 35.9453 26.4384 35.8804 27.3717 35.8191C27.7795 35.7923 28.1869 35.7667 28.594 35.7423C29.5757 35.6843 30.5576 35.6271 31.5396 35.5705C31.8393 35.5522 32.1384 35.527 32.4381 35.5093C32.5562 35.5023 32.6728 35.5082 32.8339 35.5082Z" fill="#FFFF00"/>
<path fill-rule="evenodd" clip-rule="evenodd" d="M14.9917 27.851C15.096 27.9264 15.2248 27.9599 15.3526 27.945C16.3003 27.9729 17.248 28 18.1956 28.0261C19.2625 28.054 20.3302 28.0819 21.3985 28.1099C22.1299 28.1308 22.8614 28.1523 23.5928 28.1781C23.8678 28.1883 24.1449 28.2065 24.4188 28.2318C24.5373 28.2443 24.6531 28.2755 24.7619 28.3241C25.0674 28.469 25.324 28.6998 25.5002 28.9884C25.6764 29.277 25.7646 29.6107 25.7538 29.9487C25.7431 30.2242 25.7323 30.5002 25.7237 30.7757C25.7125 31.1312 25.7017 31.1446 25.3586 31.1516C24.7098 31.1607 24.0622 31.1645 23.4134 31.1758C21.9617 31.1998 20.5099 31.2254 19.0581 31.2526C17.7864 31.2762 16.5154 31.3004 15.2452 31.3251C14.5379 31.339 13.8301 31.3433 13.1228 31.3745C11.9841 31.4148 10.8949 31.8504 10.0424 32.6064C9.76584 32.8547 9.50319 33.1181 9.25566 33.3953C9.13802 33.5315 9.03639 33.6807 8.95276 33.84C8.00222 35.5481 7.05347 37.2579 6.1065 38.9692C5.89598 39.3451 5.68224 39.721 5.46904 40.097C5.42983 40.1668 5.38258 40.2307 5.29719 40.3623C5.28806 40.1942 5.27785 40.1034 5.27947 40.0132C5.29558 39.0541 5.31599 38.0938 5.33317 37.1341C5.34338 36.4736 5.34552 35.8136 5.35465 35.1536C5.37935 33.4132 5.40513 31.6731 5.43198 29.9331C5.43616 29.5959 5.50546 29.2628 5.63606 28.9519C5.72928 28.6968 5.88484 28.4691 6.08857 28.2895C6.2923 28.1099 6.53772 27.984 6.80249 27.9235C6.95535 27.8927 7.1111 27.8784 7.26702 27.8811C7.81856 27.8779 8.37116 27.8843 8.92269 27.8854C9.05265 27.8854 9.1837 27.8757 9.32762 27.8698C9.35269 27.786 9.37224 27.7006 9.38615 27.6142C9.39528 27.495 9.39099 27.3741 9.39099 27.2544C9.39314 25.7056 9.39546 24.1569 9.39797 22.6085C9.39351 22.4767 9.40232 22.3449 9.42428 22.2149C9.45194 22.0284 9.54535 21.8579 9.68764 21.7342C9.82994 21.6105 10.0118 21.5418 10.2003 21.5404C10.5119 21.5294 10.8239 21.5358 11.1347 21.5597C11.6014 21.5887 12.0676 21.6381 12.531 21.6719C13.01 21.7068 13.4891 21.7331 13.9676 21.7637C13.9799 21.7637 13.9923 21.7637 14.0036 21.7637C14.2227 21.7601 14.4352 21.8387 14.5991 21.9842C14.763 22.1297 14.8663 22.3314 14.8886 22.5494C14.9072 22.68 14.9157 22.8118 14.9138 22.9436C14.9187 23.8442 14.9176 24.7443 14.9256 25.6449C14.931 26.3044 14.9477 26.9644 14.9632 27.6244C14.9678 27.7005 14.9773 27.7762 14.9917 27.851Z" fill="#FFC001"/>
</svg>
