<svg width="35" height="35" viewBox="0 0 35 35" fill="none" xmlns="http://www.w3.org/2000/svg">
<path d="M17.5 34.999C27.165 34.999 35 27.164 35 17.499C35 7.83404 27.165 -0.000976562 17.5 -0.000976562C7.83502 -0.000976562 0 7.83404 0 17.499C0 27.164 7.83502 34.999 17.5 34.999Z" fill="url(#paint0_linear_58_2096)"/>
<path d="M17.6427 12.1458C16.582 12.1458 15.5451 12.4603 14.6632 13.0496C13.7812 13.6389 13.0938 14.4765 12.6879 15.4565C12.282 16.4364 12.1758 17.5148 12.3827 18.5551C12.5897 19.5954 13.1004 20.551 13.8505 21.301C14.6005 22.051 15.5561 22.5618 16.5964 22.7688C17.6367 22.9757 18.7151 22.8695 19.695 22.4636C20.675 22.0577 21.5126 21.3703 22.1019 20.4883C22.6912 19.6064 23.0057 18.5695 23.0057 17.5088C23.0069 16.8042 22.869 16.1063 22.5999 15.4551C22.3308 14.8039 21.9358 14.2122 21.4375 13.7139C20.9393 13.2157 20.3476 12.8207 19.6964 12.5516C19.0452 12.2825 18.3473 12.1446 17.6427 12.1458ZM17.6427 20.9958C16.953 20.9958 16.2788 20.7913 15.7054 20.4081C15.132 20.025 14.685 19.4804 14.4211 18.8432C14.1572 18.2061 14.0881 17.5049 14.2227 16.8285C14.3572 16.1521 14.6893 15.5308 15.177 15.0431C15.6647 14.5555 16.286 14.2234 16.9624 14.0888C17.6388 13.9543 18.3399 14.0233 18.9771 14.2872C19.6143 14.5512 20.1589 14.9981 20.542 15.5715C20.9252 16.145 21.1297 16.8191 21.1297 17.5088C21.1278 18.433 20.7598 19.3187 20.1063 19.9721C19.4527 20.6255 18.5668 20.9932 17.6427 20.9948V20.9958ZM24.4767 11.9248C24.4767 12.1722 24.4033 12.4141 24.2659 12.6198C24.1284 12.8256 23.933 12.9859 23.7044 13.0806C23.4758 13.1753 23.2243 13.2 22.9816 13.1518C22.739 13.1035 22.5161 12.9844 22.3411 12.8094C22.1661 12.6344 22.047 12.4115 21.9987 12.1689C21.9505 11.9262 21.9752 11.6747 22.0699 11.4461C22.1646 11.2175 22.3249 11.0221 22.5307 10.8846C22.7364 10.7472 22.9783 10.6738 23.2257 10.6738C23.3901 10.6734 23.5529 10.7055 23.7049 10.7682C23.8569 10.831 23.9949 10.9231 24.1112 11.0393C24.2274 11.1556 24.3195 11.2936 24.3823 11.4456C24.445 11.5976 24.4771 11.7604 24.4767 11.9248V11.9248ZM28.0287 13.1948C28.0631 11.5685 27.456 9.994 26.3387 8.81181C25.1534 7.69908 23.5801 7.09368 21.9547 7.1248C20.2277 7.0248 15.0547 7.0248 13.3247 7.1248C11.6997 7.09244 10.1265 7.69723 8.94169 8.8098C7.82786 9.9932 7.22222 11.566 7.25469 13.1908C7.15469 14.9178 7.15469 20.0908 7.25469 21.8208C7.22023 23.4471 7.82733 25.0216 8.94469 26.2038C10.1297 27.3166 11.7023 27.923 13.3277 27.8938C15.0547 27.9938 20.2277 27.9938 21.9577 27.8938C23.584 27.9283 25.1585 27.3212 26.3407 26.2038C27.4543 25.0192 28.0607 23.4463 28.0307 21.8208C28.1267 20.0948 28.1267 14.9248 28.0287 13.1958V13.1948ZM25.7977 23.6748C25.6202 24.1247 25.3521 24.5333 25.0101 24.8753C24.6682 25.2172 24.2596 25.4853 23.8097 25.6628C22.4327 26.2088 19.1657 26.0828 17.6437 26.0828C16.1217 26.0828 12.8497 26.2038 11.4777 25.6628C11.0276 25.4854 10.6188 25.2174 10.2767 24.8754C9.93452 24.5334 9.66631 24.1248 9.48869 23.6748C8.94269 22.2978 9.06869 19.0308 9.06869 17.5088C9.06869 15.9868 8.94769 12.7148 9.48869 11.3428C9.66631 10.8928 9.93452 10.4842 10.2767 10.1422C10.6188 9.80021 11.0276 9.5322 11.4777 9.35481C12.8547 8.80881 16.1217 8.9348 17.6437 8.9348C19.1657 8.9348 22.4377 8.81381 23.8097 9.35481C24.2596 9.53231 24.6682 9.80037 25.0101 10.1424C25.3521 10.4843 25.6202 10.8929 25.7977 11.3428C26.3437 12.7198 26.2177 15.9868 26.2177 17.5088C26.2177 19.0308 26.3437 22.3018 25.7977 23.6748Z" fill="white"/>
<defs>
<linearGradient id="paint0_linear_58_2096" x1="17.5" y1="-0.000976563" x2="17.5" y2="34.999" gradientUnits="userSpaceOnUse">
<stop stop-color="#D8307B"/>
<stop offset="1" stop-color="#F39259"/>
</linearGradient>
</defs>
</svg>
