<svg width="36" height="35" viewBox="0 0 36 35" fill="none" xmlns="http://www.w3.org/2000/svg">
<path d="M18 35C27.9411 35 36 27.165 36 17.5C36 7.83502 27.9411 0 18 0C8.05887 0 0 7.83502 0 17.5C0 27.165 8.05887 35 18 35Z" fill="#43BCEB"/>
<path d="M26.8414 13.2367C26.8548 13.4226 26.8548 13.6086 26.8548 13.7945C26.8548 19.4656 22.5242 26 14.6092 26C12.1707 26 9.90547 25.2961 8 24.0742C8.34646 24.1141 8.67955 24.1273 9.03934 24.1273C11.0514 24.1273 12.9036 23.45 14.3826 22.2946C12.4905 22.2547 10.9048 21.0195 10.3585 19.3195C10.625 19.3593 10.8915 19.3859 11.1713 19.3859C11.5578 19.3859 11.9442 19.3328 12.304 19.2399C10.3319 18.8414 8.85276 17.1148 8.85276 15.0297V14.9766C9.42571 15.2953 10.092 15.4945 10.7982 15.5211C9.63891 14.7507 8.87942 13.4359 8.87942 11.9484C8.87942 11.1515 9.09258 10.4211 9.4657 9.78357C11.5844 12.3867 14.769 14.0867 18.3401 14.2726C18.2735 13.9539 18.2335 13.6219 18.2335 13.2898C18.2335 10.9258 20.1523 9 22.5374 9C23.7766 9 24.8959 9.51797 25.6821 10.3547C26.6548 10.1688 27.5875 9.81015 28.4137 9.31875C28.0939 10.3149 27.4143 11.1516 26.5216 11.6828C27.3877 11.5899 28.2272 11.3508 29 11.0188C28.4138 11.8687 27.6809 12.6257 26.8414 13.2367V13.2367Z" fill="white"/>
</svg>
