<svg width="36" height="35" viewBox="0 0 36 35" fill="none" xmlns="http://www.w3.org/2000/svg">
<path d="M18 34.999C27.9411 34.999 36 27.164 36 17.499C36 7.83404 27.9411 -0.000976562 18 -0.000976562C8.05887 -0.000976562 0 7.83404 0 17.499C0 27.164 8.05887 34.999 18 34.999Z" fill="#1877F2"/>
<path d="M23.3705 19.193L24.0315 14.908H19.9175V12.127C19.8888 11.8071 19.9324 11.4849 20.045 11.1842C20.1577 10.8834 20.3365 10.6118 20.5683 10.3896C20.8001 10.1673 21.0789 9.99994 21.3841 9.89997C21.6893 9.8 22.0131 9.76993 22.3315 9.812H24.2015V6.164C23.1043 5.98693 21.9957 5.89034 20.8845 5.875C17.4985 5.875 15.2845 7.927 15.2845 11.642V14.908H11.5215V19.193H15.2855V29.551H19.9175V19.193H23.3705Z" fill="white"/>
</svg>
