<svg width="36" height="35" viewBox="0 0 36 35" fill="none" xmlns="http://www.w3.org/2000/svg">
<path d="M18 34.999C27.9411 34.999 36 27.164 36 17.499C36 7.83404 27.9411 -0.000976562 18 -0.000976562C8.05887 -0.000976562 0 7.83404 0 17.499C0 27.164 8.05887 34.999 18 34.999Z" fill="#FF0000"/>
<path d="M27.5574 12.8972C27.4445 12.4723 27.2219 12.0845 26.9119 11.7726C26.602 11.4608 26.2156 11.2358 25.7914 11.1202C24.2334 10.7002 17.9914 10.7002 17.9914 10.7002C17.9914 10.7002 11.7454 10.7002 10.1914 11.1202C9.7657 11.2345 9.37763 11.459 9.06622 11.7709C8.7548 12.0829 8.53102 12.4713 8.41739 12.8972C7.86087 16.0992 7.86087 19.3732 8.41739 22.5752C8.53109 22.9967 8.7544 23.3806 9.06459 23.6878C9.37478 23.995 9.7608 24.2146 10.1834 24.3242C11.7414 24.7442 17.9834 24.7442 17.9834 24.7442C17.9834 24.7442 24.2294 24.7442 25.7834 24.3242C26.206 24.2146 26.592 23.995 26.9022 23.6878C27.2124 23.3806 27.4357 22.9967 27.5494 22.5752C28.1059 19.3732 28.1059 16.0992 27.5494 12.8972H27.5574ZM15.9444 20.7032V14.7632L21.1654 17.7332L15.9444 20.7032Z" fill="white"/>
</svg>
