<svg width="921" height="155" viewBox="0 0 921 155" fill="none" xmlns="http://www.w3.org/2000/svg">
<path d="M23.1094 100.938H63.4219V120H0.140625V6.25H23.1094V100.938ZM73.0312 75C73.0312 62.1875 76.0521 52.1354 82.0938 44.8438C88.1354 37.5521 96.4948 33.9062 107.172 33.9062C117.953 33.9062 126.365 37.5521 132.406 44.8438C138.448 52.1354 141.469 62.2396 141.469 75.1562V80.5469C141.469 93.4115 138.474 103.464 132.484 110.703C126.495 117.943 118.109 121.562 107.328 121.562C96.4948 121.562 88.0573 117.943 82.0156 110.703C76.026 103.411 73.0312 93.3073 73.0312 80.3906V75ZM95.2188 80.5469C95.2188 95.651 99.2552 103.203 107.328 103.203C114.776 103.203 118.786 96.901 119.359 84.2969L119.438 75C119.438 67.2917 118.37 61.5885 116.234 57.8906C114.099 54.1406 111.078 52.2656 107.172 52.2656C103.422 52.2656 100.479 54.1406 98.3438 57.8906C96.2604 61.5885 95.2188 67.2917 95.2188 75V80.5469ZM178.578 35.4688V124.531C178.578 134.167 176.365 141.51 171.938 146.562C167.51 151.615 161.234 154.141 153.109 154.141C149.672 154.141 146.339 153.698 143.109 152.812L143.031 134.766C145.479 135.234 147.432 135.469 148.891 135.469C153.786 135.469 156.286 132.031 156.391 125.156V35.4688H178.578ZM154.906 13.5938C154.906 10.1562 156 7.34375 158.188 5.15625C160.375 2.96875 163.292 1.875 166.938 1.875C170.583 1.875 173.5 2.96875 175.688 5.15625C177.875 7.34375 178.969 10.1562 178.969 13.5938C178.969 16.9792 177.875 19.7917 175.688 22.0312C173.552 24.2708 170.635 25.3906 166.938 25.3906C163.24 25.3906 160.297 24.2708 158.109 22.0312C155.974 19.7917 154.906 16.9792 154.906 13.5938ZM217.875 120H195.688V35.4688H217.875V120ZM194.672 13.5938C194.672 10.1562 195.766 7.34375 197.953 5.15625C200.141 2.96875 203.057 1.875 206.703 1.875C210.349 1.875 213.266 2.96875 215.453 5.15625C217.641 7.34375 218.734 10.1562 218.734 13.5938C218.734 16.9792 217.641 19.7917 215.453 22.0312C213.318 24.2708 210.401 25.3906 206.703 25.3906C203.005 25.3906 200.062 24.2708 197.875 22.0312C195.74 19.7917 194.672 16.9792 194.672 13.5938ZM255.219 35.4688L255.844 43.8281C260.844 37.2135 267.38 33.9062 275.453 33.9062C289.984 33.9062 297.458 44.0885 297.875 64.4531V120H275.688V66.0938C275.688 61.3021 274.958 57.8385 273.5 55.7031C272.094 53.5156 269.594 52.4219 266 52.4219C261.99 52.4219 258.865 54.4792 256.625 58.5938V120H234.438V35.4688H255.219ZM335.297 42.8906C340.089 36.901 345.974 33.9062 352.953 33.9062C360.661 33.9062 366.521 36.6146 370.531 42.0312C374.542 47.4479 376.573 55.5208 376.625 66.25V120H354.438V66.4844C354.438 61.5365 353.656 57.9688 352.094 55.7812C350.583 53.5417 348.109 52.4219 344.672 52.4219C340.661 52.4219 337.536 54.2708 335.297 57.9688V120H313.188V0H335.297V42.8906ZM432.641 120C432.016 118.698 431.391 116.51 430.766 113.438C426.807 118.854 421.443 121.562 414.672 121.562C407.589 121.562 401.703 119.219 397.016 114.531C392.38 109.844 390.062 103.776 390.062 96.3281C390.062 87.474 392.875 80.625 398.5 75.7812C404.177 70.9375 412.328 68.4635 422.953 68.3594H429.672V61.5625C429.672 57.7604 429.021 55.0781 427.719 53.5156C426.417 51.9531 424.516 51.1719 422.016 51.1719C416.495 51.1719 413.734 54.401 413.734 60.8594H391.625C391.625 53.0469 394.542 46.6146 400.375 41.5625C406.26 36.4583 413.682 33.9062 422.641 33.9062C431.911 33.9062 439.073 36.3281 444.125 41.1719C449.229 45.9635 451.781 52.8385 451.781 61.7969V101.562C451.885 108.854 452.927 114.557 454.906 118.672V120H432.641ZM419.594 104.219C422.042 104.219 424.125 103.724 425.844 102.734C427.562 101.745 428.839 100.573 429.672 99.2188V81.6406H424.359C420.609 81.6406 417.641 82.8385 415.453 85.2344C413.318 87.6302 412.25 90.8333 412.25 94.8438C412.25 101.094 414.698 104.219 419.594 104.219ZM542.797 88.75L561.938 6.25H587.562L554.75 120H530.844L498.266 6.25H523.734L542.797 88.75ZM620.375 120H598.188V35.4688H620.375V120ZM597.172 13.5938C597.172 10.1562 598.266 7.34375 600.453 5.15625C602.641 2.96875 605.557 1.875 609.203 1.875C612.849 1.875 615.766 2.96875 617.953 5.15625C620.141 7.34375 621.234 10.1562 621.234 13.5938C621.234 16.9792 620.141 19.7917 617.953 22.0312C615.818 24.2708 612.901 25.3906 609.203 25.3906C605.505 25.3906 602.562 24.2708 600.375 22.0312C598.24 19.7917 597.172 16.9792 597.172 13.5938ZM679.203 56.7969L671.859 56.1719C665.818 56.1719 661.729 58.8281 659.594 64.1406V120H637.406V35.4688H658.266L658.891 44.6094C662.38 37.474 667.198 33.9062 673.344 33.9062C675.844 33.9062 677.875 34.2448 679.438 34.9219L679.203 56.7969ZM720.219 14.6875V35.4688H731.547V52.1094H720.219V94.0625C720.219 97.3958 720.661 99.6875 721.547 100.938C722.484 102.188 724.255 102.812 726.859 102.812C728.995 102.812 730.74 102.63 732.094 102.266L731.938 119.453C728.188 120.859 724.125 121.562 719.75 121.562C705.479 121.562 698.266 113.385 698.109 97.0312V52.1094H688.344V35.4688H698.109V14.6875H720.219ZM785.297 112.266C780.714 118.464 774.568 121.562 766.859 121.562C759.099 121.562 753.214 118.906 749.203 113.594C745.193 108.229 743.188 100.443 743.188 90.2344V35.4688H765.297V90.7812C765.401 99.0104 768.135 103.125 773.5 103.125C778.552 103.125 782.198 100.938 784.438 96.5625V35.4688H806.703V120H785.922L785.297 112.266ZM862.641 120C862.016 118.698 861.391 116.51 860.766 113.438C856.807 118.854 851.443 121.562 844.672 121.562C837.589 121.562 831.703 119.219 827.016 114.531C822.38 109.844 820.062 103.776 820.062 96.3281C820.062 87.474 822.875 80.625 828.5 75.7812C834.177 70.9375 842.328 68.4635 852.953 68.3594H859.672V61.5625C859.672 57.7604 859.021 55.0781 857.719 53.5156C856.417 51.9531 854.516 51.1719 852.016 51.1719C846.495 51.1719 843.734 54.401 843.734 60.8594H821.625C821.625 53.0469 824.542 46.6146 830.375 41.5625C836.26 36.4583 843.682 33.9062 852.641 33.9062C861.911 33.9062 869.073 36.3281 874.125 41.1719C879.229 45.9635 881.781 52.8385 881.781 61.7969V101.562C881.885 108.854 882.927 114.557 884.906 118.672V120H862.641ZM849.594 104.219C852.042 104.219 854.125 103.724 855.844 102.734C857.562 101.745 858.839 100.573 859.672 99.2188V81.6406H854.359C850.609 81.6406 847.641 82.8385 845.453 85.2344C843.318 87.6302 842.25 90.8333 842.25 94.8438C842.25 101.094 844.698 104.219 849.594 104.219ZM921 120H898.812V0H921V120Z" fill="white"/>
</svg>
